<?xml version="1.0" encoding="UTF-8"?>
<svg id="Layer_1" data-name="Layer 1" xmlns="http://www.w3.org/2000/svg" version="1.1" viewBox="0 0 1366 768">
  <defs>
    <style>
      .cls-1 {
        fill: #f4f4f4;
      }

      .cls-1, .cls-2 {
        stroke-width: 0px;
      }

      .cls-2 {
        fill: #bc96af;
      }
    </style>
  </defs>
  <rect class="cls-2" x="1.34" y="389.6" width="1366" height="50.46"/>
  <g>
    <path class="cls-1" d="M33.7,425.87h-3.18l3.33-19.4h3.18l-3.33,19.4ZM42.69,423.19c-.61.9-1.36,1.62-2.25,2.14s-1.87.78-2.91.78c-.76,0-1.41-.17-1.95-.5-.54-.33-.97-.78-1.28-1.34s-.52-1.2-.62-1.92c-.1-.71-.1-1.45,0-2.21.12-.83.33-1.6.65-2.31s.72-1.34,1.22-1.89c.5-.55,1.07-.98,1.72-1.29.65-.32,1.35-.47,2.11-.47,1.03,0,1.9.27,2.61.82.71.55,1.23,1.27,1.55,2.16s.42,1.89.29,2.99c-.15,1.13-.53,2.14-1.13,3.05ZM40.44,418.53c-.17-.5-.44-.9-.82-1.21-.38-.31-.86-.47-1.44-.49-.4,0-.79.08-1.17.25-.38.17-.73.4-1.06.71s-.6.66-.82,1.06c-.22.4-.38.83-.46,1.29-.05.43-.04.84.04,1.23s.21.74.4,1.04c.19.31.44.55.73.72.3.17.65.27,1.04.29.6.02,1.15-.12,1.67-.42.51-.3.95-.7,1.31-1.21.36-.51.58-1.06.68-1.65.1-.58.07-1.12-.1-1.62Z"/>
    <path class="cls-1" d="M47.98,425.49c-.81-.41-1.45-1.01-1.9-1.79s-.68-1.72-.68-2.81c0-.93.17-1.8.51-2.61.34-.81.82-1.53,1.44-2.14.62-.61,1.36-1.09,2.2-1.44.85-.35,1.77-.52,2.79-.52,1.11,0,2.04.2,2.8.6.75.4,1.33.97,1.73,1.72.4.75.6,1.66.6,2.74,0,.27-.02.55-.07.86s-.12.57-.2.78h-10.1v-1.99h7.64l-.85,1.14c.08-.17.16-.35.22-.55.07-.2.1-.39.1-.57,0-.51-.08-.95-.24-1.32-.16-.36-.39-.65-.7-.85-.31-.2-.71-.3-1.21-.3s-.95.1-1.36.3c-.41.2-.76.48-1.06.83-.3.36-.53.78-.71,1.28-.17.5-.29,1.04-.34,1.64-.07.63-.02,1.19.15,1.67.17.48.44.85.82,1.11.38.26.87.39,1.47.39.66,0,1.26-.15,1.78-.45.52-.3.96-.7,1.31-1.19l2.74.87c-.61,1.01-1.43,1.8-2.44,2.38-1.01.57-2.21.86-3.58.86-1.09,0-2.05-.21-2.86-.62Z"/>
    <path class="cls-1" d="M59.88,417.09c.61-.9,1.36-1.61,2.26-2.14.9-.53,1.87-.79,2.9-.77.78,0,1.43.17,1.96.5.53.33.95.78,1.27,1.33.31.56.52,1.19.62,1.9.1.71.1,1.46,0,2.24-.1.81-.31,1.58-.63,2.3-.32.72-.73,1.36-1.22,1.9-.49.55-1.06.97-1.7,1.28-.65.31-1.35.46-2.11.46-1.04,0-1.92-.27-2.64-.81-.71-.54-1.24-1.26-1.57-2.16-.33-.9-.42-1.89-.27-2.97.15-1.14.53-2.16,1.13-3.06ZM62.14,421.75c.16.51.43.91.81,1.21.38.3.86.46,1.44.47.4,0,.79-.08,1.17-.25.38-.17.73-.4,1.06-.71.32-.31.6-.66.82-1.06.22-.4.38-.82.46-1.27.07-.45.06-.86-.01-1.24-.07-.38-.21-.72-.41-1.03-.2-.31-.45-.55-.75-.73-.3-.18-.65-.28-1.04-.3-.58-.02-1.13.12-1.65.42-.52.3-.96.7-1.32,1.21-.36.51-.58,1.07-.68,1.68-.08.56-.05,1.1.11,1.6ZM72.05,414.42l-1.96,11.44h-3.11l1.94-11.44h3.13Z"/>
    <path class="cls-1" d="M77.07,422.51c.06.35.19.63.4.86.21.22.53.34.98.34s.85-.09,1.22-.27.67-.44.92-.78c.25-.34.41-.73.47-1.18l1.24-7.04h3.18l-1.99,11.44h-3.18l.27-1.67c-.4.58-.89,1.04-1.47,1.39-.58.35-1.27.52-2.06.52-.9,0-1.6-.2-2.13-.58s-.88-.92-1.06-1.58c-.18-.66-.22-1.4-.1-2.21l1.27-7.31h3.23l-1.19,6.96c-.07.4-.07.77-.01,1.12Z"/>
    <path class="cls-1" d="M93.99,414.42l-.47,2.71h-6.92l.5-2.71h6.89ZM92.75,410.44l-2.69,15.42h-3.03l2.61-15.42h3.11Z"/>
    <path class="cls-1" d="M98.89,414.42l-1.97,11.44h-3.08l1.92-11.44h3.13ZM96.73,408.69c.38-.34.83-.51,1.34-.51.55,0,1.01.17,1.38.51s.56.77.56,1.31-.19.95-.56,1.29c-.37.35-.83.52-1.38.52-.51,0-.96-.17-1.34-.52-.38-.35-.57-.78-.57-1.29s.19-.97.57-1.31Z"/>
    <path class="cls-1" d="M108.26,409.21c-.16-.11-.34-.17-.56-.19-.28,0-.53.09-.75.26-.22.17-.39.41-.52.7s-.22.6-.27.93l-2.56,14.95h-3.08l2.66-15.7c.13-.8.39-1.5.78-2.11.39-.61.9-1.09,1.53-1.44.63-.35,1.37-.51,2.21-.5.65,0,1.19.12,1.62.36s.79.52,1.07.83l-1.69,2.36c-.13-.2-.28-.35-.44-.46ZM108.19,414.42l-.5,2.71h-7.01l.5-2.71h7.01Z"/>
    <path class="cls-1" d="M110.53,431.31h-3.33l4.03-6.69-2.89-10.2h3.41l2.06,9.1-1.59-.08,5.07-9.03h3.38l-10.15,16.89Z"/>
    <path class="cls-1" d="M129.98,431.31h-3.33l4.03-6.69-2.89-10.2h3.41l2.06,9.1-1.59-.08,5.07-9.03h3.38l-10.15,16.89Z"/>
    <path class="cls-1" d="M140.7,417.06c.66-.9,1.5-1.6,2.5-2.11,1-.51,2.09-.77,3.27-.77s2.19.27,3.05.8c.85.53,1.49,1.25,1.92,2.15.42.9.56,1.91.41,3.02-.15,1.14-.56,2.16-1.22,3.06-.66.9-1.5,1.6-2.5,2.11s-2.1.77-3.3.77-2.17-.26-3.02-.78-1.49-1.24-1.92-2.14c-.42-.9-.57-1.91-.44-3.02.17-1.16.58-2.19,1.24-3.08ZM142.82,421.71c.17.5.44.9.82,1.19s.85.46,1.42.47c.6,0,1.15-.15,1.65-.44.51-.29.93-.68,1.27-1.18.34-.5.55-1.04.63-1.62.08-.58.04-1.11-.12-1.59-.17-.48-.44-.88-.82-1.19-.38-.31-.86-.47-1.44-.47-.56-.02-1.1.12-1.62.42-.51.3-.94.7-1.27,1.19-.33.5-.55,1.04-.65,1.64-.08.55-.04,1.07.12,1.57Z"/>
    <path class="cls-1" d="M157.01,422.51c.06.35.19.63.4.86.21.22.53.34.98.34s.85-.09,1.22-.27.67-.44.92-.78c.25-.34.41-.73.47-1.18l1.24-7.04h3.18l-1.99,11.44h-3.18l.27-1.67c-.4.58-.89,1.04-1.47,1.39-.58.35-1.27.52-2.06.52-.9,0-1.6-.2-2.13-.58s-.88-.92-1.06-1.58c-.18-.66-.22-1.4-.1-2.21l1.27-7.31h3.23l-1.19,6.96c-.07.4-.07.77-.01,1.12Z"/>
    <path class="cls-1" d="M169.61,425.87h-3.13l1.96-11.44h3.13l-1.96,11.44ZM173.75,417.33c-.21-.12-.45-.17-.73-.17-.43-.02-.81.1-1.14.36s-.6.58-.81.98c-.21.4-.34.83-.41,1.29l-.7-.92c.15-.78.44-1.53.86-2.25.42-.72.93-1.31,1.52-1.78.59-.46,1.21-.7,1.88-.7.41,0,.78.08,1.11.25.32.17.61.4.86.7l-1.82,2.66c-.2-.17-.4-.31-.61-.42Z"/>
    <path class="cls-1" d="M178.46,422.93c.36.28.74.5,1.12.66.38.16.77.23,1.17.21.4,0,.73-.11,1.01-.34.27-.22.41-.5.41-.83.02-.32-.07-.57-.27-.77s-.46-.38-.78-.53c-.32-.16-.68-.31-1.08-.46-.48-.18-.94-.41-1.38-.7-.44-.28-.79-.65-1.06-1.09-.27-.45-.38-.99-.35-1.62.05-.75.28-1.36.68-1.84.41-.48.92-.84,1.55-1.08.63-.24,1.29-.36,1.99-.36.95,0,1.79.18,2.52.53.74.36,1.38.8,1.93,1.33l-1.52,1.96c-.38-.43-.82-.8-1.32-1.09-.5-.3-1.01-.45-1.54-.45-.4,0-.72.09-.97.26-.25.17-.38.4-.4.68-.02.27.07.49.27.68.2.19.47.36.82.51.35.15.71.3,1.07.45.56.23,1.07.49,1.53.78.46.29.82.65,1.08,1.08.27.43.38.98.35,1.64-.05.75-.27,1.4-.65,1.95s-.89.99-1.53,1.29c-.64.31-1.37.46-2.2.46-.78,0-1.5-.11-2.15-.32-.66-.21-1.25-.5-1.78-.87-.53-.36-1-.75-1.42-1.17l1.77-1.96c.38.38.75.71,1.12.99Z"/>
    <path class="cls-1" d="M189.43,425.49c-.81-.41-1.45-1.01-1.9-1.79s-.68-1.72-.68-2.81c0-.93.17-1.8.51-2.61.34-.81.82-1.53,1.44-2.14.62-.61,1.36-1.09,2.2-1.44.85-.35,1.77-.52,2.79-.52,1.11,0,2.04.2,2.8.6.75.4,1.33.97,1.73,1.72.4.75.6,1.66.6,2.74,0,.27-.02.55-.07.86s-.12.57-.2.78h-10.1v-1.99h7.64l-.85,1.14c.08-.17.16-.35.22-.55.07-.2.1-.39.1-.57,0-.51-.08-.95-.24-1.32-.16-.36-.39-.65-.7-.85-.31-.2-.71-.3-1.21-.3s-.95.1-1.36.3c-.41.2-.76.48-1.06.83-.3.36-.53.78-.71,1.28-.17.5-.29,1.04-.34,1.64-.07.63-.02,1.19.15,1.67.17.48.44.85.82,1.11.38.26.87.39,1.47.39.66,0,1.26-.15,1.78-.45.52-.3.96-.7,1.31-1.19l2.74.87c-.61,1.01-1.43,1.8-2.44,2.38-1.01.57-2.21.86-3.58.86-1.09,0-2.05-.21-2.86-.62Z"/>
    <path class="cls-1" d="M206.49,406.46l-3.36,19.4h-3.13l3.28-19.4h3.21Z"/>
    <path class="cls-1" d="M214.29,409.21c-.16-.11-.34-.17-.56-.19-.28,0-.53.09-.75.26-.22.17-.39.41-.52.7s-.22.6-.27.93l-2.56,14.95h-3.08l2.66-15.7c.13-.8.39-1.5.78-2.11.39-.61.9-1.09,1.53-1.44.63-.35,1.37-.51,2.21-.5.65,0,1.19.12,1.62.36s.79.52,1.07.83l-1.69,2.36c-.13-.2-.28-.35-.44-.46ZM214.23,414.42l-.5,2.71h-7.01l.5-2.71h7.01Z"/>
  </g>
  <g>
    <path class="cls-1" d="M259.33,425.87h-3.18l3.33-19.4h3.18l-3.33,19.4ZM268.33,423.19c-.61.9-1.36,1.62-2.25,2.14s-1.87.78-2.91.78c-.76,0-1.41-.17-1.95-.5-.54-.33-.97-.78-1.28-1.34s-.52-1.2-.62-1.92c-.1-.71-.1-1.45,0-2.21.12-.83.33-1.6.65-2.31s.72-1.34,1.22-1.89c.5-.55,1.07-.98,1.72-1.29.65-.32,1.35-.47,2.11-.47,1.03,0,1.9.27,2.61.82.71.55,1.23,1.27,1.55,2.16s.42,1.89.29,2.99c-.15,1.13-.53,2.14-1.13,3.05ZM266.08,418.53c-.17-.5-.44-.9-.82-1.21-.38-.31-.86-.47-1.44-.49-.4,0-.79.08-1.17.25-.38.17-.73.4-1.06.71s-.6.66-.82,1.06c-.22.4-.38.83-.46,1.29-.05.43-.04.84.04,1.23s.21.74.4,1.04c.19.31.44.55.73.72.3.17.65.27,1.04.29.6.02,1.15-.12,1.67-.42.51-.3.95-.7,1.31-1.21.36-.51.58-1.06.68-1.65.1-.58.07-1.12-.1-1.62Z"/>
    <path class="cls-1" d="M273.61,425.49c-.81-.41-1.45-1.01-1.9-1.79s-.68-1.72-.68-2.81c0-.93.17-1.8.51-2.61.34-.81.82-1.53,1.44-2.14.62-.61,1.36-1.09,2.2-1.44.85-.35,1.77-.52,2.79-.52,1.11,0,2.04.2,2.8.6.75.4,1.33.97,1.73,1.72.4.75.6,1.66.6,2.74,0,.27-.02.55-.07.86s-.12.57-.2.78h-10.1v-1.99h7.64l-.85,1.14c.08-.17.16-.35.22-.55.07-.2.1-.39.1-.57,0-.51-.08-.95-.24-1.32-.16-.36-.39-.65-.7-.85-.31-.2-.71-.3-1.21-.3s-.95.1-1.36.3c-.41.2-.76.48-1.06.83-.3.36-.53.78-.71,1.28-.17.5-.29,1.04-.34,1.64-.07.63-.02,1.19.15,1.67.17.48.44.85.82,1.11.38.26.87.39,1.47.39.66,0,1.26-.15,1.78-.45.52-.3.96-.7,1.31-1.19l2.74.87c-.61,1.01-1.43,1.8-2.44,2.38-1.01.57-2.21.86-3.58.86-1.09,0-2.05-.21-2.86-.62Z"/>
    <path class="cls-1" d="M285.51,417.09c.61-.9,1.36-1.61,2.26-2.14.9-.53,1.87-.79,2.9-.77.78,0,1.43.17,1.96.5.53.33.95.78,1.27,1.33.31.56.52,1.19.62,1.9.1.71.1,1.46,0,2.24-.1.81-.31,1.58-.63,2.3-.32.72-.73,1.36-1.22,1.9-.49.55-1.06.97-1.7,1.28-.65.31-1.35.46-2.11.46-1.04,0-1.92-.27-2.64-.81-.71-.54-1.24-1.26-1.57-2.16-.33-.9-.42-1.89-.27-2.97.15-1.14.53-2.16,1.13-3.06ZM287.78,421.75c.16.51.43.91.81,1.21.38.3.86.46,1.44.47.4,0,.79-.08,1.17-.25.38-.17.73-.4,1.06-.71.32-.31.6-.66.82-1.06.22-.4.38-.82.46-1.27.07-.45.06-.86-.01-1.24-.07-.38-.21-.72-.41-1.03-.2-.31-.45-.55-.75-.73-.3-.18-.65-.28-1.04-.3-.58-.02-1.13.12-1.65.42-.52.3-.96.7-1.32,1.21-.36.51-.58,1.07-.68,1.68-.08.56-.05,1.1.11,1.6ZM297.69,414.42l-1.96,11.44h-3.11l1.94-11.44h3.13Z"/>
    <path class="cls-1" d="M302.7,422.51c.06.35.19.63.4.86.21.22.53.34.98.34s.85-.09,1.22-.27.67-.44.92-.78c.25-.34.41-.73.47-1.18l1.24-7.04h3.18l-1.99,11.44h-3.18l.27-1.67c-.4.58-.89,1.04-1.47,1.39-.58.35-1.27.52-2.06.52-.9,0-1.6-.2-2.13-.58s-.88-.92-1.06-1.58c-.18-.66-.22-1.4-.1-2.21l1.27-7.31h3.23l-1.19,6.96c-.07.4-.07.77-.01,1.12Z"/>
    <path class="cls-1" d="M319.63,414.42l-.47,2.71h-6.92l.5-2.71h6.89ZM318.38,410.44l-2.69,15.42h-3.03l2.61-15.42h3.11Z"/>
    <path class="cls-1" d="M324.53,414.42l-1.97,11.44h-3.08l1.92-11.44h3.13ZM322.36,408.69c.38-.34.83-.51,1.34-.51.55,0,1.01.17,1.38.51s.56.77.56,1.31-.19.95-.56,1.29c-.37.35-.83.52-1.38.52-.51,0-.96-.17-1.34-.52-.38-.35-.57-.78-.57-1.29s.19-.97.57-1.31Z"/>
    <path class="cls-1" d="M333.89,409.21c-.16-.11-.34-.17-.56-.19-.28,0-.53.09-.75.26-.22.17-.39.41-.52.7s-.22.6-.27.93l-2.56,14.95h-3.08l2.66-15.7c.13-.8.39-1.5.78-2.11.39-.61.9-1.09,1.53-1.44.63-.35,1.37-.51,2.21-.5.65,0,1.19.12,1.62.36s.79.52,1.07.83l-1.69,2.36c-.13-.2-.28-.35-.44-.46ZM333.83,414.42l-.5,2.71h-7.01l.5-2.71h7.01Z"/>
    <path class="cls-1" d="M336.17,431.31h-3.33l4.03-6.69-2.89-10.2h3.41l2.06,9.1-1.59-.08,5.07-9.03h3.38l-10.15,16.89Z"/>
    <path class="cls-1" d="M355.62,431.31h-3.33l4.03-6.69-2.89-10.2h3.41l2.06,9.1-1.59-.08,5.07-9.03h3.38l-10.15,16.89Z"/>
    <path class="cls-1" d="M366.34,417.06c.66-.9,1.5-1.6,2.5-2.11,1-.51,2.09-.77,3.27-.77s2.19.27,3.05.8c.85.53,1.49,1.25,1.92,2.15.42.9.56,1.91.41,3.02-.15,1.14-.56,2.16-1.22,3.06-.66.9-1.5,1.6-2.5,2.11s-2.1.77-3.3.77-2.17-.26-3.02-.78-1.49-1.24-1.92-2.14c-.42-.9-.57-1.91-.44-3.02.17-1.16.58-2.19,1.24-3.08ZM368.45,421.71c.17.5.44.9.82,1.19s.85.46,1.42.47c.6,0,1.15-.15,1.65-.44.51-.29.93-.68,1.27-1.18.34-.5.55-1.04.63-1.62.08-.58.04-1.11-.12-1.59-.17-.48-.44-.88-.82-1.19-.38-.31-.86-.47-1.44-.47-.56-.02-1.1.12-1.62.42-.51.3-.94.7-1.27,1.19-.33.5-.55,1.04-.65,1.64-.08.55-.04,1.07.12,1.57Z"/>
    <path class="cls-1" d="M382.64,422.51c.06.35.19.63.4.86.21.22.53.34.98.34s.85-.09,1.22-.27.67-.44.92-.78c.25-.34.41-.73.47-1.18l1.24-7.04h3.18l-1.99,11.44h-3.18l.27-1.67c-.4.58-.89,1.04-1.47,1.39-.58.35-1.27.52-2.06.52-.9,0-1.6-.2-2.13-.58s-.88-.92-1.06-1.58c-.18-.66-.22-1.4-.1-2.21l1.27-7.31h3.23l-1.19,6.96c-.07.4-.07.77-.01,1.12Z"/>
    <path class="cls-1" d="M395.24,425.87h-3.13l1.96-11.44h3.13l-1.96,11.44ZM399.38,417.33c-.21-.12-.45-.17-.73-.17-.43-.02-.81.1-1.14.36s-.6.58-.81.98c-.21.4-.34.83-.41,1.29l-.7-.92c.15-.78.44-1.53.86-2.25.42-.72.93-1.31,1.52-1.78.59-.46,1.21-.7,1.88-.7.41,0,.78.08,1.11.25.32.17.61.4.86.7l-1.82,2.66c-.2-.17-.4-.31-.61-.42Z"/>
    <path class="cls-1" d="M404.1,422.93c.36.28.74.5,1.12.66.38.16.77.23,1.17.21.4,0,.73-.11,1.01-.34.27-.22.41-.5.41-.83.02-.32-.07-.57-.27-.77s-.46-.38-.78-.53c-.32-.16-.68-.31-1.08-.46-.48-.18-.94-.41-1.38-.7-.44-.28-.79-.65-1.06-1.09-.27-.45-.38-.99-.35-1.62.05-.75.28-1.36.68-1.84.41-.48.92-.84,1.55-1.08.63-.24,1.29-.36,1.99-.36.95,0,1.79.18,2.52.53.74.36,1.38.8,1.93,1.33l-1.52,1.96c-.38-.43-.82-.8-1.32-1.09-.5-.3-1.01-.45-1.54-.45-.4,0-.72.09-.97.26-.25.17-.38.4-.4.68-.02.27.07.49.27.68.2.19.47.36.82.51.35.15.71.3,1.07.45.56.23,1.07.49,1.53.78.46.29.82.65,1.08,1.08.27.43.38.98.35,1.64-.05.75-.27,1.4-.65,1.95s-.89.99-1.53,1.29c-.64.31-1.37.46-2.2.46-.78,0-1.5-.11-2.15-.32-.66-.21-1.25-.5-1.78-.87-.53-.36-1-.75-1.42-1.17l1.77-1.96c.38.38.75.71,1.12.99Z"/>
    <path class="cls-1" d="M415.07,425.49c-.81-.41-1.45-1.01-1.9-1.79s-.68-1.72-.68-2.81c0-.93.17-1.8.51-2.61.34-.81.82-1.53,1.44-2.14.62-.61,1.36-1.09,2.2-1.44.85-.35,1.77-.52,2.79-.52,1.11,0,2.04.2,2.8.6.75.4,1.33.97,1.73,1.72.4.75.6,1.66.6,2.74,0,.27-.02.55-.07.86s-.12.57-.2.78h-10.1v-1.99h7.64l-.85,1.14c.08-.17.16-.35.22-.55.07-.2.1-.39.1-.57,0-.51-.08-.95-.24-1.32-.16-.36-.39-.65-.7-.85-.31-.2-.71-.3-1.21-.3s-.95.1-1.36.3c-.41.2-.76.48-1.06.83-.3.36-.53.78-.71,1.28-.17.5-.29,1.04-.34,1.64-.07.63-.02,1.19.15,1.67.17.48.44.85.82,1.11.38.26.87.39,1.47.39.66,0,1.26-.15,1.78-.45.52-.3.96-.7,1.31-1.19l2.74.87c-.61,1.01-1.43,1.8-2.44,2.38-1.01.57-2.21.86-3.58.86-1.09,0-2.05-.21-2.86-.62Z"/>
    <path class="cls-1" d="M432.13,406.46l-3.36,19.4h-3.13l3.28-19.4h3.21Z"/>
    <path class="cls-1" d="M439.93,409.21c-.16-.11-.34-.17-.56-.19-.28,0-.53.09-.75.26-.22.17-.39.41-.52.7s-.22.6-.27.93l-2.56,14.95h-3.08l2.66-15.7c.13-.8.39-1.5.78-2.11.39-.61.9-1.09,1.53-1.44.63-.35,1.37-.51,2.21-.5.65,0,1.19.12,1.62.36s.79.52,1.07.83l-1.69,2.36c-.13-.2-.28-.35-.44-.46ZM439.87,414.42l-.5,2.71h-7.01l.5-2.71h7.01Z"/>
  </g>
  <g>
    <path class="cls-1" d="M484.97,425.87h-3.18l3.33-19.4h3.18l-3.33,19.4ZM493.96,423.19c-.61.9-1.36,1.62-2.25,2.14s-1.87.78-2.91.78c-.76,0-1.41-.17-1.95-.5-.54-.33-.97-.78-1.28-1.34s-.52-1.2-.62-1.92c-.1-.71-.1-1.45,0-2.21.12-.83.33-1.6.65-2.31s.72-1.34,1.22-1.89c.5-.55,1.07-.98,1.72-1.29.65-.32,1.35-.47,2.11-.47,1.03,0,1.9.27,2.61.82.71.55,1.23,1.27,1.55,2.16s.42,1.89.29,2.99c-.15,1.13-.53,2.14-1.13,3.05ZM491.71,418.53c-.17-.5-.44-.9-.82-1.21-.38-.31-.86-.47-1.44-.49-.4,0-.79.08-1.17.25-.38.17-.73.4-1.06.71s-.6.66-.82,1.06c-.22.4-.38.83-.46,1.29-.05.43-.04.84.04,1.23s.21.74.4,1.04c.19.31.44.55.73.72.3.17.65.27,1.04.29.6.02,1.15-.12,1.67-.42.51-.3.95-.7,1.31-1.21.36-.51.58-1.06.68-1.65.1-.58.07-1.12-.1-1.62Z"/>
    <path class="cls-1" d="M499.25,425.49c-.81-.41-1.45-1.01-1.9-1.79s-.68-1.72-.68-2.81c0-.93.17-1.8.51-2.61.34-.81.82-1.53,1.44-2.14.62-.61,1.36-1.09,2.2-1.44.85-.35,1.77-.52,2.79-.52,1.11,0,2.04.2,2.8.6.75.4,1.33.97,1.73,1.72.4.75.6,1.66.6,2.74,0,.27-.02.55-.07.86s-.12.57-.2.78h-10.1v-1.99h7.64l-.85,1.14c.08-.17.16-.35.22-.55.07-.2.1-.39.1-.57,0-.51-.08-.95-.24-1.32-.16-.36-.39-.65-.7-.85-.31-.2-.71-.3-1.21-.3s-.95.1-1.36.3c-.41.2-.76.48-1.06.83-.3.36-.53.78-.71,1.28-.17.5-.29,1.04-.34,1.64-.07.63-.02,1.19.15,1.67.17.48.44.85.82,1.11.38.26.87.39,1.47.39.66,0,1.26-.15,1.78-.45.52-.3.96-.7,1.31-1.19l2.74.87c-.61,1.01-1.43,1.8-2.44,2.38-1.01.57-2.21.86-3.58.86-1.09,0-2.05-.21-2.86-.62Z"/>
    <path class="cls-1" d="M511.15,417.09c.61-.9,1.36-1.61,2.26-2.14.9-.53,1.87-.79,2.9-.77.78,0,1.43.17,1.96.5.53.33.95.78,1.27,1.33.31.56.52,1.19.62,1.9.1.71.1,1.46,0,2.24-.1.81-.31,1.58-.63,2.3-.32.72-.73,1.36-1.22,1.9-.49.55-1.06.97-1.7,1.28-.65.31-1.35.46-2.11.46-1.04,0-1.92-.27-2.64-.81-.71-.54-1.24-1.26-1.57-2.16-.33-.9-.42-1.89-.27-2.97.15-1.14.53-2.16,1.13-3.06ZM513.41,421.75c.16.51.43.91.81,1.21.38.3.86.46,1.44.47.4,0,.79-.08,1.17-.25.38-.17.73-.4,1.06-.71.32-.31.6-.66.82-1.06.22-.4.38-.82.46-1.27.07-.45.06-.86-.01-1.24-.07-.38-.21-.72-.41-1.03-.2-.31-.45-.55-.75-.73-.3-.18-.65-.28-1.04-.3-.58-.02-1.13.12-1.65.42-.52.3-.96.7-1.32,1.21-.36.51-.58,1.07-.68,1.68-.08.56-.05,1.1.11,1.6ZM523.33,414.42l-1.96,11.44h-3.11l1.94-11.44h3.13Z"/>
    <path class="cls-1" d="M528.34,422.51c.06.35.19.63.4.86.21.22.53.34.98.34s.85-.09,1.22-.27.67-.44.92-.78c.25-.34.41-.73.47-1.18l1.24-7.04h3.18l-1.99,11.44h-3.18l.27-1.67c-.4.58-.89,1.04-1.47,1.39-.58.35-1.27.52-2.06.52-.9,0-1.6-.2-2.13-.58s-.88-.92-1.06-1.58c-.18-.66-.22-1.4-.1-2.21l1.27-7.31h3.23l-1.19,6.96c-.07.4-.07.77-.01,1.12Z"/>
    <path class="cls-1" d="M545.26,414.42l-.47,2.71h-6.92l.5-2.71h6.89ZM544.02,410.44l-2.69,15.42h-3.03l2.61-15.42h3.11Z"/>
    <path class="cls-1" d="M550.17,414.42l-1.97,11.44h-3.08l1.92-11.44h3.13ZM548,408.69c.38-.34.83-.51,1.34-.51.55,0,1.01.17,1.38.51s.56.77.56,1.31-.19.95-.56,1.29c-.37.35-.83.52-1.38.52-.51,0-.96-.17-1.34-.52-.38-.35-.57-.78-.57-1.29s.19-.97.57-1.31Z"/>
    <path class="cls-1" d="M559.53,409.21c-.16-.11-.34-.17-.56-.19-.28,0-.53.09-.75.26-.22.17-.39.41-.52.7s-.22.6-.27.93l-2.56,14.95h-3.08l2.66-15.7c.13-.8.39-1.5.78-2.11.39-.61.9-1.09,1.53-1.44.63-.35,1.37-.51,2.21-.5.65,0,1.19.12,1.62.36s.79.52,1.07.83l-1.69,2.36c-.13-.2-.28-.35-.44-.46ZM559.47,414.42l-.5,2.71h-7.01l.5-2.71h7.01Z"/>
    <path class="cls-1" d="M561.81,431.31h-3.33l4.03-6.69-2.89-10.2h3.41l2.06,9.1-1.59-.08,5.07-9.03h3.38l-10.15,16.89Z"/>
    <path class="cls-1" d="M581.26,431.31h-3.33l4.03-6.69-2.89-10.2h3.41l2.06,9.1-1.59-.08,5.07-9.03h3.38l-10.15,16.89Z"/>
    <path class="cls-1" d="M591.98,417.06c.66-.9,1.5-1.6,2.5-2.11,1-.51,2.09-.77,3.27-.77s2.19.27,3.05.8c.85.53,1.49,1.25,1.92,2.15.42.9.56,1.91.41,3.02-.15,1.14-.56,2.16-1.22,3.06-.66.9-1.5,1.6-2.5,2.11s-2.1.77-3.3.77-2.17-.26-3.02-.78-1.49-1.24-1.92-2.14c-.42-.9-.57-1.91-.44-3.02.17-1.16.58-2.19,1.24-3.08ZM594.09,421.71c.17.5.44.9.82,1.19s.85.46,1.42.47c.6,0,1.15-.15,1.65-.44.51-.29.93-.68,1.27-1.18.34-.5.55-1.04.63-1.62.08-.58.04-1.11-.12-1.59-.17-.48-.44-.88-.82-1.19-.38-.31-.86-.47-1.44-.47-.56-.02-1.1.12-1.62.42-.51.3-.94.7-1.27,1.19-.33.5-.55,1.04-.65,1.64-.08.55-.04,1.07.12,1.57Z"/>
    <path class="cls-1" d="M608.28,422.51c.06.35.19.63.4.86.21.22.53.34.98.34s.85-.09,1.22-.27.67-.44.92-.78c.25-.34.41-.73.47-1.18l1.24-7.04h3.18l-1.99,11.44h-3.18l.27-1.67c-.4.58-.89,1.04-1.47,1.39-.58.35-1.27.52-2.06.52-.9,0-1.6-.2-2.13-.58s-.88-.92-1.06-1.58c-.18-.66-.22-1.4-.1-2.21l1.27-7.31h3.23l-1.19,6.96c-.07.4-.07.77-.01,1.12Z"/>
    <path class="cls-1" d="M620.88,425.87h-3.13l1.96-11.44h3.13l-1.96,11.44ZM625.02,417.33c-.21-.12-.45-.17-.73-.17-.43-.02-.81.1-1.14.36s-.6.58-.81.98c-.21.4-.34.83-.41,1.29l-.7-.92c.15-.78.44-1.53.86-2.25.42-.72.93-1.31,1.52-1.78.59-.46,1.21-.7,1.88-.7.41,0,.78.08,1.11.25.32.17.61.4.86.7l-1.82,2.66c-.2-.17-.4-.31-.61-.42Z"/>
    <path class="cls-1" d="M629.73,422.93c.36.28.74.5,1.12.66.38.16.77.23,1.17.21.4,0,.73-.11,1.01-.34.27-.22.41-.5.41-.83.02-.32-.07-.57-.27-.77s-.46-.38-.78-.53c-.32-.16-.68-.31-1.08-.46-.48-.18-.94-.41-1.38-.7-.44-.28-.79-.65-1.06-1.09-.27-.45-.38-.99-.35-1.62.05-.75.28-1.36.68-1.84.41-.48.92-.84,1.55-1.08.63-.24,1.29-.36,1.99-.36.95,0,1.79.18,2.52.53.74.36,1.38.8,1.93,1.33l-1.52,1.96c-.38-.43-.82-.8-1.32-1.09-.5-.3-1.01-.45-1.54-.45-.4,0-.72.09-.97.26-.25.17-.38.4-.4.68-.02.27.07.49.27.68.2.19.47.36.82.51.35.15.71.3,1.07.45.56.23,1.07.49,1.53.78.46.29.82.65,1.08,1.08.27.43.38.98.35,1.64-.05.75-.27,1.4-.65,1.95s-.89.99-1.53,1.29c-.64.31-1.37.46-2.2.46-.78,0-1.5-.11-2.15-.32-.66-.21-1.25-.5-1.78-.87-.53-.36-1-.75-1.42-1.17l1.77-1.96c.38.38.75.71,1.12.99Z"/>
    <path class="cls-1" d="M640.7,425.49c-.81-.41-1.45-1.01-1.9-1.79s-.68-1.72-.68-2.81c0-.93.17-1.8.51-2.61.34-.81.82-1.53,1.44-2.14.62-.61,1.36-1.09,2.2-1.44.85-.35,1.77-.52,2.79-.52,1.11,0,2.04.2,2.8.6.75.4,1.33.97,1.73,1.72.4.75.6,1.66.6,2.74,0,.27-.02.55-.07.86s-.12.57-.2.78h-10.1v-1.99h7.64l-.85,1.14c.08-.17.16-.35.22-.55.07-.2.1-.39.1-.57,0-.51-.08-.95-.24-1.32-.16-.36-.39-.65-.7-.85-.31-.2-.71-.3-1.21-.3s-.95.1-1.36.3c-.41.2-.76.48-1.06.83-.3.36-.53.78-.71,1.28-.17.5-.29,1.04-.34,1.64-.07.63-.02,1.19.15,1.67.17.48.44.85.82,1.11.38.26.87.39,1.47.39.66,0,1.26-.15,1.78-.45.52-.3.96-.7,1.31-1.19l2.74.87c-.61,1.01-1.43,1.8-2.44,2.38-1.01.57-2.21.86-3.58.86-1.09,0-2.05-.21-2.86-.62Z"/>
    <path class="cls-1" d="M657.77,406.46l-3.36,19.4h-3.13l3.28-19.4h3.21Z"/>
    <path class="cls-1" d="M665.56,409.21c-.16-.11-.34-.17-.56-.19-.28,0-.53.09-.75.26-.22.17-.39.41-.52.7s-.22.6-.27.93l-2.56,14.95h-3.08l2.66-15.7c.13-.8.39-1.5.78-2.11.39-.61.9-1.09,1.53-1.44.63-.35,1.37-.51,2.21-.5.65,0,1.19.12,1.62.36s.79.52,1.07.83l-1.69,2.36c-.13-.2-.28-.35-.44-.46ZM665.5,414.42l-.5,2.71h-7.01l.5-2.71h7.01Z"/>
  </g>
  <g>
    <path class="cls-1" d="M710.61,425.87h-3.18l3.33-19.4h3.18l-3.33,19.4ZM719.6,423.19c-.61.9-1.36,1.62-2.25,2.14s-1.87.78-2.91.78c-.76,0-1.41-.17-1.95-.5-.54-.33-.97-.78-1.28-1.34-.32-.56-.52-1.2-.62-1.92s-.1-1.45,0-2.21c.12-.83.33-1.6.65-2.31.31-.71.72-1.34,1.22-1.89.5-.55,1.07-.98,1.72-1.29s1.35-.47,2.11-.47c1.03,0,1.9.27,2.61.82.71.55,1.23,1.27,1.55,2.16.32.9.42,1.89.29,2.99-.15,1.13-.53,2.14-1.13,3.05ZM717.35,418.53c-.17-.5-.44-.9-.82-1.21-.38-.31-.86-.47-1.44-.49-.4,0-.79.08-1.17.25-.38.17-.73.4-1.06.71s-.6.66-.82,1.06c-.22.4-.38.83-.46,1.29-.05.43-.04.84.04,1.23.08.39.21.74.4,1.04.19.31.44.55.73.72.3.17.65.27,1.04.29.6.02,1.15-.12,1.67-.42.51-.3.95-.7,1.31-1.21.36-.51.58-1.06.68-1.65.1-.58.07-1.12-.1-1.62Z"/>
    <path class="cls-1" d="M724.89,425.49c-.81-.41-1.45-1.01-1.9-1.79-.46-.78-.68-1.72-.68-2.81,0-.93.17-1.8.51-2.61.34-.81.82-1.53,1.44-2.14.62-.61,1.36-1.09,2.2-1.44.85-.35,1.77-.52,2.79-.52,1.11,0,2.04.2,2.8.6.75.4,1.33.97,1.73,1.72.4.75.6,1.66.6,2.74,0,.27-.02.55-.07.86s-.12.57-.2.78h-10.1v-1.99h7.64l-.85,1.14c.08-.17.16-.35.22-.55s.1-.39.1-.57c0-.51-.08-.95-.24-1.32-.16-.36-.39-.65-.7-.85-.31-.2-.71-.3-1.21-.3s-.95.1-1.36.3c-.41.2-.76.48-1.06.83-.3.36-.54.78-.71,1.28-.17.5-.29,1.04-.34,1.64-.07.63-.02,1.19.15,1.67.17.48.44.85.82,1.11.38.26.87.39,1.47.39.66,0,1.26-.15,1.78-.45.52-.3.96-.7,1.31-1.19l2.74.87c-.61,1.01-1.43,1.8-2.44,2.38s-2.21.86-3.58.86c-1.09,0-2.05-.21-2.86-.62Z"/>
    <path class="cls-1" d="M736.79,417.09c.61-.9,1.36-1.61,2.26-2.14.9-.53,1.87-.79,2.9-.77.78,0,1.43.17,1.96.5.53.33.95.78,1.27,1.33.32.56.52,1.19.62,1.9.1.71.1,1.46,0,2.24-.1.81-.31,1.58-.63,2.3-.32.72-.73,1.36-1.22,1.9-.49.55-1.06.97-1.7,1.28s-1.35.46-2.11.46c-1.04,0-1.92-.27-2.64-.81-.71-.54-1.24-1.26-1.57-2.16-.33-.9-.42-1.89-.27-2.97.15-1.14.53-2.16,1.13-3.06ZM739.05,421.75c.16.51.43.91.81,1.21.38.3.86.46,1.44.47.4,0,.79-.08,1.17-.25.38-.17.73-.4,1.06-.71.32-.31.6-.66.82-1.06.22-.4.38-.82.46-1.27.07-.45.06-.86-.01-1.24-.08-.38-.21-.72-.41-1.03-.2-.31-.45-.55-.75-.73-.3-.18-.65-.28-1.04-.3-.58-.02-1.13.12-1.65.42-.52.3-.96.7-1.32,1.21-.36.51-.58,1.07-.68,1.68-.08.56-.05,1.1.11,1.6ZM748.96,414.42l-1.96,11.44h-3.11l1.94-11.44h3.13Z"/>
    <path class="cls-1" d="M753.98,422.51c.06.35.19.63.4.86s.54.34.98.34.85-.09,1.22-.27c.36-.18.67-.44.92-.78.25-.34.41-.73.47-1.18l1.24-7.04h3.18l-1.99,11.44h-3.18l.27-1.67c-.4.58-.89,1.04-1.47,1.39-.58.35-1.27.52-2.06.52-.9,0-1.6-.2-2.13-.58s-.88-.92-1.06-1.58c-.18-.66-.22-1.4-.1-2.21l1.27-7.31h3.23l-1.19,6.96c-.07.4-.07.77-.01,1.12Z"/>
    <path class="cls-1" d="M770.9,414.42l-.47,2.71h-6.92l.5-2.71h6.89ZM769.66,410.44l-2.69,15.42h-3.04l2.61-15.42h3.11Z"/>
    <path class="cls-1" d="M775.8,414.42l-1.96,11.44h-3.08l1.92-11.44h3.13ZM773.64,408.69c.38-.34.83-.51,1.34-.51.55,0,1.01.17,1.38.51s.56.77.56,1.31-.19.95-.56,1.29c-.37.35-.83.52-1.38.52-.51,0-.96-.17-1.34-.52-.38-.35-.57-.78-.57-1.29s.19-.97.57-1.31Z"/>
    <path class="cls-1" d="M785.17,409.21c-.16-.11-.34-.17-.56-.19-.28,0-.53.09-.75.26-.21.17-.39.41-.52.7-.13.29-.22.6-.27.93l-2.56,14.95h-3.08l2.66-15.7c.13-.8.39-1.5.78-2.11s.9-1.09,1.53-1.44c.63-.35,1.37-.51,2.21-.5.65,0,1.18.12,1.62.36s.79.52,1.07.83l-1.69,2.36c-.13-.2-.28-.35-.43-.46ZM785.1,414.42l-.5,2.71h-7.01l.5-2.71h7.01Z"/>
    <path class="cls-1" d="M787.44,431.31h-3.33l4.03-6.69-2.88-10.2h3.41l2.06,9.1-1.59-.08,5.07-9.03h3.38l-10.15,16.89Z"/>
    <path class="cls-1" d="M806.89,431.31h-3.33l4.03-6.69-2.88-10.2h3.41l2.06,9.1-1.59-.08,5.07-9.03h3.38l-10.15,16.89Z"/>
    <path class="cls-1" d="M817.61,417.06c.66-.9,1.5-1.6,2.5-2.11,1-.51,2.09-.77,3.27-.77s2.19.27,3.05.8c.85.53,1.49,1.25,1.92,2.15.42.9.56,1.91.41,3.02-.15,1.14-.56,2.16-1.22,3.06s-1.5,1.6-2.5,2.11c-1,.51-2.1.77-3.3.77s-2.17-.26-3.02-.78c-.85-.52-1.49-1.24-1.92-2.14-.42-.9-.57-1.91-.44-3.02.17-1.16.58-2.19,1.24-3.08ZM819.73,421.71c.17.5.44.9.82,1.19s.85.46,1.42.47c.6,0,1.15-.15,1.65-.44s.93-.68,1.27-1.18c.34-.5.55-1.04.63-1.62s.04-1.11-.12-1.59c-.17-.48-.44-.88-.82-1.19-.38-.31-.86-.47-1.44-.47-.56-.02-1.1.12-1.62.42-.51.3-.94.7-1.27,1.19-.33.5-.55,1.04-.65,1.64-.08.55-.04,1.07.12,1.57Z"/>
    <path class="cls-1" d="M833.92,422.51c.06.35.19.63.4.86s.54.34.98.34.85-.09,1.22-.27c.36-.18.67-.44.92-.78.25-.34.41-.73.47-1.18l1.24-7.04h3.18l-1.99,11.44h-3.18l.27-1.67c-.4.58-.89,1.04-1.47,1.39-.58.35-1.27.52-2.06.52-.9,0-1.6-.2-2.13-.58s-.88-.92-1.06-1.58c-.18-.66-.22-1.4-.1-2.21l1.27-7.31h3.23l-1.19,6.96c-.07.4-.07.77-.01,1.12Z"/>
    <path class="cls-1" d="M846.52,425.87h-3.13l1.96-11.44h3.13l-1.96,11.44ZM850.66,417.33c-.21-.12-.45-.17-.73-.17-.43-.02-.81.1-1.14.36s-.6.58-.81.98c-.21.4-.34.83-.41,1.29l-.7-.92c.15-.78.44-1.53.86-2.25.42-.72.93-1.31,1.52-1.78.59-.46,1.21-.7,1.88-.7.42,0,.78.08,1.11.25s.61.4.86.7l-1.82,2.66c-.2-.17-.4-.31-.61-.42Z"/>
    <path class="cls-1" d="M855.37,422.93c.36.28.74.5,1.12.66.38.16.77.23,1.17.21.4,0,.73-.11,1.01-.34.27-.22.41-.5.41-.83.02-.32-.08-.57-.27-.77-.2-.2-.46-.38-.78-.53-.32-.16-.68-.31-1.08-.46-.48-.18-.94-.41-1.38-.7-.44-.28-.79-.65-1.06-1.09-.27-.45-.38-.99-.35-1.62.05-.75.28-1.36.68-1.84.41-.48.92-.84,1.55-1.08.63-.24,1.29-.36,1.99-.36.95,0,1.79.18,2.53.53.74.36,1.38.8,1.93,1.33l-1.52,1.96c-.38-.43-.82-.8-1.32-1.09-.5-.3-1.01-.45-1.54-.45-.4,0-.72.09-.97.26-.25.17-.38.4-.4.68-.02.27.07.49.27.68.2.19.47.36.82.51.35.15.7.3,1.07.45.56.23,1.07.49,1.53.78.46.29.82.65,1.08,1.08.27.43.38.98.35,1.64-.05.75-.27,1.4-.65,1.95-.38.56-.89.99-1.53,1.29s-1.37.46-2.2.46c-.78,0-1.5-.11-2.15-.32-.66-.21-1.25-.5-1.78-.87-.53-.36-1-.75-1.42-1.17l1.77-1.96c.38.38.75.71,1.12.99Z"/>
    <path class="cls-1" d="M866.34,425.49c-.81-.41-1.45-1.01-1.9-1.79-.46-.78-.68-1.72-.68-2.81,0-.93.17-1.8.51-2.61.34-.81.82-1.53,1.44-2.14.62-.61,1.36-1.09,2.2-1.44.85-.35,1.77-.52,2.79-.52,1.11,0,2.04.2,2.8.6.75.4,1.33.97,1.73,1.72.4.75.6,1.66.6,2.74,0,.27-.02.55-.07.86s-.12.57-.2.78h-10.1v-1.99h7.64l-.85,1.14c.08-.17.16-.35.22-.55s.1-.39.1-.57c0-.51-.08-.95-.24-1.32-.16-.36-.39-.65-.7-.85-.31-.2-.71-.3-1.21-.3s-.95.1-1.36.3c-.41.2-.76.48-1.06.83-.3.36-.54.78-.71,1.28-.17.5-.29,1.04-.34,1.64-.07.63-.02,1.19.15,1.67.17.48.44.85.82,1.11.38.26.87.39,1.47.39.66,0,1.26-.15,1.78-.45.52-.3.96-.7,1.31-1.19l2.74.87c-.61,1.01-1.43,1.8-2.44,2.38s-2.21.86-3.58.86c-1.09,0-2.05-.21-2.86-.62Z"/>
    <path class="cls-1" d="M883.4,406.46l-3.36,19.4h-3.13l3.28-19.4h3.21Z"/>
    <path class="cls-1" d="M891.2,409.21c-.16-.11-.34-.17-.56-.19-.28,0-.53.09-.75.26-.21.17-.39.41-.52.7-.13.29-.22.6-.27.93l-2.56,14.95h-3.08l2.66-15.7c.13-.8.39-1.5.78-2.11s.9-1.09,1.53-1.44c.63-.35,1.37-.51,2.21-.5.65,0,1.18.12,1.62.36s.79.52,1.07.83l-1.69,2.36c-.13-.2-.28-.35-.43-.46ZM891.14,414.42l-.5,2.71h-7.01l.5-2.71h7.01Z"/>
  </g>
  <g>
    <path class="cls-1" d="M936.24,425.87h-3.18l3.33-19.4h3.18l-3.33,19.4ZM945.24,423.19c-.61.9-1.36,1.62-2.25,2.14s-1.87.78-2.91.78c-.76,0-1.41-.17-1.95-.5-.54-.33-.97-.78-1.28-1.34-.32-.56-.52-1.2-.62-1.92s-.1-1.45,0-2.21c.12-.83.33-1.6.65-2.31.31-.71.72-1.34,1.22-1.89.5-.55,1.07-.98,1.72-1.29s1.35-.47,2.11-.47c1.03,0,1.9.27,2.61.82.71.55,1.23,1.27,1.55,2.16.32.9.42,1.89.29,2.99-.15,1.13-.53,2.14-1.13,3.05ZM942.98,418.53c-.17-.5-.44-.9-.82-1.21-.38-.31-.86-.47-1.44-.49-.4,0-.79.08-1.17.25-.38.17-.73.4-1.06.71s-.6.66-.82,1.06c-.22.4-.38.83-.46,1.29-.05.43-.04.84.04,1.23.08.39.21.74.4,1.04.19.31.44.55.73.72.3.17.65.27,1.04.29.6.02,1.15-.12,1.67-.42.51-.3.95-.7,1.31-1.21.36-.51.58-1.06.68-1.65.1-.58.07-1.12-.1-1.62Z"/>
    <path class="cls-1" d="M950.52,425.49c-.81-.41-1.45-1.01-1.9-1.79-.46-.78-.68-1.72-.68-2.81,0-.93.17-1.8.51-2.61.34-.81.82-1.53,1.44-2.14.62-.61,1.36-1.09,2.2-1.44.85-.35,1.77-.52,2.79-.52,1.11,0,2.04.2,2.8.6.75.4,1.33.97,1.73,1.72.4.75.6,1.66.6,2.74,0,.27-.02.55-.07.86s-.12.57-.2.78h-10.1v-1.99h7.64l-.85,1.14c.08-.17.16-.35.22-.55s.1-.39.1-.57c0-.51-.08-.95-.24-1.32-.16-.36-.39-.65-.7-.85-.31-.2-.71-.3-1.21-.3s-.95.1-1.36.3c-.41.2-.76.48-1.06.83-.3.36-.54.78-.71,1.28-.17.5-.29,1.04-.34,1.64-.07.63-.02,1.19.15,1.67.17.48.44.85.82,1.11.38.26.87.39,1.47.39.66,0,1.26-.15,1.78-.45.52-.3.96-.7,1.31-1.19l2.74.87c-.61,1.01-1.43,1.8-2.44,2.38s-2.21.86-3.58.86c-1.09,0-2.05-.21-2.86-.62Z"/>
    <path class="cls-1" d="M962.42,417.09c.61-.9,1.36-1.61,2.26-2.14.9-.53,1.87-.79,2.9-.77.78,0,1.43.17,1.96.5.53.33.95.78,1.27,1.33.32.56.52,1.19.62,1.9.1.71.1,1.46,0,2.24-.1.81-.31,1.58-.63,2.3-.32.72-.73,1.36-1.22,1.9-.49.55-1.06.97-1.7,1.28s-1.35.46-2.11.46c-1.04,0-1.92-.27-2.64-.81-.71-.54-1.24-1.26-1.57-2.16-.33-.9-.42-1.89-.27-2.97.15-1.14.53-2.16,1.13-3.06ZM964.69,421.75c.16.51.43.91.81,1.21.38.3.86.46,1.44.47.4,0,.79-.08,1.17-.25.38-.17.73-.4,1.06-.71.32-.31.6-.66.82-1.06.22-.4.38-.82.46-1.27.07-.45.06-.86-.01-1.24-.08-.38-.21-.72-.41-1.03-.2-.31-.45-.55-.75-.73-.3-.18-.65-.28-1.04-.3-.58-.02-1.13.12-1.65.42-.52.3-.96.7-1.32,1.21-.36.51-.58,1.07-.68,1.68-.08.56-.05,1.1.11,1.6ZM974.6,414.42l-1.96,11.44h-3.11l1.94-11.44h3.13Z"/>
    <path class="cls-1" d="M979.61,422.51c.06.35.19.63.4.86s.54.34.98.34.85-.09,1.22-.27c.36-.18.67-.44.92-.78.25-.34.41-.73.47-1.18l1.24-7.04h3.18l-1.99,11.44h-3.18l.27-1.67c-.4.58-.89,1.04-1.47,1.39-.58.35-1.27.52-2.06.52-.9,0-1.6-.2-2.13-.58s-.88-.92-1.06-1.58c-.18-.66-.22-1.4-.1-2.21l1.27-7.31h3.23l-1.19,6.96c-.07.4-.07.77-.01,1.12Z"/>
    <path class="cls-1" d="M996.54,414.42l-.47,2.71h-6.92l.5-2.71h6.89ZM995.29,410.44l-2.69,15.42h-3.04l2.61-15.42h3.11Z"/>
    <path class="cls-1" d="M1001.44,414.42l-1.96,11.44h-3.08l1.92-11.44h3.13ZM999.27,408.69c.38-.34.83-.51,1.34-.51.55,0,1.01.17,1.38.51s.56.77.56,1.31-.19.95-.56,1.29c-.37.35-.83.52-1.38.52-.51,0-.96-.17-1.34-.52-.38-.35-.57-.78-.57-1.29s.19-.97.57-1.31Z"/>
    <path class="cls-1" d="M1010.8,409.21c-.16-.11-.34-.17-.56-.19-.28,0-.53.09-.75.26-.21.17-.39.41-.52.7-.13.29-.22.6-.27.93l-2.56,14.95h-3.08l2.66-15.7c.13-.8.39-1.5.78-2.11s.9-1.09,1.53-1.44c.63-.35,1.37-.51,2.21-.5.65,0,1.18.12,1.62.36s.79.52,1.07.83l-1.69,2.36c-.13-.2-.28-.35-.43-.46ZM1010.74,414.42l-.5,2.71h-7.01l.5-2.71h7.01Z"/>
    <path class="cls-1" d="M1013.08,431.31h-3.33l4.03-6.69-2.88-10.2h3.41l2.06,9.1-1.59-.08,5.07-9.03h3.38l-10.15,16.89Z"/>
    <path class="cls-1" d="M1032.53,431.31h-3.33l4.03-6.69-2.88-10.2h3.41l2.06,9.1-1.59-.08,5.07-9.03h3.38l-10.15,16.89Z"/>
    <path class="cls-1" d="M1043.25,417.06c.66-.9,1.5-1.6,2.5-2.11,1-.51,2.09-.77,3.27-.77s2.19.27,3.05.8c.85.53,1.49,1.25,1.92,2.15.42.9.56,1.91.41,3.02-.15,1.14-.56,2.16-1.22,3.06s-1.5,1.6-2.5,2.11c-1,.51-2.1.77-3.3.77s-2.17-.26-3.02-.78c-.85-.52-1.49-1.24-1.92-2.14-.42-.9-.57-1.91-.44-3.02.17-1.16.58-2.19,1.24-3.08ZM1045.36,421.71c.17.5.44.9.82,1.19s.85.46,1.42.47c.6,0,1.15-.15,1.65-.44s.93-.68,1.27-1.18c.34-.5.55-1.04.63-1.62s.04-1.11-.12-1.59c-.17-.48-.44-.88-.82-1.19-.38-.31-.86-.47-1.44-.47-.56-.02-1.1.12-1.62.42-.51.3-.94.7-1.27,1.19-.33.5-.55,1.04-.65,1.64-.08.55-.04,1.07.12,1.57Z"/>
    <path class="cls-1" d="M1059.55,422.51c.06.35.19.63.4.86s.54.34.98.34.85-.09,1.22-.27c.36-.18.67-.44.92-.78.25-.34.41-.73.47-1.18l1.24-7.04h3.18l-1.99,11.44h-3.18l.27-1.67c-.4.58-.89,1.04-1.47,1.39-.58.35-1.27.52-2.06.52-.9,0-1.6-.2-2.13-.58s-.88-.92-1.06-1.58c-.18-.66-.22-1.4-.1-2.21l1.27-7.31h3.23l-1.19,6.96c-.07.4-.07.77-.01,1.12Z"/>
    <path class="cls-1" d="M1072.15,425.87h-3.13l1.96-11.44h3.13l-1.96,11.44ZM1076.29,417.33c-.21-.12-.45-.17-.73-.17-.43-.02-.81.1-1.14.36s-.6.58-.81.98c-.21.4-.34.83-.41,1.29l-.7-.92c.15-.78.44-1.53.86-2.25.42-.72.93-1.31,1.52-1.78.59-.46,1.21-.7,1.88-.7.42,0,.78.08,1.11.25s.61.4.86.7l-1.82,2.66c-.2-.17-.4-.31-.61-.42Z"/>
    <path class="cls-1" d="M1081.01,422.93c.36.28.74.5,1.12.66.38.16.77.23,1.17.21.4,0,.73-.11,1.01-.34.27-.22.41-.5.41-.83.02-.32-.08-.57-.27-.77-.2-.2-.46-.38-.78-.53-.32-.16-.68-.31-1.08-.46-.48-.18-.94-.41-1.38-.7-.44-.28-.79-.65-1.06-1.09-.27-.45-.38-.99-.35-1.62.05-.75.28-1.36.68-1.84.41-.48.92-.84,1.55-1.08.63-.24,1.29-.36,1.99-.36.95,0,1.79.18,2.53.53.74.36,1.38.8,1.93,1.33l-1.52,1.96c-.38-.43-.82-.8-1.32-1.09-.5-.3-1.01-.45-1.54-.45-.4,0-.72.09-.97.26-.25.17-.38.4-.4.68-.02.27.07.49.27.68.2.19.47.36.82.51.35.15.7.3,1.07.45.56.23,1.07.49,1.53.78.46.29.82.65,1.08,1.08.27.43.38.98.35,1.64-.05.75-.27,1.4-.65,1.95-.38.56-.89.99-1.53,1.29s-1.37.46-2.2.46c-.78,0-1.5-.11-2.15-.32-.66-.21-1.25-.5-1.78-.87-.53-.36-1-.75-1.42-1.17l1.77-1.96c.38.38.75.71,1.12.99Z"/>
    <path class="cls-1" d="M1091.98,425.49c-.81-.41-1.45-1.01-1.9-1.79-.46-.78-.68-1.72-.68-2.81,0-.93.17-1.8.51-2.61.34-.81.82-1.53,1.44-2.14.62-.61,1.36-1.09,2.2-1.44.85-.35,1.77-.52,2.79-.52,1.11,0,2.04.2,2.8.6.75.4,1.33.97,1.73,1.72.4.75.6,1.66.6,2.74,0,.27-.02.55-.07.86s-.12.57-.2.78h-10.1v-1.99h7.64l-.85,1.14c.08-.17.16-.35.22-.55s.1-.39.1-.57c0-.51-.08-.95-.24-1.32-.16-.36-.39-.65-.7-.85-.31-.2-.71-.3-1.21-.3s-.95.1-1.36.3c-.41.2-.76.48-1.06.83-.3.36-.54.78-.71,1.28-.17.5-.29,1.04-.34,1.64-.07.63-.02,1.19.15,1.67.17.48.44.85.82,1.11.38.26.87.39,1.47.39.66,0,1.26-.15,1.78-.45.52-.3.96-.7,1.31-1.19l2.74.87c-.61,1.01-1.43,1.8-2.44,2.38s-2.21.86-3.58.86c-1.09,0-2.05-.21-2.86-.62Z"/>
    <path class="cls-1" d="M1109.04,406.46l-3.36,19.4h-3.13l3.28-19.4h3.21Z"/>
    <path class="cls-1" d="M1116.84,409.21c-.16-.11-.34-.17-.56-.19-.28,0-.53.09-.75.26-.21.17-.39.41-.52.7-.13.29-.22.6-.27.93l-2.56,14.95h-3.08l2.66-15.7c.13-.8.39-1.5.78-2.11s.9-1.09,1.53-1.44c.63-.35,1.37-.51,2.21-.5.65,0,1.18.12,1.62.36s.79.52,1.07.83l-1.69,2.36c-.13-.2-.28-.35-.43-.46ZM1116.77,414.42l-.5,2.71h-7.01l.5-2.71h7.01Z"/>
  </g>
  <g>
    <path class="cls-1" d="M1161.88,425.87h-3.18l3.33-19.4h3.18l-3.33,19.4ZM1170.87,423.19c-.61.9-1.36,1.62-2.25,2.14s-1.87.78-2.91.78c-.76,0-1.41-.17-1.95-.5-.54-.33-.97-.78-1.28-1.34-.32-.56-.52-1.2-.62-1.92s-.1-1.45,0-2.21c.12-.83.33-1.6.65-2.31.31-.71.72-1.34,1.22-1.89.5-.55,1.07-.98,1.72-1.29s1.35-.47,2.11-.47c1.03,0,1.9.27,2.61.82.71.55,1.23,1.27,1.55,2.16.32.9.42,1.89.29,2.99-.15,1.13-.53,2.14-1.13,3.05ZM1168.62,418.53c-.17-.5-.44-.9-.82-1.21-.38-.31-.86-.47-1.44-.49-.4,0-.79.08-1.17.25-.38.17-.73.4-1.06.71s-.6.66-.82,1.06c-.22.4-.38.83-.46,1.29-.05.43-.04.84.04,1.23.08.39.21.74.4,1.04.19.31.44.55.73.72.3.17.65.27,1.04.29.6.02,1.15-.12,1.67-.42.51-.3.95-.7,1.31-1.21.36-.51.58-1.06.68-1.65.1-.58.07-1.12-.1-1.62Z"/>
    <path class="cls-1" d="M1176.16,425.49c-.81-.41-1.45-1.01-1.9-1.79-.46-.78-.68-1.72-.68-2.81,0-.93.17-1.8.51-2.61.34-.81.82-1.53,1.44-2.14.62-.61,1.36-1.09,2.2-1.44.85-.35,1.77-.52,2.79-.52,1.11,0,2.04.2,2.8.6.75.4,1.33.97,1.73,1.72.4.75.6,1.66.6,2.74,0,.27-.02.55-.07.86s-.12.57-.2.78h-10.1v-1.99h7.64l-.85,1.14c.08-.17.16-.35.22-.55s.1-.39.1-.57c0-.51-.08-.95-.24-1.32-.16-.36-.39-.65-.7-.85-.31-.2-.71-.3-1.21-.3s-.95.1-1.36.3c-.41.2-.76.48-1.06.83-.3.36-.54.78-.71,1.28-.17.5-.29,1.04-.34,1.64-.07.63-.02,1.19.15,1.67.17.48.44.85.82,1.11.38.26.87.39,1.47.39.66,0,1.26-.15,1.78-.45.52-.3.96-.7,1.31-1.19l2.74.87c-.61,1.01-1.43,1.8-2.44,2.38s-2.21.86-3.58.86c-1.09,0-2.05-.21-2.86-.62Z"/>
    <path class="cls-1" d="M1188.06,417.09c.61-.9,1.36-1.61,2.26-2.14.9-.53,1.87-.79,2.9-.77.78,0,1.43.17,1.96.5.53.33.95.78,1.27,1.33.32.56.52,1.19.62,1.9.1.71.1,1.46,0,2.24-.1.81-.31,1.58-.63,2.3-.32.72-.73,1.36-1.22,1.9-.49.55-1.06.97-1.7,1.28s-1.35.46-2.11.46c-1.04,0-1.92-.27-2.64-.81-.71-.54-1.24-1.26-1.57-2.16-.33-.9-.42-1.89-.27-2.97.15-1.14.53-2.16,1.13-3.06ZM1190.32,421.75c.16.51.43.91.81,1.21.38.3.86.46,1.44.47.4,0,.79-.08,1.17-.25.38-.17.73-.4,1.06-.71.32-.31.6-.66.82-1.06.22-.4.38-.82.46-1.27.07-.45.06-.86-.01-1.24-.08-.38-.21-.72-.41-1.03-.2-.31-.45-.55-.75-.73-.3-.18-.65-.28-1.04-.3-.58-.02-1.13.12-1.65.42-.52.3-.96.7-1.32,1.21-.36.51-.58,1.07-.68,1.68-.08.56-.05,1.1.11,1.6ZM1200.24,414.42l-1.96,11.44h-3.11l1.94-11.44h3.13Z"/>
    <path class="cls-1" d="M1205.25,422.51c.06.35.19.63.4.86s.54.34.98.34.85-.09,1.22-.27c.36-.18.67-.44.92-.78.25-.34.41-.73.47-1.18l1.24-7.04h3.18l-1.99,11.44h-3.18l.27-1.67c-.4.58-.89,1.04-1.47,1.39-.58.35-1.27.52-2.06.52-.9,0-1.6-.2-2.13-.58s-.88-.92-1.06-1.58c-.18-.66-.22-1.4-.1-2.21l1.27-7.31h3.23l-1.19,6.96c-.07.4-.07.77-.01,1.12Z"/>
    <path class="cls-1" d="M1222.17,414.42l-.47,2.71h-6.92l.5-2.71h6.89ZM1220.93,410.44l-2.69,15.42h-3.04l2.61-15.42h3.11Z"/>
    <path class="cls-1" d="M1227.07,414.42l-1.96,11.44h-3.08l1.92-11.44h3.13ZM1224.91,408.69c.38-.34.83-.51,1.34-.51.55,0,1.01.17,1.38.51s.56.77.56,1.31-.19.95-.56,1.29c-.37.35-.83.52-1.38.52-.51,0-.96-.17-1.34-.52-.38-.35-.57-.78-.57-1.29s.19-.97.57-1.31Z"/>
    <path class="cls-1" d="M1236.44,409.21c-.16-.11-.34-.17-.56-.19-.28,0-.53.09-.75.26-.21.17-.39.41-.52.7-.13.29-.22.6-.27.93l-2.56,14.95h-3.08l2.66-15.7c.13-.8.39-1.5.78-2.11s.9-1.09,1.53-1.44c.63-.35,1.37-.51,2.21-.5.65,0,1.18.12,1.62.36s.79.52,1.07.83l-1.69,2.36c-.13-.2-.28-.35-.43-.46ZM1236.38,414.42l-.5,2.71h-7.01l.5-2.71h7.01Z"/>
    <path class="cls-1" d="M1238.71,431.31h-3.33l4.03-6.69-2.88-10.2h3.41l2.06,9.1-1.59-.08,5.07-9.03h3.38l-10.15,16.89Z"/>
    <path class="cls-1" d="M1258.17,431.31h-3.33l4.03-6.69-2.88-10.2h3.41l2.06,9.1-1.59-.08,5.07-9.03h3.38l-10.15,16.89Z"/>
    <path class="cls-1" d="M1268.89,417.06c.66-.9,1.5-1.6,2.5-2.11,1-.51,2.09-.77,3.27-.77s2.19.27,3.05.8c.85.53,1.49,1.25,1.92,2.15.42.9.56,1.91.41,3.02-.15,1.14-.56,2.16-1.22,3.06s-1.5,1.6-2.5,2.11c-1,.51-2.1.77-3.3.77s-2.17-.26-3.02-.78c-.85-.52-1.49-1.24-1.92-2.14-.42-.9-.57-1.91-.44-3.02.17-1.16.58-2.19,1.24-3.08ZM1271,421.71c.17.5.44.9.82,1.19s.85.46,1.42.47c.6,0,1.15-.15,1.65-.44s.93-.68,1.27-1.18c.34-.5.55-1.04.63-1.62s.04-1.11-.12-1.59c-.17-.48-.44-.88-.82-1.19-.38-.31-.86-.47-1.44-.47-.56-.02-1.1.12-1.62.42-.51.3-.94.7-1.27,1.19-.33.5-.55,1.04-.65,1.64-.08.55-.04,1.07.12,1.57Z"/>
    <path class="cls-1" d="M1285.19,422.51c.06.35.19.63.4.86s.54.34.98.34.85-.09,1.22-.27c.36-.18.67-.44.92-.78.25-.34.41-.73.47-1.18l1.24-7.04h3.18l-1.99,11.44h-3.18l.27-1.67c-.4.58-.89,1.04-1.47,1.39-.58.35-1.27.52-2.06.52-.9,0-1.6-.2-2.13-.58s-.88-.92-1.06-1.58c-.18-.66-.22-1.4-.1-2.21l1.27-7.31h3.23l-1.19,6.96c-.07.4-.07.77-.01,1.12Z"/>
    <path class="cls-1" d="M1297.79,425.87h-3.13l1.96-11.44h3.13l-1.96,11.44ZM1301.93,417.33c-.21-.12-.45-.17-.73-.17-.43-.02-.81.1-1.14.36s-.6.58-.81.98c-.21.4-.34.83-.41,1.29l-.7-.92c.15-.78.44-1.53.86-2.25.42-.72.93-1.31,1.52-1.78.59-.46,1.21-.7,1.88-.7.42,0,.78.08,1.11.25s.61.4.86.7l-1.82,2.66c-.2-.17-.4-.31-.61-.42Z"/>
    <path class="cls-1" d="M1306.64,422.93c.36.28.74.5,1.12.66.38.16.77.23,1.17.21.4,0,.73-.11,1.01-.34.27-.22.41-.5.41-.83.02-.32-.08-.57-.27-.77-.2-.2-.46-.38-.78-.53-.32-.16-.68-.31-1.08-.46-.48-.18-.94-.41-1.38-.7-.44-.28-.79-.65-1.06-1.09-.27-.45-.38-.99-.35-1.62.05-.75.28-1.36.68-1.84.41-.48.92-.84,1.55-1.08.63-.24,1.29-.36,1.99-.36.95,0,1.79.18,2.53.53.74.36,1.38.8,1.93,1.33l-1.52,1.96c-.38-.43-.82-.8-1.32-1.09-.5-.3-1.01-.45-1.54-.45-.4,0-.72.09-.97.26-.25.17-.38.4-.4.68-.02.27.07.49.27.68.2.19.47.36.82.51.35.15.7.3,1.07.45.56.23,1.07.49,1.53.78.46.29.82.65,1.08,1.08.27.43.38.98.35,1.64-.05.75-.27,1.4-.65,1.95-.38.56-.89.99-1.53,1.29s-1.37.46-2.2.46c-.78,0-1.5-.11-2.15-.32-.66-.21-1.25-.5-1.78-.87-.53-.36-1-.75-1.42-1.17l1.77-1.96c.38.38.75.71,1.12.99Z"/>
    <path class="cls-1" d="M1317.61,425.49c-.81-.41-1.45-1.01-1.9-1.79-.46-.78-.68-1.72-.68-2.81,0-.93.17-1.8.51-2.61.34-.81.82-1.53,1.44-2.14.62-.61,1.36-1.09,2.2-1.44.85-.35,1.77-.52,2.79-.52,1.11,0,2.04.2,2.8.6.75.4,1.33.97,1.73,1.72.4.75.6,1.66.6,2.74,0,.27-.02.55-.07.86s-.12.57-.2.78h-10.1v-1.99h7.64l-.85,1.14c.08-.17.16-.35.22-.55s.1-.39.1-.57c0-.51-.08-.95-.24-1.32-.16-.36-.39-.65-.7-.85-.31-.2-.71-.3-1.21-.3s-.95.1-1.36.3c-.41.2-.76.48-1.06.83-.3.36-.54.78-.71,1.28-.17.5-.29,1.04-.34,1.64-.07.63-.02,1.19.15,1.67.17.48.44.85.82,1.11.38.26.87.39,1.47.39.66,0,1.26-.15,1.78-.45.52-.3.96-.7,1.31-1.19l2.74.87c-.61,1.01-1.43,1.8-2.44,2.38s-2.21.86-3.58.86c-1.09,0-2.05-.21-2.86-.62Z"/>
    <path class="cls-1" d="M1334.67,406.46l-3.36,19.4h-3.13l3.28-19.4h3.21Z"/>
    <path class="cls-1" d="M1342.47,409.21c-.16-.11-.34-.17-.56-.19-.28,0-.53.09-.75.26-.21.17-.39.41-.52.7-.13.29-.22.6-.27.93l-2.56,14.95h-3.08l2.66-15.7c.13-.8.39-1.5.78-2.11s.9-1.09,1.53-1.44c.63-.35,1.37-.51,2.21-.5.65,0,1.18.12,1.62.36s.79.52,1.07.83l-1.69,2.36c-.13-.2-.28-.35-.43-.46ZM1342.41,414.42l-.5,2.71h-7.01l.5-2.71h7.01Z"/>
  </g>
</svg>