<?xml version="1.0" encoding="UTF-8"?>
<svg id="Layer_1" data-name="Layer 1" xmlns="http://www.w3.org/2000/svg" version="1.1" viewBox="0 0 1366 768">
  <defs>
    <style>
      .cls-1 {
        fill: #fff;
      }

      .cls-1, .cls-2 {
        stroke-width: 0px;
      }

      .cls-2 {
        fill: #bc96af;
      }
    </style>
  </defs>
  <rect class="cls-2" y="357.23" width="1366" height="53.54"/>
  <g>
    <path class="cls-1" d="M530.45,383.73v1.93h-5.35v-1.93h5.35ZM529.75,379.17c-.17-.07-.34-.1-.52-.1-.2,0-.38.05-.52.16-.14.11-.25.28-.33.53s-.12.56-.12.95v12.34h-2.15v-12.77c0-.73.12-1.33.35-1.81.24-.48.58-.84,1.02-1.09.45-.25.99-.38,1.64-.38.36,0,.68.05.95.14.27.09.5.21.7.34.2.14.35.27.46.41l-1.03,1.7c-.14-.22-.29-.36-.46-.43Z"/>
    <path class="cls-1" d="M534.3,393.05h-2.17v-9.32h2.17v9.32ZM536.51,385.7c-.18-.08-.4-.12-.67-.12-.36,0-.66.09-.89.28-.23.19-.4.45-.5.78-.1.33-.15.72-.15,1.17l-.73-.43c0-.74.14-1.4.42-1.98.28-.57.63-1.03,1.07-1.37.44-.34.9-.51,1.37-.51.34,0,.66.05.95.15.3.1.55.28.75.54l-1.05,1.84c-.2-.16-.39-.28-.57-.36Z"/>
    <path class="cls-1" d="M540.88,392.65c-.72-.41-1.28-.97-1.67-1.7-.39-.73-.59-1.58-.59-2.55s.2-1.84.6-2.57c.4-.73.96-1.29,1.69-1.69.73-.4,1.59-.6,2.57-.6s1.82.19,2.51.57,1.22.92,1.59,1.63c.37.71.56,1.56.56,2.56,0,.11,0,.22-.01.34,0,.12-.02.21-.03.26h-8.19v-1.5h6.32l-.67.93c.04-.08.08-.19.13-.33s.07-.26.07-.35c0-.5-.1-.93-.29-1.3-.2-.37-.47-.65-.81-.85-.34-.2-.75-.3-1.21-.3-.55,0-1.03.12-1.42.36-.39.24-.69.59-.89,1.05-.2.46-.31,1.03-.32,1.7,0,.68.1,1.25.3,1.71.2.47.5.82.9,1.06s.88.37,1.45.37,1.11-.12,1.56-.37.82-.61,1.11-1.11l1.88.77c-.49.84-1.11,1.47-1.88,1.88-.77.42-1.7.63-2.78.63-.95,0-1.78-.2-2.5-.61Z"/>
    <path class="cls-1" d="M551.78,392.65c-.72-.41-1.28-.97-1.67-1.7-.39-.73-.59-1.58-.59-2.55s.2-1.84.6-2.57c.4-.73.96-1.29,1.69-1.69.73-.4,1.59-.6,2.57-.6s1.82.19,2.51.57,1.22.92,1.59,1.63c.37.71.56,1.56.56,2.56,0,.11,0,.22-.01.34,0,.12-.02.21-.03.26h-8.19v-1.5h6.32l-.67.93c.04-.08.08-.19.13-.33s.07-.26.07-.35c0-.5-.1-.93-.29-1.3-.2-.37-.47-.65-.81-.85-.34-.2-.75-.3-1.21-.3-.55,0-1.03.12-1.42.36-.39.24-.69.59-.89,1.05-.2.46-.31,1.03-.32,1.7,0,.68.1,1.25.3,1.71.2.47.5.82.9,1.06s.88.37,1.45.37,1.11-.12,1.56-.37.82-.61,1.11-1.11l1.88.77c-.49.84-1.11,1.47-1.88,1.88-.77.42-1.7.63-2.78.63-.95,0-1.78-.2-2.5-.61Z"/>
    <path class="cls-1" d="M568.55,390.83c.3.24.61.41.92.53.31.12.62.17.93.17.39,0,.7-.09.92-.26.22-.18.33-.42.33-.73,0-.27-.09-.5-.26-.7-.18-.2-.42-.37-.73-.51s-.68-.29-1.09-.44c-.42-.16-.83-.35-1.25-.58-.41-.22-.75-.52-1.01-.88-.26-.36-.4-.82-.4-1.38s.15-1.04.44-1.42c.29-.38.68-.66,1.18-.84.49-.18,1.02-.27,1.59-.27.51,0,1,.07,1.45.22.45.15.86.34,1.23.59s.68.52.93.83l-1.22,1.3c-.31-.36-.68-.66-1.11-.89-.43-.23-.88-.34-1.34-.34-.31,0-.57.07-.77.2s-.3.33-.3.59c0,.22.09.41.27.58.18.17.43.32.73.46.3.14.65.28,1.02.43.51.2.99.43,1.42.67.43.24.78.54,1.04.89.26.35.4.81.4,1.38,0,.88-.3,1.58-.9,2.12s-1.42.8-2.44.8c-.64,0-1.22-.1-1.75-.29-.53-.2-1-.45-1.4-.77s-.73-.65-1-1l1.28-1.28c.3.32.6.61.9.84Z"/>
    <path class="cls-1" d="M578,393.05h-2.19v-15.81h2.19v15.81ZM581.4,385.82c-.28-.35-.72-.53-1.33-.53-.41,0-.76.09-1.07.26-.31.18-.55.42-.73.73-.18.31-.26.68-.26,1.09h-.53c0-.74.13-1.41.41-1.99.27-.58.65-1.05,1.15-1.4.49-.35,1.09-.53,1.79-.53s1.27.14,1.75.41c.48.27.84.67,1.08,1.21.24.53.36,1.2.36,2v5.98h-2.21v-5.67c0-.69-.14-1.21-.42-1.56Z"/>
    <path class="cls-1" d="M587.13,379.07c.28-.26.6-.39.96-.39.39,0,.72.13.98.39.26.26.4.57.4.95s-.13.68-.4.94c-.26.26-.59.4-.98.4-.37,0-.69-.13-.96-.4-.28-.26-.42-.58-.42-.94s.14-.7.42-.95ZM589.17,383.73v9.32h-2.15v-9.32h2.15Z"/>
    <path class="cls-1" d="M592.11,397.51v-13.78h2.21v13.78h-2.21ZM601.41,391.04c-.42.74-.97,1.3-1.66,1.68-.69.38-1.44.58-2.25.58s-1.49-.2-2.08-.6c-.59-.4-1.04-.97-1.36-1.7s-.48-1.6-.48-2.6.16-1.88.48-2.61c.32-.73.77-1.29,1.36-1.69.59-.4,1.28-.6,2.08-.6s1.56.19,2.25.58c.69.39,1.24.94,1.66,1.67.42.73.63,1.62.63,2.66s-.21,1.91-.63,2.64ZM599.38,386.8c-.26-.44-.6-.77-1.02-.99-.43-.22-.9-.33-1.41-.33-.42,0-.83.11-1.24.33-.41.22-.74.55-1,.98-.26.43-.4.97-.4,1.6s.13,1.17.4,1.6c.26.43.6.76,1,.98.41.22.82.33,1.24.33.51,0,.98-.11,1.41-.33s.77-.55,1.02-.99c.26-.44.39-.97.39-1.59s-.13-1.15-.39-1.59Z"/>
    <path class="cls-1" d="M604.04,397.51v-13.78h2.21v13.78h-2.21ZM613.35,391.04c-.42.74-.97,1.3-1.66,1.68-.69.38-1.44.58-2.25.58s-1.49-.2-2.08-.6c-.59-.4-1.04-.97-1.36-1.7s-.48-1.6-.48-2.6.16-1.88.48-2.61c.32-.73.77-1.29,1.36-1.69.59-.4,1.28-.6,2.08-.6s1.56.19,2.25.58c.69.39,1.24.94,1.66,1.67.42.73.63,1.62.63,2.66s-.21,1.91-.63,2.64ZM611.32,386.8c-.26-.44-.6-.77-1.02-.99-.43-.22-.9-.33-1.41-.33-.42,0-.83.11-1.24.33-.41.22-.74.55-1,.98-.26.43-.4.97-.4,1.6s.13,1.17.4,1.6c.26.43.6.76,1,.98.41.22.82.33,1.24.33.51,0,.98-.11,1.41-.33s.77-.55,1.02-.99c.26-.44.39-.97.39-1.59s-.13-1.15-.39-1.59Z"/>
    <path class="cls-1" d="M616.4,379.07c.28-.26.6-.39.96-.39.39,0,.72.13.98.39.26.26.4.57.4.95s-.13.68-.4.94c-.26.26-.59.4-.98.4-.37,0-.69-.13-.96-.4-.28-.26-.42-.58-.42-.94s.14-.7.42-.95ZM618.43,383.73v9.32h-2.15v-9.32h2.15Z"/>
    <path class="cls-1" d="M627.03,385.82c-.28-.35-.72-.53-1.32-.53-.41,0-.76.08-1.07.25-.31.17-.55.41-.73.73-.18.32-.26.69-.26,1.1v5.67h-2.19v-9.32h2.19v1.44c.3-.55.68-.97,1.15-1.24.47-.27,1.02-.41,1.67-.41,1.05,0,1.86.32,2.41.96.55.64.83,1.52.83,2.64v5.92h-2.25v-5.67c0-.69-.14-1.21-.43-1.56Z"/>
    <path class="cls-1" d="M632.42,385.73c.42-.71.98-1.25,1.67-1.63s1.44-.57,2.24-.57,1.47.19,2.06.58c.59.39,1.05.94,1.4,1.65s.52,1.58.52,2.59-.17,1.86-.52,2.57c-.34.72-.81,1.27-1.4,1.65-.59.38-1.27.58-2.06.58s-1.54-.19-2.24-.57-1.25-.93-1.67-1.64c-.42-.72-.63-1.58-.63-2.59s.21-1.92.63-2.62ZM634.14,393.68c.01.42.13.8.35,1.13.22.34.53.6.92.79.39.19.84.28,1.36.28.46,0,.9-.11,1.32-.32.42-.22.76-.55,1.02-.99.26-.45.4-1.02.4-1.72v-9.12h2.15v9.12c0,1.12-.23,2.05-.68,2.78s-1.04,1.27-1.77,1.63c-.73.36-1.52.54-2.37.54-1.01,0-1.88-.17-2.59-.52-.72-.34-1.27-.83-1.65-1.45-.39-.62-.59-1.34-.62-2.15h2.17ZM634.45,389.93c.26.43.6.76,1.02.98.43.22.89.33,1.39.33.42,0,.83-.11,1.25-.32.41-.22.75-.54,1.01-.98.26-.44.4-.97.4-1.59,0-.49-.08-.91-.23-1.27-.16-.36-.36-.66-.62-.91s-.54-.44-.86-.56c-.32-.12-.63-.18-.94-.18-.5,0-.96.11-1.39.33-.43.22-.77.55-1.02.98-.26.43-.39.97-.39,1.6s.13,1.15.39,1.58Z"/>
    <path class="cls-1" d="M650.41,385.86c.44-.73,1.04-1.3,1.79-1.71.76-.41,1.61-.62,2.57-.62s1.81.21,2.56.62c.75.41,1.35.98,1.79,1.71.45.73.67,1.57.67,2.53s-.22,1.79-.67,2.52c-.45.74-1.04,1.31-1.79,1.72s-1.6.62-2.56.62-1.82-.21-2.57-.62c-.76-.41-1.35-.99-1.79-1.72s-.66-1.58-.66-2.52.22-1.8.66-2.53ZM652.36,389.92c.24.44.57.78.99,1.03.42.25.89.38,1.42.38s.98-.12,1.41-.38.76-.59,1-1.03c.24-.44.36-.95.36-1.53s-.12-1.09-.36-1.54c-.24-.45-.58-.79-1-1.03s-.9-.36-1.41-.36-1,.12-1.42.36c-.42.24-.75.59-.99,1.03-.24.45-.36.96-.36,1.54s.12,1.09.36,1.53Z"/>
    <path class="cls-1" d="M667.44,385.82c-.28-.35-.72-.53-1.32-.53-.41,0-.76.08-1.07.25-.31.17-.55.41-.73.73-.18.32-.26.69-.26,1.1v5.67h-2.19v-9.32h2.19v1.44c.3-.55.68-.97,1.15-1.24.47-.27,1.02-.41,1.67-.41,1.05,0,1.86.32,2.41.96.55.64.83,1.52.83,2.64v5.92h-2.25v-5.67c0-.69-.14-1.21-.43-1.56Z"/>
    <path class="cls-1" d="M678.94,385.86c.44-.73,1.04-1.3,1.79-1.71.76-.41,1.61-.62,2.57-.62s1.81.21,2.56.62c.75.41,1.35.98,1.79,1.71.45.73.67,1.57.67,2.53s-.22,1.79-.67,2.52-1.04,1.31-1.79,1.72-1.6.62-2.56.62-1.82-.21-2.57-.62c-.76-.41-1.35-.99-1.79-1.72s-.66-1.58-.66-2.52.22-1.8.66-2.53ZM680.9,389.92c.24.44.57.78.99,1.03.42.25.89.38,1.42.38s.98-.12,1.41-.38.76-.59,1-1.03c.24-.44.36-.95.36-1.53s-.12-1.09-.36-1.54c-.24-.45-.58-.79-1-1.03s-.9-.36-1.41-.36-1,.12-1.42.36c-.42.24-.75.59-.99,1.03-.24.45-.36.96-.36,1.54s.12,1.09.36,1.53Z"/>
    <path class="cls-1" d="M692.57,393.05h-2.17v-9.32h2.17v9.32ZM694.78,385.7c-.18-.08-.4-.12-.67-.12-.37,0-.66.09-.89.28s-.39.45-.5.78-.15.72-.15,1.17l-.73-.43c0-.74.14-1.4.41-1.98s.63-1.03,1.07-1.37c.44-.34.89-.51,1.37-.51.34,0,.65.05.95.15.3.1.55.28.75.54l-1.05,1.84c-.2-.16-.39-.28-.57-.36Z"/>
    <path class="cls-1" d="M697.82,385.77c.42-.72.98-1.28,1.67-1.66.7-.38,1.44-.58,2.24-.58s1.47.2,2.06.59c.59.39,1.05.95,1.4,1.67s.52,1.59.52,2.6-.17,1.86-.52,2.59-.81,1.29-1.4,1.68-1.27.59-2.06.59-1.54-.19-2.24-.58c-.7-.38-1.25-.94-1.67-1.67s-.63-1.6-.63-2.61.21-1.9.63-2.62ZM699.85,389.99c.26.45.6.78,1.02,1.01.43.23.89.34,1.39.34.42,0,.83-.11,1.25-.34.41-.23.75-.56,1.01-1s.4-.98.4-1.61-.13-1.17-.4-1.61-.6-.77-1.01-1-.83-.34-1.25-.34c-.5,0-.96.12-1.39.34-.42.23-.77.57-1.02,1.01-.26.45-.38.98-.38,1.6s.13,1.16.38,1.6ZM707.12,377.24v15.81h-2.21v-15.81h2.21Z"/>
    <path class="cls-1" d="M711.39,392.65c-.72-.41-1.28-.97-1.67-1.7-.39-.73-.59-1.58-.59-2.55s.2-1.84.6-2.57.96-1.29,1.69-1.69,1.59-.6,2.57-.6,1.82.19,2.51.57,1.22.92,1.59,1.63c.37.71.56,1.56.56,2.56,0,.11,0,.22,0,.34,0,.12-.02.21-.03.26h-8.19v-1.5h6.32l-.67.93c.04-.08.08-.19.13-.33.05-.14.07-.26.07-.35,0-.5-.1-.93-.29-1.3-.2-.37-.47-.65-.81-.85-.34-.2-.75-.3-1.21-.3-.55,0-1.03.12-1.42.36s-.69.59-.89,1.05c-.2.46-.31,1.03-.32,1.7,0,.68.1,1.25.3,1.71.2.47.5.82.9,1.06.4.24.88.37,1.45.37s1.11-.12,1.56-.37c.45-.24.82-.61,1.11-1.11l1.88.77c-.49.84-1.11,1.47-1.88,1.88-.77.42-1.7.63-2.78.63-.95,0-1.78-.2-2.5-.61Z"/>
    <path class="cls-1" d="M722.91,393.05h-2.17v-9.32h2.17v9.32ZM725.12,385.7c-.18-.08-.4-.12-.67-.12-.37,0-.66.09-.89.28-.23.19-.4.45-.5.78-.1.33-.15.72-.15,1.17l-.73-.43c0-.74.14-1.4.42-1.98.28-.57.63-1.03,1.07-1.37.44-.34.89-.51,1.37-.51.34,0,.66.05.95.15.3.1.55.28.75.54l-1.05,1.84c-.2-.16-.39-.28-.57-.36Z"/>
    <path class="cls-1" d="M729.57,390.83c.3.24.61.41.92.53.31.12.62.17.93.17.39,0,.7-.09.92-.26.22-.18.33-.42.33-.73,0-.27-.09-.5-.26-.7-.18-.2-.42-.37-.73-.51s-.68-.29-1.09-.44c-.42-.16-.83-.35-1.25-.58-.41-.22-.75-.52-1.01-.88-.26-.36-.39-.82-.39-1.38s.14-1.04.44-1.42c.29-.38.68-.66,1.18-.84.49-.18,1.02-.27,1.59-.27.51,0,1,.07,1.45.22.45.15.86.34,1.23.59.37.24.68.52.93.83l-1.22,1.3c-.31-.36-.68-.66-1.12-.89-.43-.23-.88-.34-1.34-.34-.31,0-.57.07-.77.2-.2.13-.3.33-.3.59,0,.22.09.41.27.58s.43.32.73.46c.3.14.64.28,1.02.43.51.2.99.43,1.42.67.43.24.78.54,1.04.89.26.35.39.81.39,1.38,0,.88-.3,1.58-.9,2.12-.6.53-1.42.8-2.44.8-.64,0-1.22-.1-1.75-.29-.53-.2-1-.45-1.4-.77-.4-.32-.73-.65-1-1l1.28-1.28c.3.32.6.61.9.84Z"/>
    <path class="cls-1" d="M742.87,385.86c.44-.73,1.04-1.3,1.79-1.71.76-.41,1.61-.62,2.57-.62s1.81.21,2.56.62c.75.41,1.35.98,1.79,1.71.45.73.67,1.57.67,2.53s-.22,1.79-.67,2.52c-.45.74-1.04,1.31-1.79,1.72s-1.6.62-2.56.62-1.82-.21-2.57-.62-1.35-.99-1.79-1.72-.66-1.58-.66-2.52.22-1.8.66-2.53ZM744.82,389.92c.24.44.57.78.99,1.03s.89.38,1.42.38.98-.12,1.41-.38.76-.59,1-1.03.37-.95.37-1.53-.12-1.09-.37-1.54c-.24-.45-.58-.79-1-1.03s-.9-.36-1.41-.36-1,.12-1.42.36-.75.59-.99,1.03c-.24.45-.37.96-.37,1.54s.12,1.09.37,1.53Z"/>
    <path class="cls-1" d="M754.99,383.73l2.43,6.02,2.43-6.02h2.41l-4.84,10.17-4.82-10.17h2.39Z"/>
    <path class="cls-1" d="M764.9,392.65c-.72-.41-1.28-.97-1.67-1.7-.39-.73-.59-1.58-.59-2.55s.2-1.84.6-2.57.96-1.29,1.69-1.69,1.59-.6,2.57-.6,1.82.19,2.51.57,1.22.92,1.59,1.63c.37.71.56,1.56.56,2.56,0,.11,0,.22,0,.34,0,.12-.02.21-.03.26h-8.19v-1.5h6.32l-.67.93c.04-.08.08-.19.13-.33.05-.14.07-.26.07-.35,0-.5-.1-.93-.29-1.3-.2-.37-.47-.65-.81-.85-.34-.2-.75-.3-1.21-.3-.55,0-1.03.12-1.42.36s-.69.59-.89,1.05c-.2.46-.31,1.03-.32,1.7,0,.68.1,1.25.3,1.71.2.47.5.82.9,1.06.4.24.88.37,1.45.37s1.11-.12,1.56-.37c.45-.24.82-.61,1.11-1.11l1.88.77c-.49.84-1.11,1.47-1.88,1.88-.77.42-1.7.63-2.78.63-.95,0-1.78-.2-2.5-.61Z"/>
    <path class="cls-1" d="M776.42,393.05h-2.17v-9.32h2.17v9.32ZM778.63,385.7c-.18-.08-.4-.12-.67-.12-.37,0-.66.09-.89.28-.23.19-.4.45-.5.78-.1.33-.15.72-.15,1.17l-.73-.43c0-.74.14-1.4.42-1.98.28-.57.63-1.03,1.07-1.37.44-.34.89-.51,1.37-.51.34,0,.66.05.95.15.3.1.55.28.75.54l-1.05,1.84c-.2-.16-.39-.28-.57-.36Z"/>
    <path class="cls-1" d="M787.95,379.92l5.65-1.28v14.41h-2.37v-11.77l-3.28.91v-2.27Z"/>
    <path class="cls-1" d="M797.54,382.11c.47-1.09,1.12-1.95,1.95-2.55.83-.61,1.79-.91,2.87-.91s2.08.3,2.91.91,1.48,1.46,1.94,2.55c.46,1.09.69,2.38.69,3.85s-.23,2.76-.69,3.85c-.46,1.09-1.1,1.95-1.94,2.55-.83.61-1.8.91-2.91.91s-2.04-.3-2.87-.91c-.83-.61-1.48-1.46-1.95-2.55-.47-1.09-.7-2.38-.7-3.85s.23-2.76.7-3.85ZM799.42,388.05c.15.64.36,1.18.64,1.64.28.46.61.81,1,1.06.39.25.82.38,1.3.38.5,0,.94-.12,1.33-.38.38-.25.72-.6.99-1.06.28-.46.49-1.01.64-1.64.15-.63.22-1.33.22-2.09s-.08-1.45-.22-2.09c-.15-.63-.36-1.18-.64-1.64-.28-.46-.61-.81-.99-1.06-.39-.25-.83-.38-1.33-.38-.47,0-.91.12-1.3.38-.39.25-.73.6-1,1.06-.28.46-.49,1.01-.64,1.64-.15.64-.22,1.33-.22,2.09s.07,1.45.22,2.09Z"/>
    <path class="cls-1" d="M810.21,382.11c.47-1.09,1.12-1.95,1.95-2.55.83-.61,1.79-.91,2.87-.91s2.08.3,2.91.91,1.48,1.46,1.94,2.55c.46,1.09.69,2.38.69,3.85s-.23,2.76-.69,3.85c-.46,1.09-1.1,1.95-1.94,2.55-.83.61-1.8.91-2.91.91s-2.04-.3-2.87-.91c-.83-.61-1.48-1.46-1.95-2.55-.47-1.09-.7-2.38-.7-3.85s.23-2.76.7-3.85ZM812.09,388.05c.15.64.36,1.18.64,1.64.28.46.61.81,1,1.06.39.25.82.38,1.3.38.5,0,.94-.12,1.33-.38.38-.25.72-.6.99-1.06.28-.46.49-1.01.64-1.64.15-.63.22-1.33.22-2.09s-.08-1.45-.22-2.09c-.15-.63-.36-1.18-.64-1.64-.28-.46-.61-.81-.99-1.06-.39-.25-.83-.38-1.33-.38-.47,0-.91.12-1.3.38-.39.25-.73.6-1,1.06-.28.46-.49,1.01-.64,1.64-.15.64-.22,1.33-.22,2.09s.07,1.45.22,2.09Z"/>
    <path class="cls-1" d="M835.75,381.75c-.25-.33-.54-.6-.88-.8s-.74-.3-1.2-.3-.86.07-1.17.2c-.3.14-.53.33-.67.58-.14.25-.21.55-.21.9,0,.46.16.84.47,1.14.31.3.72.55,1.22.77.5.22,1.03.43,1.6.65.41.15.82.34,1.25.57.43.23.81.51,1.17.84s.63.73.85,1.21c.22.47.32,1.03.32,1.66,0,.82-.19,1.55-.57,2.17-.38.62-.92,1.1-1.62,1.43-.7.33-1.56.5-2.57.5-.81,0-1.57-.17-2.27-.5-.7-.33-1.32-.78-1.84-1.35-.53-.57-.94-1.22-1.24-1.95l1.84-1.2c.3.62.62,1.15.97,1.58.35.43.74.76,1.17.99.43.23.92.34,1.47.34.49,0,.89-.07,1.21-.22s.55-.37.71-.66c.16-.29.23-.64.23-1.04,0-.53-.15-.96-.46-1.29-.3-.33-.7-.61-1.17-.84-.48-.23-.99-.45-1.53-.65-.35-.12-.74-.29-1.17-.5-.42-.21-.83-.48-1.21-.81-.38-.33-.69-.73-.93-1.21-.24-.47-.37-1.05-.37-1.72s.19-1.26.58-1.8c.38-.54.92-.97,1.59-1.3s1.44-.49,2.29-.49,1.58.15,2.2.45c.61.3,1.13.68,1.54,1.13.41.46.73.94.96,1.44l-1.88,1.16c-.2-.39-.43-.75-.68-1.08ZM834.62,376.47l-.04,3.28h-1.8l-.06-3.28h1.91ZM834.56,391.98l.06,3.34h-1.91l.06-3.34h1.78Z"/>
  </g>
</svg>