<?xml version="1.0" encoding="UTF-8"?>
<svg id="Layer_1" data-name="Layer 1" xmlns="http://www.w3.org/2000/svg" version="1.1" viewBox="0 0 1366 768">
  <defs>
    <style>
      .cls-1 {
        fill: #f3efec;
        font-family: CaveatBrush-Regular, 'Caveat Brush';
        font-size: 27.33px;
      }

      .cls-2 {
        fill: #c8d57c;
      }

      .cls-2, .cls-3, .cls-4, .cls-5 {
        stroke-width: 0px;
      }

      .cls-3 {
        fill: #deb0c9;
      }

      .cls-4 {
        fill: #d4415a;
      }

      .cls-5 {
        fill: #fff;
      }
    </style>
  </defs>
  <path class="cls-4" d="M770.97,207.09c.15,4.32-2.84,8.54-5.23,8.12-1.24-.22-2.96-2.08-3.11-3.36-.44-3.76,1.91-7.83,3.92-7.32,1.82.45,3.39,1.93,4.42,2.56Z"/>
  <rect class="cls-3" x="368.39" y="43.56" width="689" height="680.87"/>
  <rect class="cls-4" x="605.25" y="506.33" width="203.64" height="50.91" rx="13.16" ry="13.16"/>
  <text class="cls-1" transform="translate(654.26 541.09)"><tspan x="0" y="0">SHOP NOW</tspan></text>
  <g>
    <path class="cls-5" d="M526.86,315.35v30.95h-5.22v-30.95h5.22ZM523.72,327.29h22.07v4.82h-22.07v-4.82ZM547.64,315.35v30.95h-5.22v-30.95h5.22Z"/>
    <path class="cls-5" d="M557.63,341.73c.32.49.77.85,1.35,1.08.57.24,1.23.35,1.97.35.94,0,1.8-.19,2.59-.57.78-.38,1.42-.95,1.9-1.7.49-.75.73-1.63.73-2.63l.71,2.65c0,1.3-.38,2.38-1.13,3.25-.75.87-1.7,1.52-2.83,1.95-1.14.43-2.29.64-3.47.64-1.27,0-2.45-.25-3.54-.75-1.09-.5-1.96-1.24-2.61-2.21s-.97-2.15-.97-3.54c0-1.97.69-3.54,2.08-4.71,1.39-1.16,3.35-1.75,5.88-1.75,1.36,0,2.53.15,3.52.44.99.3,1.81.64,2.45,1.04s1.11.76,1.37,1.08v2.43c-.91-.65-1.89-1.12-2.92-1.42-1.03-.29-2.12-.44-3.27-.44-1,0-1.81.13-2.43.38s-1.08.6-1.39,1.04c-.31.44-.46.99-.46,1.64s.16,1.26.49,1.75ZM553.7,327.91c.91-.56,2.1-1.11,3.56-1.64,1.46-.53,3.13-.8,5.02-.8,1.68,0,3.16.25,4.44.75,1.28.5,2.29,1.22,3.03,2.14.74.93,1.11,2.07,1.11,3.43v14.5h-4.69v-13.58c0-.65-.11-1.18-.33-1.59-.22-.41-.52-.75-.91-1.02-.38-.27-.84-.46-1.37-.57-.53-.12-1.11-.18-1.72-.18-.94,0-1.83.11-2.67.33-.84.22-1.56.49-2.17.8-.6.31-1.05.57-1.35.77l-1.95-3.36Z"/>
    <path class="cls-5" d="M588.59,330.52c-.62-.77-1.58-1.15-2.88-1.15-.88,0-1.67.18-2.34.55-.68.37-1.21.9-1.59,1.59-.38.69-.57,1.5-.57,2.41v12.38h-4.78v-20.34h4.78v3.14c.65-1.21,1.48-2.11,2.5-2.7,1.02-.59,2.23-.88,3.65-.88,2.3,0,4.05.7,5.26,2.1,1.21,1.4,1.81,3.32,1.81,5.77v12.91h-4.91v-12.38c0-1.5-.31-2.64-.93-3.41Z"/>
    <path class="cls-5" d="M600.35,330.41c.91-1.58,2.13-2.79,3.65-3.63,1.52-.84,3.15-1.26,4.89-1.26s3.21.43,4.49,1.28c1.28.86,2.3,2.07,3.05,3.65.75,1.58,1.13,3.47,1.13,5.68s-.38,4.07-1.13,5.66c-.75,1.59-1.77,2.82-3.05,3.67-1.28.85-2.78,1.28-4.49,1.28s-3.37-.42-4.89-1.26c-1.52-.84-2.73-2.06-3.65-3.65s-1.37-3.49-1.37-5.7.46-4.15,1.37-5.73ZM604.77,339.63c.56.97,1.3,1.71,2.23,2.21.93.5,1.94.75,3.03.75.91,0,1.82-.25,2.72-.75.9-.5,1.64-1.23,2.21-2.19.57-.96.86-2.13.86-3.52s-.29-2.56-.86-3.52c-.58-.96-1.31-1.69-2.21-2.19-.9-.5-1.81-.75-2.72-.75-1.09,0-2.1.25-3.03.75-.93.5-1.67,1.24-2.23,2.21-.56.97-.84,2.14-.84,3.49s.28,2.52.84,3.49ZM620.65,311.82v34.49h-4.82v-34.49h4.82Z"/>
    <path class="cls-5" d="M630.6,339.52c.56.96,1.32,1.72,2.28,2.28s2.03.84,3.21.84c.97,0,1.9-.15,2.79-.44.88-.29,1.67-.71,2.34-1.24.68-.53,1.18-1.12,1.5-1.77v5.26c-.71.71-1.67,1.27-2.87,1.68-1.21.41-2.54.62-3.98.62-2.09,0-3.97-.45-5.64-1.35-1.67-.9-2.98-2.15-3.94-3.76-.96-1.61-1.44-3.44-1.44-5.51s.48-3.94,1.44-5.53c.96-1.59,2.27-2.84,3.94-3.74,1.67-.9,3.54-1.35,5.64-1.35,1.44,0,2.77.21,3.98.62,1.21.41,2.17.97,2.87,1.68v5.26c-.33-.68-.83-1.27-1.53-1.79-.69-.52-1.48-.92-2.37-1.22-.88-.29-1.8-.44-2.74-.44-1.18,0-2.25.28-3.21.84-.96.56-1.72,1.33-2.28,2.3-.56.97-.84,2.09-.84,3.36s.28,2.42.84,3.38Z"/>
    <path class="cls-5" d="M652.7,346.31h-4.73v-20.34h4.73v20.34ZM657.52,330.26c-.38-.18-.87-.27-1.46-.27-.8,0-1.45.21-1.95.62-.5.41-.86.98-1.08,1.7-.22.72-.33,1.57-.33,2.54l-1.59-.93c0-1.62.3-3.06.91-4.31.6-1.25,1.38-2.25,2.34-2.98.96-.74,1.95-1.11,2.98-1.11.74,0,1.43.11,2.08.33s1.19.61,1.64,1.17l-2.3,4.02c-.44-.35-.86-.62-1.24-.8Z"/>
    <path class="cls-5" d="M667.83,341.73c.32.49.77.85,1.35,1.08.57.24,1.23.35,1.97.35.94,0,1.8-.19,2.59-.57.78-.38,1.42-.95,1.9-1.7.49-.75.73-1.63.73-2.63l.71,2.65c0,1.3-.38,2.38-1.13,3.25-.75.87-1.7,1.52-2.83,1.95-1.14.43-2.29.64-3.47.64-1.27,0-2.45-.25-3.54-.75-1.09-.5-1.96-1.24-2.61-2.21s-.97-2.15-.97-3.54c0-1.97.69-3.54,2.08-4.71,1.39-1.16,3.35-1.75,5.88-1.75,1.36,0,2.53.15,3.52.44.99.3,1.81.64,2.45,1.04s1.11.76,1.37,1.08v2.43c-.91-.65-1.89-1.12-2.92-1.42-1.03-.29-2.12-.44-3.27-.44-1,0-1.81.13-2.43.38s-1.08.6-1.39,1.04c-.31.44-.46.99-.46,1.64s.16,1.26.49,1.75ZM663.89,327.91c.91-.56,2.1-1.11,3.56-1.64,1.46-.53,3.13-.8,5.02-.8,1.68,0,3.16.25,4.44.75,1.28.5,2.29,1.22,3.03,2.14.74.93,1.11,2.07,1.11,3.43v14.5h-4.69v-13.58c0-.65-.11-1.18-.33-1.59-.22-.41-.52-.75-.91-1.02-.38-.27-.84-.46-1.37-.57-.53-.12-1.11-.18-1.72-.18-.94,0-1.83.11-2.67.33-.84.22-1.56.49-2.17.8-.6.31-1.05.57-1.35.77l-1.95-3.36Z"/>
    <path class="cls-5" d="M696.62,325.97v4.2h-11.67v-4.2h11.67ZM695.09,316.02c-.37-.15-.75-.22-1.13-.22-.44,0-.82.12-1.13.35s-.55.62-.73,1.15-.26,1.22-.26,2.08v26.93h-4.69v-27.86c0-1.59.26-2.91.77-3.96.52-1.05,1.26-1.84,2.23-2.39.97-.54,2.17-.82,3.58-.82.8,0,1.49.1,2.08.31.59.21,1.1.46,1.53.75.43.29.76.59,1,.88l-2.25,3.71c-.3-.47-.63-.78-1-.93Z"/>
    <path class="cls-5" d="M709,325.97v4.2h-11.54v-4.2h11.54ZM705.59,318.89v27.42h-4.73v-27.42h4.73Z"/>
    <path class="cls-5" d="M715.65,345.42c-1.58-.88-2.79-2.12-3.65-3.71-.86-1.59-1.28-3.45-1.28-5.57s.43-4.02,1.3-5.62c.87-1.59,2.1-2.82,3.69-3.69,1.59-.87,3.46-1.3,5.62-1.3s3.98.41,5.48,1.24c1.5.83,2.66,2.01,3.47,3.56.81,1.55,1.22,3.41,1.22,5.59,0,.24,0,.49-.02.75-.02.27-.04.46-.07.58h-17.86v-3.27h13.8l-1.46,2.03c.09-.18.18-.42.29-.73s.16-.57.16-.77c0-1.09-.21-2.03-.64-2.83-.43-.8-1.02-1.42-1.77-1.86-.75-.44-1.63-.66-2.63-.66-1.21,0-2.24.27-3.1.8-.86.53-1.5,1.3-1.95,2.3-.44,1-.68,2.24-.71,3.71,0,1.47.22,2.72.66,3.74.44,1.02,1.1,1.79,1.97,2.32.87.53,1.92.8,3.16.8s2.43-.27,3.41-.8c.97-.53,1.78-1.34,2.43-2.43l4.11,1.68c-1.06,1.83-2.43,3.2-4.11,4.11-1.68.91-3.7,1.37-6.06,1.37-2.06,0-3.88-.44-5.46-1.33Z"/>
    <path class="cls-5" d="M735.88,330.41c.91-1.58,2.13-2.79,3.65-3.63,1.52-.84,3.15-1.26,4.89-1.26s3.21.43,4.49,1.28c1.28.86,2.3,2.07,3.05,3.65.75,1.58,1.13,3.47,1.13,5.68s-.38,4.07-1.13,5.66c-.75,1.59-1.77,2.82-3.05,3.67-1.28.85-2.78,1.28-4.49,1.28s-3.37-.42-4.89-1.26c-1.52-.84-2.73-2.06-3.65-3.65s-1.37-3.49-1.37-5.7.46-4.15,1.37-5.73ZM740.3,339.63c.56.97,1.3,1.71,2.23,2.21.93.5,1.94.75,3.03.75.91,0,1.82-.25,2.72-.75.9-.5,1.64-1.23,2.21-2.19.57-.96.86-2.13.86-3.52s-.29-2.56-.86-3.52c-.58-.96-1.31-1.69-2.21-2.19-.9-.5-1.81-.75-2.72-.75-1.09,0-2.1.25-3.03.75-.93.5-1.67,1.24-2.23,2.21-.56.97-.84,2.14-.84,3.49s.28,2.52.84,3.49ZM756.18,311.82v34.49h-4.82v-34.49h4.82Z"/>
    <path class="cls-5" d="M775.21,324.42c.81-1.95,1.95-3.63,3.41-5.06,1.46-1.43,3.17-2.54,5.13-3.34,1.96-.8,4.08-1.19,6.35-1.19s4.47.4,6.41,1.19c1.95.8,3.64,1.91,5.08,3.34,1.44,1.43,2.56,3.12,3.36,5.06.8,1.95,1.19,4.08,1.19,6.41s-.4,4.44-1.19,6.41c-.8,1.98-1.91,3.69-3.34,5.13-1.43,1.44-3.12,2.57-5.06,3.38s-4.1,1.22-6.46,1.22-4.44-.41-6.41-1.22c-1.98-.81-3.69-1.94-5.13-3.38-1.45-1.44-2.57-3.15-3.36-5.13-.8-1.97-1.19-4.11-1.19-6.41s.4-4.47,1.22-6.41ZM780.94,336.67c.94,1.68,2.23,3,3.87,3.96,1.64.96,3.47,1.44,5.5,1.44s3.89-.46,5.48-1.39c1.59-.93,2.84-2.22,3.76-3.87.91-1.65,1.37-3.54,1.37-5.66s-.46-4.04-1.37-5.75c-.91-1.71-2.17-3.07-3.78-4.07-1.61-1-3.5-1.5-5.68-1.5-2.03,0-3.85.47-5.44,1.42-1.59.94-2.84,2.25-3.76,3.91-.92,1.67-1.37,3.56-1.37,5.68s.47,4.16,1.42,5.84ZM794.69,333.04l13.93,13.49h-6.15l-13.8-13.49h6.01Z"/>
    <path class="cls-5" d="M817.42,341.71c.62.8,1.56,1.19,2.83,1.19.91,0,1.71-.18,2.39-.55.68-.37,1.21-.9,1.59-1.59.38-.69.57-1.5.57-2.41v-12.38h4.78v20.34h-4.78v-3.14c-.65,1.18-1.48,2.07-2.5,2.68-1.02.6-2.23.91-3.65.91-2.27,0-4.02-.71-5.24-2.12-1.22-1.42-1.84-3.33-1.84-5.75v-12.91h4.91v12.38c0,1.44.31,2.56.93,3.36Z"/>
    <path class="cls-5" d="M839.18,341.73c.32.49.77.85,1.35,1.08.57.24,1.23.35,1.97.35.94,0,1.8-.19,2.59-.57.78-.38,1.42-.95,1.9-1.7.49-.75.73-1.63.73-2.63l.71,2.65c0,1.3-.38,2.38-1.13,3.25-.75.87-1.7,1.52-2.83,1.95-1.14.43-2.29.64-3.47.64-1.27,0-2.45-.25-3.54-.75-1.09-.5-1.96-1.24-2.61-2.21s-.97-2.15-.97-3.54c0-1.97.69-3.54,2.08-4.71,1.39-1.16,3.35-1.75,5.88-1.75,1.36,0,2.53.15,3.52.44.99.3,1.81.64,2.45,1.04s1.11.76,1.37,1.08v2.43c-.91-.65-1.89-1.12-2.92-1.42-1.03-.29-2.12-.44-3.27-.44-1,0-1.81.13-2.43.38s-1.08.6-1.39,1.04c-.31.44-.46.99-.46,1.64s.16,1.26.49,1.75ZM835.24,327.91c.91-.56,2.1-1.11,3.56-1.64,1.46-.53,3.13-.8,5.02-.8,1.68,0,3.16.25,4.44.75,1.28.5,2.29,1.22,3.03,2.14.74.93,1.11,2.07,1.11,3.43v14.5h-4.69v-13.58c0-.65-.11-1.18-.33-1.59-.22-.41-.52-.75-.91-1.02-.38-.27-.84-.46-1.37-.57-.53-.12-1.11-.18-1.72-.18-.94,0-1.83.11-2.67.33-.84.22-1.56.49-2.17.8-.6.31-1.05.57-1.35.77l-1.95-3.36Z"/>
    <path class="cls-5" d="M862.75,311.82v34.49h-4.78v-34.49h4.78Z"/>
    <path class="cls-5" d="M869.58,315.8c.6-.56,1.3-.84,2.1-.84.86,0,1.57.28,2.15.84.57.56.86,1.25.86,2.08s-.29,1.48-.86,2.06c-.58.57-1.29.86-2.15.86-.8,0-1.5-.29-2.1-.86-.61-.58-.91-1.26-.91-2.06s.3-1.52.91-2.08ZM874.02,325.97v20.34h-4.69v-20.34h4.69Z"/>
    <path class="cls-5" d="M889.32,325.97v4.2h-11.54v-4.2h11.54ZM885.92,318.89v27.42h-4.73v-27.42h4.73Z"/>
    <path class="cls-5" d="M897.33,356.04h-5.08l5.31-12.12-8.18-17.95h5.48l6.5,16.1-2.25-.13,6.37-15.96h5.13l-13.27,30.07Z"/>
    <path class="cls-5" d="M492.92,403.2c.65.28,1.3.42,1.95.42s1.33-.27,1.95-.8c.62-.53.93-1.45.93-2.74v-31.66h8.05v33.34c0,1.47-.27,2.73-.8,3.78-.53,1.05-1.27,1.89-2.21,2.52-.94.63-2.03,1.11-3.27,1.42-1.24.31-2.54.46-3.89.46-1.15,0-2.25-.13-3.32-.4-1.06-.26-2.02-.58-2.87-.95-.85-.37-1.59-.76-2.21-1.17l4.07-5.22c.44.38.99.71,1.64,1Z"/>
    <path class="cls-5" d="M515.89,398.51c-1.72-.87-3.06-2.1-4-3.69s-1.42-3.46-1.42-5.62.46-4.07,1.37-5.66c.91-1.59,2.23-2.81,3.96-3.67,1.72-.85,3.77-1.28,6.12-1.28s4.35.41,5.97,1.22c1.62.81,2.86,1.98,3.71,3.52.86,1.53,1.28,3.39,1.28,5.57v.95c0,.31-.03.57-.09.77h-18.57v-3.71h12.56l-1.59,2.03c.15-.21.27-.46.38-.77.1-.31.15-.57.15-.77,0-.88-.16-1.65-.49-2.3-.33-.65-.78-1.15-1.37-1.5-.59-.35-1.28-.53-2.08-.53-1,0-1.84.22-2.52.66-.68.44-1.19,1.11-1.53,2.01-.34.9-.52,2.03-.55,3.38,0,1.24.18,2.3.53,3.18.35.88.88,1.55,1.59,2.01.71.46,1.58.69,2.61.69,1.18,0,2.19-.22,3.03-.66.84-.44,1.51-1.11,2.01-1.99l5.97,1.46c-1.06,2.01-2.5,3.51-4.31,4.51-1.81,1-4.02,1.5-6.61,1.5-2.36,0-4.4-.44-6.12-1.3Z"/>
    <path class="cls-5" d="M540.41,379.03l4.25,10.44,5.84-11.98,5.97,11.98,4.24-10.44h6.99l-10.48,21.62-6.72-12.12-6.59,12.12-10.48-21.62h6.99Z"/>
    <path class="cls-5" d="M573.55,398.51c-1.72-.87-3.06-2.1-4-3.69s-1.42-3.46-1.42-5.62.46-4.07,1.37-5.66c.91-1.59,2.23-2.81,3.96-3.67,1.72-.85,3.77-1.28,6.12-1.28s4.35.41,5.97,1.22c1.62.81,2.86,1.98,3.71,3.52.86,1.53,1.28,3.39,1.28,5.57v.95c0,.31-.03.57-.09.77h-18.57v-3.71h12.56l-1.59,2.03c.15-.21.27-.46.38-.77.1-.31.15-.57.15-.77,0-.88-.16-1.65-.49-2.3-.33-.65-.78-1.15-1.37-1.5-.59-.35-1.28-.53-2.08-.53-1,0-1.84.22-2.52.66-.68.44-1.19,1.11-1.53,2.01-.34.9-.52,2.03-.55,3.38,0,1.24.18,2.3.53,3.18.35.88.88,1.55,1.59,2.01.71.46,1.58.69,2.61.69,1.18,0,2.19-.22,3.03-.66.84-.44,1.51-1.11,2.01-1.99l5.97,1.46c-1.06,2.01-2.5,3.51-4.31,4.51-1.81,1-4.02,1.5-6.61,1.5-2.36,0-4.4-.44-6.12-1.3Z"/>
    <path class="cls-5" d="M601.39,364.88v34.49h-6.72v-34.49h6.72Z"/>
    <path class="cls-5" d="M613.33,364.88v34.49h-6.72v-34.49h6.72Z"/>
    <path class="cls-5" d="M622.77,398.51c-1.72-.87-3.06-2.1-4-3.69s-1.42-3.46-1.42-5.62.46-4.07,1.37-5.66c.91-1.59,2.23-2.81,3.96-3.67,1.72-.85,3.77-1.28,6.12-1.28s4.35.41,5.97,1.22c1.62.81,2.86,1.98,3.71,3.52.86,1.53,1.28,3.39,1.28,5.57v.95c0,.31-.03.57-.09.77h-18.57v-3.71h12.56l-1.59,2.03c.15-.21.27-.46.38-.77.1-.31.15-.57.15-.77,0-.88-.16-1.65-.49-2.3-.33-.65-.78-1.15-1.37-1.5-.59-.35-1.28-.53-2.08-.53-1,0-1.84.22-2.52.66-.68.44-1.19,1.11-1.53,2.01-.34.9-.52,2.03-.55,3.38,0,1.24.18,2.3.53,3.18.35.88.88,1.55,1.59,2.01.71.46,1.58.69,2.61.69,1.18,0,2.19-.22,3.03-.66.84-.44,1.51-1.11,2.01-1.99l5.97,1.46c-1.06,2.01-2.5,3.51-4.31,4.51-1.81,1-4.02,1.5-6.61,1.5-2.36,0-4.4-.44-6.12-1.3Z"/>
    <path class="cls-5" d="M650.47,399.37h-6.59v-20.34h6.59v20.34ZM655.22,385.09c-.4-.21-.89-.31-1.48-.31-.65,0-1.22.18-1.72.53-.5.35-.88.87-1.15,1.55-.27.68-.4,1.5-.4,2.48l-1.59-2.34c0-1.62.32-3.07.95-4.33.63-1.27,1.47-2.27,2.5-3.01,1.03-.74,2.11-1.11,3.23-1.11.74,0,1.44.15,2.12.44.68.29,1.19.71,1.55,1.24l-2.87,5.7c-.35-.35-.73-.63-1.13-.84Z"/>
    <path class="cls-5" d="M670.94,409.1h-6.72l4.95-11.37-8.8-18.71h7.34l6.59,16.32-3.45-.04,6.5-16.27h6.85l-13.27,30.07Z"/>
    <path class="cls-5" d="M697.25,368.42h24.5v6.68h-8.53v24.28h-7.47v-24.28h-8.49v-6.68Z"/>
    <path class="cls-5" d="M731.21,399.37h-6.72v-34.49h6.72v34.49ZM737.05,384.21c-.44-.65-1.21-.97-2.3-.97-.71,0-1.33.15-1.86.46s-.94.74-1.24,1.28c-.29.55-.44,1.22-.44,2.01h-1.15c0-1.62.27-3.09.8-4.4.53-1.31,1.33-2.36,2.41-3.14,1.08-.78,2.45-1.17,4.13-1.17s3.03.29,4.05.88c1.02.59,1.76,1.46,2.23,2.61.47,1.15.71,2.56.71,4.25v13.35h-6.68v-12.38c0-1.21-.22-2.14-.66-2.79Z"/>
    <path class="cls-5" d="M755.22,394.35c.27.37.62.65,1.06.84s.93.29,1.46.29c.77,0,1.47-.16,2.12-.49.65-.32,1.18-.81,1.59-1.46.41-.65.62-1.44.62-2.39l.71,2.65c0,1.3-.35,2.4-1.06,3.29-.71.9-1.62,1.58-2.74,2.03-1.12.46-2.33.69-3.63.69s-2.5-.24-3.6-.73c-1.11-.49-1.99-1.22-2.65-2.19-.66-.97-1-2.15-1-3.54,0-1.95.69-3.49,2.08-4.62s3.35-1.7,5.88-1.7c1.24,0,2.35.12,3.34.35.99.24,1.83.53,2.54.88.71.35,1.24.72,1.59,1.11v2.96c-.71-.53-1.53-.94-2.45-1.22s-1.91-.42-2.94-.42c-.8,0-1.43.09-1.9.26s-.83.44-1.06.77c-.24.34-.35.76-.35,1.26,0,.53.13.98.4,1.35ZM749.61,380.8c1.15-.56,2.54-1.09,4.16-1.59,1.62-.5,3.39-.75,5.31-.75,1.8,0,3.41.26,4.82.77,1.42.52,2.54,1.26,3.36,2.23.83.97,1.24,2.17,1.24,3.58v14.33h-6.41v-12.82c0-.5-.08-.94-.24-1.3-.16-.37-.41-.69-.73-.95-.32-.27-.73-.46-1.22-.57-.49-.12-1.04-.18-1.66-.18-.91,0-1.81.1-2.67.31-.87.21-1.63.45-2.28.73-.65.28-1.12.51-1.42.69l-2.26-4.47Z"/>
    <path class="cls-5" d="M784.72,379.03v5.53h-13.62v-5.53h13.62ZM781.09,371.96v27.42h-6.41v-27.42h6.41Z"/>
    <path class="cls-5" d="M806.98,391.41c.78.83,1.64,1.46,2.57,1.9s1.91.66,2.94.66c1.09,0,1.99-.27,2.7-.82.71-.54,1.06-1.29,1.06-2.23,0-.8-.21-1.44-.62-1.92-.41-.49-1.08-.95-1.99-1.39-.91-.44-2.12-.94-3.63-1.5-.74-.26-1.58-.63-2.54-1.11-.96-.47-1.86-1.08-2.72-1.83-.86-.75-1.56-1.67-2.12-2.74-.56-1.08-.84-2.38-.84-3.91,0-1.83.48-3.4,1.44-4.73s2.26-2.34,3.89-3.03c1.64-.69,3.46-1.04,5.46-1.04s3.85.34,5.37,1.02c1.52.68,2.78,1.53,3.78,2.56,1,1.03,1.77,2.08,2.3,3.14l-5.7,3.18c-.44-.74-.95-1.38-1.53-1.92-.58-.55-1.21-.97-1.9-1.28-.69-.31-1.44-.46-2.23-.46-1.06,0-1.87.23-2.43.69-.56.46-.84,1.02-.84,1.7s.27,1.33.82,1.86c.54.53,1.33,1.02,2.34,1.46,1.02.44,2.25.91,3.69,1.42,1.09.41,2.11.89,3.05,1.44.94.55,1.78,1.2,2.5,1.97s1.29,1.65,1.7,2.65c.41,1,.62,2.15.62,3.45,0,1.56-.32,2.96-.95,4.18-.63,1.22-1.49,2.25-2.56,3.07s-2.3,1.45-3.67,1.88c-1.37.43-2.78.64-4.22.64-2,0-3.87-.36-5.59-1.08-1.72-.72-3.22-1.7-4.49-2.94s-2.25-2.59-2.96-4.07l5.22-3.76c.62,1.12,1.32,2.09,2.1,2.92Z"/>
    <path class="cls-5" d="M835.17,399.37h-6.72v-34.49h6.72v34.49ZM841.01,384.21c-.44-.65-1.21-.97-2.3-.97-.71,0-1.33.15-1.86.46s-.94.74-1.24,1.28c-.29.55-.44,1.22-.44,2.01h-1.15c0-1.62.27-3.09.8-4.4.53-1.31,1.33-2.36,2.41-3.14,1.08-.78,2.45-1.17,4.13-1.17s3.03.29,4.05.88c1.02.59,1.76,1.46,2.23,2.61.47,1.15.71,2.56.71,4.25v13.35h-6.68v-12.38c0-1.21-.22-2.14-.66-2.79Z"/>
    <path class="cls-5" d="M854.36,368.79c.77-.66,1.68-.99,2.74-.99s2.01.33,2.76.99c.75.66,1.13,1.53,1.13,2.59s-.38,1.93-1.13,2.61c-.75.68-1.67,1.02-2.76,1.02s-1.98-.34-2.74-1.02c-.77-.68-1.15-1.55-1.15-2.61s.38-1.92,1.15-2.59ZM860.33,379.03v20.34h-6.46v-20.34h6.46Z"/>
    <path class="cls-5" d="M878.35,384.21c-.46-.65-1.22-.97-2.28-.97-.71,0-1.33.15-1.86.44-.53.3-.94.72-1.24,1.28-.29.56-.44,1.24-.44,2.03v12.38h-6.72v-20.34h6.72v3.05c.59-1.12,1.39-1.99,2.41-2.61,1.02-.62,2.28-.93,3.78-.93,2.54,0,4.38.68,5.53,2.03,1.15,1.36,1.72,3.26,1.72,5.71v13.09h-6.94v-12.38c0-1.21-.23-2.14-.69-2.79Z"/>
    <path class="cls-5" d="M895.47,398.51c-1.72-.87-3.06-2.1-4-3.69s-1.42-3.46-1.42-5.62.46-4.07,1.37-5.66c.91-1.59,2.23-2.81,3.96-3.67,1.72-.85,3.77-1.28,6.12-1.28s4.35.41,5.97,1.22c1.62.81,2.86,1.98,3.71,3.52.86,1.53,1.28,3.39,1.28,5.57v.95c0,.31-.03.57-.09.77h-18.57v-3.71h12.56l-1.59,2.03c.15-.21.27-.46.38-.77.1-.31.15-.57.15-.77,0-.88-.16-1.65-.49-2.3-.33-.65-.78-1.15-1.37-1.5-.59-.35-1.28-.53-2.08-.53-1,0-1.84.22-2.52.66-.68.44-1.19,1.11-1.53,2.01-.34.9-.52,2.03-.55,3.38,0,1.24.18,2.3.53,3.18.35.88.88,1.55,1.59,2.01.71.46,1.58.69,2.61.69,1.18,0,2.19-.22,3.03-.66.84-.44,1.51-1.11,2.01-1.99l5.97,1.46c-1.06,2.01-2.5,3.51-4.31,4.51-1.81,1-4.02,1.5-6.61,1.5-2.36,0-4.4-.44-6.12-1.3Z"/>
    <path class="cls-5" d="M920.49,394c.84.49,1.58.83,2.23,1.02.65.19,1.21.29,1.68.29.68,0,1.18-.15,1.5-.44.32-.29.49-.68.49-1.15,0-.44-.13-.82-.4-1.13-.26-.31-.71-.61-1.35-.91s-1.5-.6-2.59-.93c-.97-.35-1.89-.77-2.76-1.26-.87-.49-1.58-1.14-2.14-1.97-.56-.82-.84-1.89-.84-3.18s.33-2.28,1-3.14c.66-.85,1.56-1.5,2.7-1.95,1.13-.44,2.44-.66,3.91-.66,1.18,0,2.28.13,3.29.4,1.02.27,1.97.62,2.87,1.06.9.44,1.75.96,2.54,1.55l-2.39,4.33c-.85-.8-1.83-1.45-2.92-1.97-1.09-.52-2.09-.77-3.01-.77-.62,0-1.08.12-1.39.35-.31.24-.46.55-.46.93,0,.44.18.81.55,1.11.37.29.9.57,1.59.82.69.25,1.54.57,2.54.95,1.06.38,2.04.83,2.94,1.33.9.5,1.62,1.13,2.17,1.9.54.77.82,1.78.82,3.05,0,2.18-.67,3.83-2.01,4.93-1.34,1.11-3.22,1.66-5.64,1.66-1.47,0-2.84-.17-4.09-.51-1.25-.34-2.41-.8-3.47-1.37-1.06-.58-2.05-1.22-2.96-1.92l2.79-4.42c1.03.86,1.97,1.53,2.81,2.01Z"/>
    <path class="cls-5" d="M605.52,421.48h6.06l-12.65,32.59-9.55-21.89-9.55,21.89-12.65-32.59h6.06l7.34,20.74,8.8-22.29,8.89,22.29,7.25-20.74Z"/>
    <path class="cls-5" d="M615.71,421.92c.6-.56,1.3-.84,2.1-.84.86,0,1.57.28,2.15.84.57.56.86,1.25.86,2.08s-.29,1.48-.86,2.06c-.58.58-1.29.86-2.15.86-.8,0-1.5-.29-2.1-.86-.61-.58-.91-1.26-.91-2.06s.3-1.52.91-2.08ZM620.16,432.1v20.34h-4.69v-20.34h4.69Z"/>
    <path class="cls-5" d="M635.46,432.1v4.2h-11.54v-4.2h11.54ZM632.05,425.02v27.42h-4.73v-27.42h4.73Z"/>
    <path class="cls-5" d="M643.51,452.44h-4.78v-34.49h4.78v34.49ZM650.91,436.65c-.6-.77-1.57-1.15-2.9-1.15-.88,0-1.67.19-2.34.57-.68.38-1.21.91-1.59,1.59-.38.68-.57,1.47-.57,2.39h-1.15c0-1.62.29-3.07.88-4.33s1.42-2.28,2.5-3.05,2.38-1.15,3.91-1.15,2.78.29,3.83.88c1.05.59,1.83,1.47,2.37,2.63.53,1.17.8,2.62.8,4.36v13.04h-4.82v-12.38c0-1.5-.3-2.64-.91-3.41Z"/>
    <path class="cls-5" d="M681.49,421.48v30.95h-5.13v-30.95h5.13ZM679.59,421.48h15.61v4.6h-15.61v-4.6ZM679.59,433.6h14.73v4.51h-14.73v-4.51ZM679.59,447.84h15.61v4.6h-15.61v-4.6Z"/>
    <path class="cls-5" d="M705.99,417.95v34.49h-4.78v-34.49h4.78Z"/>
    <path class="cls-5" d="M715.47,451.55c-1.58-.88-2.79-2.12-3.65-3.71-.86-1.59-1.28-3.45-1.28-5.57s.43-4.02,1.3-5.62,2.1-2.82,3.69-3.69c1.59-.87,3.46-1.3,5.62-1.3s3.98.41,5.48,1.24c1.5.83,2.66,2.01,3.47,3.56s1.22,3.41,1.22,5.59c0,.24,0,.49-.02.75-.02.27-.04.46-.07.58h-17.86v-3.27h13.8l-1.46,2.03c.09-.18.18-.42.29-.73s.16-.57.16-.77c0-1.09-.21-2.03-.64-2.83-.43-.8-1.02-1.42-1.77-1.86-.75-.44-1.63-.66-2.63-.66-1.21,0-2.24.27-3.1.8-.86.53-1.5,1.3-1.95,2.3s-.68,2.24-.71,3.71c0,1.47.22,2.72.66,3.74.44,1.02,1.1,1.79,1.97,2.32s1.92.8,3.16.8,2.43-.27,3.41-.8c.97-.53,1.78-1.34,2.43-2.43l4.11,1.68c-1.06,1.83-2.43,3.2-4.11,4.11-1.68.91-3.7,1.37-6.06,1.37-2.06,0-3.88-.44-5.46-1.33Z"/>
    <path class="cls-5" d="M735.7,436.45c.91-1.55,2.13-2.73,3.65-3.56,1.52-.83,3.15-1.24,4.89-1.24s3.21.42,4.49,1.26c1.28.84,2.3,2.04,3.05,3.6s1.13,3.45,1.13,5.66-.38,4.05-1.13,5.62-1.77,2.76-3.05,3.6c-1.28.84-2.78,1.26-4.49,1.26s-3.37-.41-4.89-1.24c-1.52-.83-2.73-2.02-3.65-3.58s-1.37-3.45-1.37-5.66.46-4.18,1.37-5.73ZM739.46,453.81c.03.91.29,1.74.77,2.48.49.74,1.16,1.31,2.01,1.72.85.41,1.84.62,2.96.62,1,0,1.96-.24,2.87-.71.91-.47,1.66-1.19,2.23-2.17.57-.97.86-2.23.86-3.76v-19.9h4.69v19.9c0,2.45-.49,4.47-1.48,6.06-.99,1.59-2.28,2.78-3.87,3.56-1.59.78-3.32,1.17-5.17,1.17-2.21,0-4.1-.38-5.66-1.13-1.56-.75-2.76-1.81-3.6-3.16-.84-1.36-1.29-2.92-1.35-4.69h4.73ZM740.12,445.63c.56.94,1.3,1.66,2.23,2.14s1.94.73,3.03.73c.91,0,1.82-.24,2.72-.71.9-.47,1.64-1.19,2.21-2.14.57-.96.86-2.12.86-3.47,0-1.06-.17-1.98-.51-2.76s-.79-1.44-1.35-1.99c-.56-.54-1.19-.95-1.88-1.22s-1.38-.4-2.06-.4c-1.09,0-2.1.24-3.03.73s-1.67,1.2-2.23,2.14-.84,2.11-.84,3.49.28,2.51.84,3.45Z"/>
    <path class="cls-5" d="M765.29,447.86c.32.49.77.85,1.35,1.08.57.24,1.23.35,1.97.35.94,0,1.8-.19,2.59-.57.78-.38,1.42-.95,1.9-1.7.49-.75.73-1.63.73-2.63l.71,2.65c0,1.3-.38,2.38-1.13,3.25-.75.87-1.7,1.52-2.83,1.95-1.14.43-2.29.64-3.47.64-1.27,0-2.45-.25-3.54-.75-1.09-.5-1.96-1.24-2.61-2.21s-.97-2.15-.97-3.54c0-1.97.69-3.54,2.08-4.71,1.39-1.16,3.35-1.75,5.88-1.75,1.36,0,2.53.15,3.52.44.99.3,1.81.64,2.45,1.04.65.4,1.11.76,1.37,1.08v2.43c-.91-.65-1.89-1.12-2.92-1.42-1.03-.29-2.12-.44-3.27-.44-1,0-1.81.12-2.43.38-.62.25-1.08.6-1.39,1.04-.31.44-.46.99-.46,1.64s.16,1.26.49,1.75ZM761.35,434.04c.91-.56,2.1-1.11,3.56-1.64,1.46-.53,3.13-.8,5.02-.8,1.68,0,3.16.25,4.44.75s2.29,1.22,3.03,2.14c.74.93,1.11,2.07,1.11,3.43v14.5h-4.69v-13.58c0-.65-.11-1.18-.33-1.59-.22-.41-.52-.75-.91-1.02-.38-.26-.84-.46-1.37-.57-.53-.12-1.11-.18-1.72-.18-.94,0-1.83.11-2.67.33-.84.22-1.56.49-2.17.8-.6.31-1.05.57-1.35.77l-1.95-3.36Z"/>
    <path class="cls-5" d="M796.24,436.65c-.62-.77-1.58-1.15-2.88-1.15-.88,0-1.67.18-2.34.55-.68.37-1.21.9-1.59,1.59s-.57,1.5-.57,2.41v12.38h-4.78v-20.34h4.78v3.14c.65-1.21,1.48-2.11,2.5-2.7,1.02-.59,2.23-.88,3.65-.88,2.3,0,4.05.7,5.26,2.1,1.21,1.4,1.81,3.32,1.81,5.77v12.91h-4.91v-12.38c0-1.5-.31-2.64-.93-3.41Z"/>
    <path class="cls-5" d="M812.2,445.65c.56.96,1.32,1.72,2.28,2.28.96.56,2.03.84,3.21.84.97,0,1.9-.15,2.79-.44.88-.29,1.67-.71,2.34-1.24.68-.53,1.18-1.12,1.5-1.77v5.26c-.71.71-1.67,1.27-2.87,1.68-1.21.41-2.54.62-3.98.62-2.09,0-3.97-.45-5.64-1.35-1.67-.9-2.98-2.15-3.94-3.76-.96-1.61-1.44-3.44-1.44-5.5s.48-3.94,1.44-5.53c.96-1.59,2.27-2.84,3.94-3.74,1.67-.9,3.54-1.35,5.64-1.35,1.44,0,2.77.21,3.98.62,1.21.41,2.17.97,2.87,1.68v5.26c-.33-.68-.83-1.27-1.53-1.79-.69-.52-1.48-.92-2.37-1.22-.88-.29-1.8-.44-2.74-.44-1.18,0-2.25.28-3.21.84s-1.72,1.33-2.28,2.3c-.56.97-.84,2.09-.84,3.36s.28,2.42.84,3.38Z"/>
    <path class="cls-5" d="M832.96,451.55c-1.58-.88-2.79-2.12-3.65-3.71-.86-1.59-1.28-3.45-1.28-5.57s.43-4.02,1.3-5.62,2.1-2.82,3.69-3.69c1.59-.87,3.46-1.3,5.62-1.3s3.98.41,5.48,1.24c1.5.83,2.66,2.01,3.47,3.56s1.22,3.41,1.22,5.59c0,.24,0,.49-.02.75-.02.27-.04.46-.07.58h-17.86v-3.27h13.8l-1.46,2.03c.09-.18.18-.42.29-.73s.16-.57.16-.77c0-1.09-.21-2.03-.64-2.83-.43-.8-1.02-1.42-1.77-1.86-.75-.44-1.63-.66-2.63-.66-1.21,0-2.24.27-3.1.8-.86.53-1.5,1.3-1.95,2.3s-.68,2.24-.71,3.71c0,1.47.22,2.72.66,3.74.44,1.02,1.1,1.79,1.97,2.32s1.92.8,3.16.8,2.43-.27,3.41-.8c.97-.53,1.78-1.34,2.43-2.43l4.11,1.68c-1.06,1.83-2.43,3.2-4.11,4.11-1.68.91-3.7,1.37-6.06,1.37-2.06,0-3.88-.44-5.46-1.33Z"/>
    <path class="cls-5" d="M852.73,447.99c.6-.6,1.33-.91,2.19-.91.91,0,1.67.3,2.26.91.59.61.88,1.33.88,2.19s-.29,1.55-.88,2.17c-.59.62-1.34.93-2.26.93-.86,0-1.58-.31-2.19-.93-.6-.62-.91-1.34-.91-2.17s.3-1.58.91-2.19Z"/>
  </g>
  <path class="cls-4" d="M440.05,229.91s.33,2.27-.12,4.69c-.99,5.26-56.95,102.62-101.83,83.72-20.63-8.69-32.3-38.08-28.92-58.03,8.98-52.93,57.17-98.76,82.45-83.97,0,0,22.89,5.45,46.71,48.69,1.34,2.42,1.7,4.9,1.7,4.9Z"/>
  <path class="cls-2" d="M966.73,700.66s-2.23.18-4.55-.42c-5.05-1.3-96.07-62.06-74.76-104.47,9.79-19.49,39.13-28.92,58.3-24.33,50.87,12.18,92.3,62.02,76.27,85.64,0,0-6.8,21.9-50.39,42.24-2.44,1.14-4.87,1.33-4.87,1.33Z"/>
  <g>
    <path class="cls-4" d="M754.84,203.72c-1.46-2.71-3.44-5.03-3.44-5.03-1.48-1.74-2.94-3.04-4.11-3.96,0,0-2.56-2.06-5.58-3.32-9.68-4.06-21.54-1.61-30.67,6.34,3.03-3.63,7.44-10.13,8.66-19.07.39-2.88,1.94-14.23-3.65-18.29-3.73-2.71-8.17-2.76-8.17-2.76,0,0-.8,0-1.61.08-2.72.3-12.44,3-21.27,12.8-9.24,10.26-11.42,21.53-11.81,23.77-.26,1.47-.67,4.11-.75,8.36-.18,9.87,1.57,19.96,6.12,33.14,3.26,9.46,8.67,22.55,17.74,37.28.34.04,2.67.25,4.44-1.49,1.21-1.19,1.48-2.62,1.55-3.12-6.12-8.91-9.9-17.18-12.25-23.42-6.32-16.76-6.86-30.84-6.97-36.01-.14-6.9.51-12.6,1.11-16.45,0,0,2.93-13.8,12.58-23.9,1.27-1.33,3.62-3.58,7.25-4.6,1.54-.43,4.12-1.11,6.04-.02,4.38,2.49,2.68,12.77,2.21,15.65-.54,3.28-1.68,7.85-8.18,20.46-2.77,5.38-5.25,9.76-7.05,12.84.98,1.97,1.96,3.93,2.94,5.9,1.3-2.79,3.45-6.71,6.91-10.75,3.01-3.51,7.78-9.09,15.95-11.74,3.76-1.22,10.48-3.45,17.17-.06,5.61,2.84,8.05,8.03,8.85,9.96-11.86,8.09-20.96,15.83-27.43,21.82-5.08,4.71-12.75,12.24-15.91,22.57-1.72,5.63-1.14,8.93.11,11.3,1.6,3.05,4.38,4.61,5.95,5.33,1.81.22,2.95.17,2.95.17,1.75-.22,4.22-.64,7.08-1.53,13.09-4.07,20.6-13.68,23.55-17.55,14.14-18.59,12.22-40,9.69-44.69ZM742.86,238.47c-6.41,10.6-10.67,15.18-14.59,18.04-2.73,1.99-6.16,3.66-9.56,3.01-4.71-.9-3.65-6.8-2.77-10.21.44-1.7.96-2.92,1.03-3.08,3.73-8.38,9.63-14.97,9.63-14.97,9.03-10.09,21.67-18.81,24.25-20.57.16.66.29,1.32.39,1.96,0,0,0,0,0,0,0,1.07.21,1.85.22,1.9,1.26,7.61-8.6,23.92-8.6,23.92Z"/>
    <path class="cls-4" d="M770.92,190.15c1.57,5.74-1.08,12.35-4.42,12.55-1.73.11-4.63-1.84-5.24-3.51-1.79-4.9.07-11.1,2.91-11.07,2.59.03,5.15,1.5,6.75,2.02Z"/>
  </g>
</svg>