<?xml version="1.0" encoding="UTF-8"?>
<svg id="Layer_1" data-name="Layer 1" xmlns="http://www.w3.org/2000/svg" version="1.1" viewBox="0 0 1366 768">
  <defs>
    <style>
      .cls-1 {
        fill: #d4415a;
        stroke-width: 0px;
      }
    </style>
  </defs>
  <path class="cls-1" d="M628.59,374.95l2.82,5.13,5.75,1.1c.62.12.86.87.43,1.33l-4,4.26.73,5.8c.08.62-.56,1.09-1.13.82l-5.29-2.49-5.29,2.49c-.57.27-1.21-.2-1.13-.82l.73-5.8-4-4.26c-.43-.46-.19-1.21.43-1.33l5.75-1.1,2.82-5.13c.3-.55,1.09-.55,1.39,0Z"/>
  <path class="cls-1" d="M656.15,374.95l2.82,5.13,5.75,1.1c.62.12.86.87.43,1.33l-4,4.26.73,5.8c.08.62-.56,1.09-1.13.82l-5.29-2.49-5.29,2.49c-.57.27-1.21-.2-1.13-.82l.73-5.8-4-4.26c-.43-.46-.19-1.21.43-1.33l5.75-1.1,2.82-5.13c.3-.55,1.09-.55,1.39,0Z"/>
  <path class="cls-1" d="M683.7,374.95l2.82,5.13,5.75,1.1c.62.12.86.87.43,1.33l-4,4.26.73,5.8c.08.62-.56,1.09-1.13.82l-5.29-2.49-5.29,2.49c-.57.27-1.21-.2-1.13-.82l.73-5.8-4-4.26c-.43-.46-.19-1.21.43-1.33l5.75-1.1,2.82-5.13c.3-.55,1.09-.55,1.39,0Z"/>
  <path class="cls-1" d="M711.25,374.95l2.82,5.13,5.75,1.1c.62.12.86.87.43,1.33l-4,4.26.73,5.8c.08.62-.56,1.09-1.13.82l-5.29-2.49-5.29,2.49c-.57.27-1.21-.2-1.13-.82l.73-5.8-4-4.26c-.43-.46-.19-1.21.43-1.33l5.75-1.1,2.82-5.13c.3-.55,1.09-.55,1.39,0Z"/>
  <path class="cls-1" d="M738.8,374.95l2.82,5.13,5.75,1.1c.62.12.86.87.43,1.33l-4,4.26.73,5.8c.08.62-.56,1.09-1.13.82l-5.29-2.49-5.29,2.49c-.57.27-1.21-.2-1.13-.82l.73-5.8-4-4.26c-.43-.46-.19-1.21.43-1.33l5.75-1.1,2.82-5.13c.3-.55,1.09-.55,1.39,0Z"/>
</svg>