<?xml version="1.0" encoding="UTF-8"?>
<svg id="Layer_1" data-name="Layer 1" xmlns="http://www.w3.org/2000/svg" version="1.1" viewBox="0 0 1366 768">
  <defs>
    <style>
      .cls-1 {
        fill: #f3efec;
        font-family: CaveatBrush-Regular, 'Caveat Brush';
        font-size: 33.16px;
      }

      .cls-2 {
        fill: #493845;
      }

      .cls-2, .cls-3, .cls-4, .cls-5, .cls-6 {
        stroke-width: 0px;
      }

      .cls-7 {
        fill: none;
        stroke: #d4415a;
        stroke-miterlimit: 10;
        stroke-width: 1.31px;
      }

      .cls-3 {
        fill: #c8d57c;
      }

      .cls-4 {
        fill: #deb0c9;
      }

      .cls-5 {
        fill: #d4415a;
      }

      .cls-6 {
        fill: #fff;
      }
    </style>
  </defs>
  <path class="cls-3" d="M-.32,157.03c455.32.63,910.65,1.25,1365.97,1.88,0,149.7.02,299.42.03,449.12H1.1C.63,457.7.15,307.36-.32,157.03Z"/>
  <path class="cls-5" d="M262.62,233s.24,1.64-.09,3.39c-.71,3.8-41.13,74.12-73.54,60.47-14.9-6.28-23.33-27.5-20.89-41.91,6.49-38.22,41.29-71.33,59.55-60.65,0,0,16.53,3.94,33.74,35.16.96,1.75,1.23,3.54,1.23,3.54Z"/>
  <path class="cls-4" d="M1088.11,375.29s-.33,2.27.12,4.69c.99,5.26,56.95,102.62,101.83,83.72,20.63-8.69,32.3-38.08,28.92-58.03-8.98-52.93-57.17-98.76-82.45-83.97,0,0-22.89,5.45-46.71,48.69-1.34,2.42-1.7,4.9-1.7,4.9Z"/>
  <g>
    <path class="cls-5" d="M729.56,258.88c-2.08-3.85-4.89-7.16-4.89-7.16-2.11-2.47-4.19-4.32-5.85-5.64,0,0-3.65-2.93-7.94-4.73-13.78-5.79-30.67-2.29-43.67,9.02,4.31-5.17,10.59-14.42,12.33-27.16.56-4.1,2.77-20.26-5.19-26.04-5.31-3.85-11.63-3.93-11.63-3.93,0,0-1.13-.01-2.29.11-3.88.43-17.71,4.27-30.29,18.23-13.16,14.61-16.25,30.65-16.82,33.84-.37,2.09-.96,5.84-1.07,11.91-.25,14.05,2.24,28.42,8.71,47.18,4.65,13.48,12.34,32.1,25.25,53.08.48.05,3.8.36,6.33-2.11,1.73-1.69,2.11-3.73,2.21-4.44-8.72-12.69-14.09-24.46-17.44-33.35-9-23.87-9.76-43.9-9.92-51.27-.2-9.82.72-17.94,1.58-23.42,0,0,4.17-19.65,17.91-34.03,1.81-1.89,5.16-5.1,10.33-6.55,2.2-.62,5.87-1.57,8.6-.02,6.23,3.54,3.82,18.18,3.14,22.28-.77,4.66-2.4,11.17-11.65,29.13-3.95,7.66-7.48,13.9-10.04,18.28,1.4,2.8,2.79,5.6,4.19,8.4,1.85-3.98,4.91-9.55,9.84-15.3,4.29-5,11.07-12.94,22.71-16.72,5.35-1.73,14.92-4.92,24.45-.09,7.99,4.05,11.47,11.44,12.6,14.19-16.89,11.52-29.84,22.53-39.05,31.06-7.24,6.7-18.16,17.42-22.66,32.13-2.45,8.02-1.62,12.72.15,16.08,2.28,4.34,6.23,6.56,8.47,7.59,2.58.31,4.19.24,4.19.24,2.49-.31,6.01-.91,10.08-2.18,18.64-5.79,29.33-19.47,33.53-24.99,20.12-26.47,17.4-56.95,13.8-63.62ZM712.5,308.35c-9.13,15.1-15.19,21.61-20.77,25.68-3.89,2.83-8.77,5.21-13.61,4.29-6.7-1.27-5.2-9.68-3.94-14.53.63-2.42,1.36-4.16,1.47-4.39,5.3-11.93,13.71-21.31,13.71-21.31,12.86-14.36,30.86-26.78,34.53-29.28.23.94.42,1.87.56,2.79,0,0,0,0,0,0,0,1.52.3,2.64.31,2.7,1.8,10.83-12.25,34.05-12.25,34.05Z"/>
    <path class="cls-5" d="M752.46,239.56c2.24,8.17-1.54,17.58-6.29,17.87-2.47.15-6.59-2.62-7.46-4.99-2.55-6.98.09-15.8,4.15-15.76,3.68.04,7.34,2.14,9.6,2.88Z"/>
  </g>
  <g>
    <path class="cls-2" d="M398.7,390.7c.78.9,1.64,1.59,2.59,2.08.94.49,2,.73,3.18.73,1.41,0,2.56-.38,3.45-1.15s1.33-1.75,1.33-2.96-.28-2.07-.84-2.76c-.56-.69-1.33-1.28-2.32-1.77-.99-.49-2.13-.97-3.43-1.44-.77-.27-1.62-.63-2.56-1.08-.94-.46-1.84-1.03-2.7-1.72-.85-.69-1.56-1.55-2.12-2.56-.56-1.02-.84-2.25-.84-3.69,0-1.65.43-3.1,1.28-4.36s2.01-2.23,3.47-2.92,3.12-1.04,4.97-1.04,3.42.32,4.77.97c1.36.65,2.5,1.47,3.43,2.48.93,1,1.66,2.05,2.19,3.14l-4.24,2.39c-.38-.77-.87-1.48-1.46-2.14-.59-.66-1.28-1.19-2.06-1.59-.78-.4-1.69-.6-2.72-.6-1.44,0-2.51.33-3.18.99-.68.66-1.02,1.44-1.02,2.32,0,.8.24,1.51.73,2.14.49.63,1.25,1.23,2.28,1.79,1.03.56,2.37,1.13,4.02,1.72.91.32,1.83.74,2.76,1.24.93.5,1.78,1.13,2.54,1.88.77.75,1.38,1.63,1.83,2.63.46,1,.69,2.18.69,3.54,0,1.44-.28,2.74-.84,3.89-.56,1.15-1.33,2.12-2.3,2.9-.97.78-2.07,1.39-3.29,1.81-1.22.43-2.5.64-3.82.64-1.83,0-3.52-.36-5.06-1.08-1.55-.72-2.9-1.69-4.05-2.9-1.15-1.21-2.06-2.52-2.74-3.93l3.89-2.7c.68,1.18,1.41,2.22,2.19,3.12Z"/>
    <path class="cls-2" d="M425.51,392.93c.62.8,1.56,1.19,2.83,1.19.91,0,1.71-.18,2.39-.55.68-.37,1.21-.9,1.59-1.59.38-.69.57-1.5.57-2.41v-12.38h4.77v20.34h-4.77v-3.14c-.65,1.18-1.48,2.07-2.5,2.68-1.02.6-2.23.91-3.65.91-2.27,0-4.02-.71-5.24-2.12-1.22-1.42-1.83-3.33-1.83-5.75v-12.91h4.91v12.38c0,1.45.31,2.56.93,3.36Z"/>
    <path class="cls-2" d="M448.41,397.53h-4.82v-34.49h4.82v34.49ZM463.89,393.07c-.91,1.59-2.12,2.81-3.63,3.65-1.5.84-3.14,1.26-4.91,1.26s-3.18-.43-4.49-1.28c-1.31-.85-2.34-2.08-3.07-3.67-.74-1.59-1.11-3.48-1.11-5.66s.37-4.1,1.11-5.68c.74-1.58,1.76-2.79,3.07-3.65,1.31-.85,2.81-1.28,4.49-1.28,1.77,0,3.4.42,4.91,1.26,1.5.84,2.71,2.05,3.63,3.62.91,1.58,1.37,3.49,1.37,5.73s-.46,4.11-1.37,5.7ZM459.47,383.87c-.56-.97-1.3-1.71-2.23-2.21-.93-.5-1.95-.75-3.07-.75-.91,0-1.81.25-2.7.75-.88.5-1.61,1.23-2.19,2.19-.58.96-.86,2.13-.86,3.52s.29,2.56.86,3.51c.57.96,1.3,1.69,2.19,2.19.88.5,1.78.75,2.7.75,1.12,0,2.14-.25,3.07-.75.93-.5,1.67-1.24,2.23-2.21.56-.97.84-2.14.84-3.49s-.28-2.52-.84-3.49Z"/>
    <path class="cls-2" d="M472.71,392.69c.66.52,1.33.9,2.01,1.15.68.25,1.36.38,2.03.38.85,0,1.53-.19,2.01-.57s.73-.91.73-1.59c0-.59-.19-1.1-.57-1.53-.38-.43-.91-.8-1.59-1.11-.68-.31-1.47-.63-2.39-.95-.91-.35-1.82-.77-2.72-1.26-.9-.49-1.64-1.13-2.21-1.92-.58-.8-.86-1.8-.86-3.01s.32-2.27.95-3.09c.63-.83,1.49-1.44,2.56-1.83,1.08-.4,2.23-.6,3.47-.6,1.12,0,2.17.16,3.16.49.99.33,1.88.75,2.68,1.28.8.53,1.47,1.14,2.03,1.81l-2.65,2.83c-.68-.8-1.49-1.44-2.43-1.95-.94-.5-1.92-.75-2.92-.75-.68,0-1.24.15-1.68.44-.44.29-.66.72-.66,1.28,0,.47.2.89.6,1.26s.93.7,1.59.99c.66.29,1.41.6,2.23.93,1.12.44,2.15.93,3.1,1.46.94.53,1.7,1.18,2.28,1.95.57.77.86,1.77.86,3.01,0,1.92-.66,3.46-1.97,4.62-1.31,1.16-3.09,1.75-5.33,1.75-1.39,0-2.66-.21-3.82-.64-1.16-.43-2.18-.99-3.05-1.68-.87-.69-1.6-1.42-2.19-2.19l2.79-2.79c.65.71,1.3,1.32,1.97,1.83Z"/>
    <path class="cls-2" d="M492.58,390.75c.56.96,1.32,1.72,2.28,2.28.96.56,2.03.84,3.21.84.97,0,1.9-.15,2.79-.44.88-.29,1.67-.71,2.34-1.24.68-.53,1.18-1.12,1.5-1.77v5.26c-.71.71-1.67,1.27-2.87,1.68-1.21.41-2.54.62-3.98.62-2.09,0-3.97-.45-5.64-1.35-1.67-.9-2.98-2.15-3.94-3.76-.96-1.61-1.44-3.44-1.44-5.5s.48-3.94,1.44-5.53c.96-1.59,2.27-2.84,3.94-3.74,1.66-.9,3.54-1.35,5.64-1.35,1.44,0,2.77.21,3.98.62,1.21.41,2.17.97,2.87,1.68v5.26c-.32-.68-.83-1.28-1.53-1.79-.69-.52-1.48-.92-2.37-1.22s-1.8-.44-2.74-.44c-1.18,0-2.25.28-3.21.84-.96.56-1.72,1.33-2.28,2.3-.56.97-.84,2.09-.84,3.36s.28,2.42.84,3.38Z"/>
    <path class="cls-2" d="M514.69,397.53h-4.73v-20.34h4.73v20.34ZM519.51,381.48c-.38-.18-.87-.27-1.46-.27-.8,0-1.44.21-1.95.62-.5.41-.86.98-1.08,1.7-.22.72-.33,1.57-.33,2.54l-1.59-.93c0-1.62.3-3.06.91-4.31.6-1.25,1.39-2.25,2.34-2.98.96-.74,1.95-1.11,2.98-1.11.74,0,1.43.11,2.08.33.65.22,1.19.61,1.64,1.17l-2.3,4.02c-.44-.35-.86-.62-1.24-.8Z"/>
    <path class="cls-2" d="M527.05,367.03c.6-.56,1.3-.84,2.1-.84.85,0,1.57.28,2.14.84.57.56.86,1.25.86,2.08s-.29,1.48-.86,2.06c-.57.58-1.29.86-2.14.86-.8,0-1.5-.29-2.1-.86-.6-.57-.91-1.26-.91-2.06s.3-1.52.91-2.08ZM531.49,377.19v20.34h-4.69v-20.34h4.69Z"/>
    <path class="cls-2" d="M542.72,397.53h-4.82v-34.49h4.82v34.49ZM558.2,393.07c-.91,1.59-2.12,2.81-3.63,3.65-1.5.84-3.14,1.26-4.91,1.26s-3.18-.43-4.49-1.28c-1.31-.85-2.34-2.08-3.07-3.67-.74-1.59-1.11-3.48-1.11-5.66s.37-4.1,1.11-5.68c.74-1.58,1.76-2.79,3.07-3.65,1.31-.85,2.81-1.28,4.49-1.28,1.77,0,3.4.42,4.91,1.26,1.5.84,2.71,2.05,3.63,3.62.91,1.58,1.37,3.49,1.37,5.73s-.46,4.11-1.37,5.7ZM553.78,383.87c-.56-.97-1.3-1.71-2.23-2.21-.93-.5-1.95-.75-3.07-.75-.91,0-1.81.25-2.7.75-.88.5-1.61,1.23-2.19,2.19-.58.96-.86,2.13-.86,3.52s.29,2.56.86,3.51c.57.96,1.3,1.69,2.19,2.19.88.5,1.78.75,2.7.75,1.12,0,2.14-.25,3.07-.75.93-.5,1.67-1.24,2.23-2.21.56-.97.84-2.14.84-3.49s-.28-2.52-.84-3.49Z"/>
    <path class="cls-2" d="M567.5,396.65c-1.58-.88-2.79-2.12-3.65-3.71-.86-1.59-1.28-3.45-1.28-5.57s.43-4.02,1.3-5.62c.87-1.59,2.1-2.82,3.69-3.69,1.59-.87,3.46-1.3,5.62-1.3s3.98.41,5.48,1.24c1.5.83,2.66,2.01,3.47,3.56.81,1.55,1.22,3.41,1.22,5.59,0,.24,0,.49-.02.75-.02.27-.04.46-.07.58h-17.86v-3.27h13.79l-1.46,2.03c.09-.18.18-.42.29-.73.1-.31.15-.57.15-.77,0-1.09-.21-2.03-.64-2.83s-1.02-1.42-1.77-1.86c-.75-.44-1.63-.66-2.63-.66-1.21,0-2.24.27-3.09.8-.86.53-1.5,1.3-1.95,2.3-.44,1-.68,2.24-.71,3.71,0,1.47.22,2.72.66,3.74.44,1.02,1.1,1.79,1.97,2.32.87.53,1.92.8,3.16.8s2.43-.26,3.4-.8c.97-.53,1.78-1.34,2.43-2.43l4.11,1.68c-1.06,1.83-2.43,3.2-4.11,4.11-1.68.91-3.7,1.37-6.06,1.37-2.06,0-3.88-.44-5.46-1.33Z"/>
    <path class="cls-2" d="M601.06,381.84c.96-1.59,2.26-2.84,3.91-3.74,1.65-.9,3.52-1.35,5.62-1.35s3.96.45,5.59,1.35c1.64.9,2.94,2.14,3.91,3.74s1.46,3.43,1.46,5.53-.49,3.9-1.46,5.5c-.97,1.61-2.28,2.86-3.91,3.76-1.64.9-3.5,1.35-5.59,1.35s-3.96-.45-5.62-1.35-2.96-2.15-3.91-3.76c-.96-1.61-1.44-3.44-1.44-5.5s.48-3.94,1.44-5.53ZM605.33,390.7c.53.96,1.25,1.71,2.17,2.25.91.55,1.95.82,3.09.82s2.14-.27,3.07-.82c.93-.54,1.66-1.3,2.19-2.25s.8-2.07.8-3.34-.27-2.39-.8-3.36-1.26-1.72-2.19-2.25c-.93-.53-1.95-.8-3.07-.8s-2.18.26-3.09.8c-.91.53-1.64,1.28-2.17,2.25-.53.97-.8,2.09-.8,3.36s.27,2.38.8,3.34Z"/>
    <path class="cls-2" d="M631.9,392.93c.62.8,1.56,1.19,2.83,1.19.91,0,1.71-.18,2.39-.55.68-.37,1.21-.9,1.59-1.59.38-.69.57-1.5.57-2.41v-12.38h4.77v20.34h-4.77v-3.14c-.65,1.18-1.48,2.07-2.5,2.68-1.02.6-2.23.91-3.65.91-2.27,0-4.02-.71-5.24-2.12-1.22-1.42-1.83-3.33-1.83-5.75v-12.91h4.91v12.38c0,1.45.31,2.56.93,3.36Z"/>
    <path class="cls-2" d="M654.89,397.53h-4.73v-20.34h4.73v20.34ZM659.71,381.48c-.38-.18-.87-.27-1.46-.27-.8,0-1.44.21-1.95.62-.5.41-.86.98-1.08,1.7-.22.72-.33,1.57-.33,2.54l-1.59-.93c0-1.62.3-3.06.91-4.31.6-1.25,1.39-2.25,2.34-2.98.96-.74,1.95-1.11,2.98-1.11.74,0,1.43.11,2.08.33.65.22,1.19.61,1.64,1.17l-2.3,4.02c-.44-.35-.86-.62-1.24-.8Z"/>
    <path class="cls-2" d="M683.81,397.53h-5.39l4.24-32.5,12.69,21,12.73-21,4.25,32.5h-5.39l-2.17-18.83-9.42,15.96-9.42-15.96-2.12,18.83Z"/>
    <path class="cls-2" d="M716.9,381.84c.96-1.59,2.26-2.84,3.91-3.74,1.65-.9,3.52-1.35,5.62-1.35s3.96.45,5.59,1.35c1.64.9,2.94,2.14,3.91,3.74s1.46,3.43,1.46,5.53-.49,3.9-1.46,5.5c-.97,1.61-2.28,2.86-3.91,3.76s-3.5,1.35-5.59,1.35-3.96-.45-5.62-1.35c-1.65-.9-2.96-2.15-3.91-3.76-.96-1.61-1.44-3.44-1.44-5.5s.48-3.94,1.44-5.53ZM721.17,390.7c.53.96,1.25,1.71,2.17,2.25.91.55,1.95.82,3.1.82s2.14-.27,3.07-.82c.93-.54,1.66-1.3,2.19-2.25.53-.96.79-2.07.79-3.34s-.26-2.39-.79-3.36c-.53-.97-1.26-1.72-2.19-2.25-.93-.53-1.95-.8-3.07-.8s-2.18.26-3.1.8c-.91.53-1.64,1.28-2.17,2.25s-.8,2.09-.8,3.36.27,2.38.8,3.34Z"/>
    <path class="cls-2" d="M754.06,381.75c-.62-.77-1.58-1.15-2.87-1.15-.88,0-1.67.18-2.34.55-.68.37-1.21.9-1.59,1.59-.38.69-.57,1.5-.57,2.41v12.38h-4.78v-20.34h4.78v3.14c.65-1.21,1.48-2.11,2.5-2.7,1.02-.59,2.23-.88,3.65-.88,2.3,0,4.05.7,5.26,2.1,1.21,1.4,1.81,3.32,1.81,5.77v12.91h-4.91v-12.38c0-1.5-.31-2.64-.93-3.4Z"/>
    <path class="cls-2" d="M766.73,367.03c.6-.56,1.3-.84,2.1-.84.85,0,1.57.28,2.14.84.57.56.86,1.25.86,2.08s-.29,1.48-.86,2.06-1.29.86-2.14.86c-.8,0-1.5-.29-2.1-.86-.6-.57-.91-1.26-.91-2.06s.3-1.52.91-2.08ZM771.17,377.19v20.34h-4.69v-20.34h4.69Z"/>
    <path class="cls-2" d="M795.4,379.01h5c.97,0,1.83-.16,2.56-.49.74-.32,1.31-.79,1.72-1.39.41-.6.62-1.33.62-2.19,0-1.3-.46-2.3-1.37-3.01-.91-.71-2.09-1.06-3.54-1.06h-3.76v22.37h4.33c1.18,0,2.23-.19,3.14-.57.91-.38,1.64-.96,2.17-1.72s.8-1.72.8-2.87c0-.83-.15-1.55-.46-2.19s-.74-1.16-1.28-1.59c-.55-.43-1.19-.74-1.92-.93-.74-.19-1.55-.29-2.43-.29h-5.57v-2.87h5.88c1.5,0,2.92.16,4.24.49,1.33.32,2.51.83,3.56,1.5,1.05.68,1.86,1.55,2.45,2.61.59,1.06.88,2.33.88,3.8,0,2.03-.48,3.71-1.44,5.04-.96,1.33-2.27,2.31-3.94,2.94s-3.59.95-5.77.95h-9.86v-30.95h9.33c1.95,0,3.66.28,5.15.84,1.49.56,2.65,1.42,3.49,2.56s1.26,2.61,1.26,4.38c0,1.53-.42,2.84-1.26,3.91-.84,1.08-2,1.89-3.49,2.45-1.49.56-3.21.84-5.15.84h-5.35v-2.56Z"/>
    <path class="cls-2" d="M818.28,367.03c.6-.56,1.3-.84,2.1-.84.85,0,1.57.28,2.14.84.57.56.86,1.25.86,2.08s-.29,1.48-.86,2.06-1.29.86-2.14.86c-.8,0-1.5-.29-2.1-.86-.6-.57-.91-1.26-.91-2.06s.3-1.52.91-2.08ZM822.73,377.19v20.34h-4.69v-20.34h4.69Z"/>
    <path class="cls-2" d="M826.13,402.75c.35.21.77.31,1.24.31s.86-.12,1.17-.38c.31-.25.54-.64.71-1.17.16-.53.24-1.21.24-2.03v-22.28h4.69v23.21c0,1.47-.25,2.75-.75,3.82-.5,1.08-1.25,1.9-2.23,2.48-.99.57-2.2.86-3.65.86-.74,0-1.38-.08-1.95-.24-.56-.16-1.05-.4-1.48-.71-.43-.31-.8-.64-1.13-1l2.25-3.71c.24.35.53.63.88.84ZM829.58,367.05c.59-.54,1.3-.82,2.12-.82s1.53.27,2.1.82c.58.55.86,1.23.86,2.06s-.29,1.47-.86,2.03c-.57.56-1.27.84-2.1.84s-1.53-.28-2.12-.84c-.59-.56-.88-1.24-.88-2.03s.29-1.51.88-2.06Z"/>
    <path class="cls-2" d="M840.66,381.84c.96-1.59,2.26-2.84,3.91-3.74,1.65-.9,3.52-1.35,5.62-1.35s3.96.45,5.59,1.35c1.64.9,2.94,2.14,3.91,3.74s1.46,3.43,1.46,5.53-.49,3.9-1.46,5.5c-.97,1.61-2.28,2.86-3.91,3.76s-3.5,1.35-5.59,1.35-3.96-.45-5.62-1.35c-1.65-.9-2.96-2.15-3.91-3.76-.96-1.61-1.44-3.44-1.44-5.5s.48-3.94,1.44-5.53ZM844.92,390.7c.53.96,1.25,1.71,2.17,2.25.91.55,1.95.82,3.1.82s2.14-.27,3.07-.82c.93-.54,1.66-1.3,2.19-2.25.53-.96.79-2.07.79-3.34s-.26-2.39-.79-3.36c-.53-.97-1.26-1.72-2.19-2.25-.93-.53-1.95-.8-3.07-.8s-2.18.26-3.1.8c-.91.53-1.64,1.28-2.17,2.25s-.8,2.09-.8,3.36.27,2.38.8,3.34Z"/>
    <path class="cls-2" d="M871.5,392.93c.62.8,1.56,1.19,2.83,1.19.91,0,1.71-.18,2.39-.55.68-.37,1.21-.9,1.59-1.59.38-.69.57-1.5.57-2.41v-12.38h4.78v20.34h-4.78v-3.14c-.65,1.18-1.48,2.07-2.5,2.68-1.02.6-2.23.91-3.65.91-2.27,0-4.02-.71-5.24-2.12-1.22-1.42-1.83-3.33-1.83-5.75v-12.91h4.91v12.38c0,1.45.31,2.56.93,3.36Z"/>
    <path class="cls-2" d="M894.49,397.53h-4.73v-20.34h4.73v20.34ZM899.31,381.48c-.38-.18-.87-.27-1.46-.27-.8,0-1.44.21-1.95.62-.5.41-.86.98-1.08,1.7-.22.72-.33,1.57-.33,2.54l-1.59-.93c0-1.62.3-3.06.91-4.31.6-1.25,1.38-2.25,2.34-2.98.96-.74,1.95-1.11,2.98-1.11.74,0,1.43.11,2.08.33s1.19.61,1.64,1.17l-2.3,4.02c-.44-.35-.86-.62-1.24-.8Z"/>
    <path class="cls-2" d="M918.27,381.75c-.62-.77-1.58-1.15-2.87-1.15-.88,0-1.67.18-2.34.55-.68.37-1.21.9-1.59,1.59-.38.69-.57,1.5-.57,2.41v12.38h-4.78v-20.34h4.78v3.14c.65-1.21,1.48-2.11,2.5-2.7,1.02-.59,2.23-.88,3.65-.88,2.3,0,4.05.7,5.26,2.1,1.21,1.4,1.81,3.32,1.81,5.77v12.91h-4.91v-12.38c0-1.5-.31-2.64-.93-3.4Z"/>
    <path class="cls-2" d="M933.71,392.96c.32.49.77.85,1.35,1.08.57.24,1.23.35,1.97.35.94,0,1.81-.19,2.59-.57.78-.38,1.42-.95,1.9-1.7.49-.75.73-1.63.73-2.63l.71,2.65c0,1.3-.38,2.38-1.13,3.25-.75.87-1.7,1.52-2.83,1.95s-2.29.64-3.47.64c-1.27,0-2.45-.25-3.54-.75-1.09-.5-1.96-1.24-2.61-2.21-.65-.97-.97-2.15-.97-3.54,0-1.97.69-3.54,2.08-4.71,1.38-1.16,3.34-1.75,5.88-1.75,1.36,0,2.53.15,3.52.44.99.29,1.8.64,2.45,1.04.65.4,1.1.76,1.37,1.08v2.43c-.91-.65-1.89-1.12-2.92-1.42-1.03-.29-2.12-.44-3.27-.44-1,0-1.81.12-2.43.38-.62.25-1.08.6-1.39,1.04-.31.44-.46.99-.46,1.64s.16,1.26.49,1.75ZM929.77,379.14c.91-.56,2.1-1.11,3.56-1.64s3.13-.8,5.02-.8c1.68,0,3.16.25,4.44.75s2.29,1.22,3.03,2.14c.74.93,1.11,2.07,1.11,3.43v14.5h-4.69v-13.57c0-.65-.11-1.18-.33-1.59-.22-.41-.52-.75-.91-1.02s-.84-.46-1.37-.57c-.53-.12-1.11-.18-1.72-.18-.94,0-1.83.11-2.67.33s-1.56.49-2.17.8-1.05.57-1.35.77l-1.95-3.36Z"/>
    <path class="cls-2" d="M957.27,363.05v34.49h-4.78v-34.49h4.78Z"/>
    <path class="cls-2" d="M965.12,393.24c.6-.56,1.35-.84,2.23-.84s1.62.28,2.21.84c.59.56.88,1.27.88,2.12s-.29,1.57-.88,2.14c-.59.58-1.33.86-2.21.86s-1.63-.29-2.23-.86c-.6-.57-.91-1.29-.91-2.14s.3-1.56.91-2.12ZM970.31,366.58l-1.11,21.58h-3.76l-1.11-21.58h5.97Z"/>
  </g>
  <g>
    <path class="cls-6" d="M457.62,524.61v18.84h-4.55v-18.84h4.55ZM455.93,524.61h3.69c1.6,0,2.94.25,4.02.74,1.09.49,1.91,1.2,2.46,2.11s.83,2.02.83,3.31-.28,2.35-.83,3.27c-.56.92-1.38,1.63-2.46,2.13-1.09.49-2.43.74-4.02.74h-3.69v-3.74h3.69c.92,0,1.63-.21,2.15-.62.52-.41.78-1,.78-1.78s-.26-1.39-.78-1.8c-.52-.41-1.24-.62-2.15-.62h-3.69v-3.74Z"/>
    <path class="cls-6" d="M471.01,540.18c.51.3.96.5,1.36.62.39.12.74.18,1.02.18.41,0,.72-.09.92-.27.2-.18.3-.41.3-.7,0-.27-.08-.5-.24-.69-.16-.19-.44-.37-.82-.55s-.91-.37-1.57-.57c-.59-.22-1.15-.47-1.68-.77-.53-.3-.96-.7-1.31-1.2-.34-.5-.51-1.15-.51-1.94s.2-1.39.61-1.91c.4-.52.95-.92,1.64-1.18.69-.27,1.48-.4,2.38-.4.72,0,1.39.08,2,.24.62.16,1.2.38,1.75.65.55.27,1.06.58,1.55.94l-1.45,2.64c-.52-.48-1.11-.88-1.78-1.2-.66-.31-1.27-.47-1.83-.47-.38,0-.66.07-.85.22-.19.14-.28.33-.28.57,0,.27.11.49.34.67.22.18.55.34.97.5.42.15.94.35,1.55.58.65.23,1.24.5,1.79.81.55.3.99.69,1.32,1.16.33.47.5,1.09.5,1.86,0,1.33-.41,2.33-1.22,3s-1.96,1.01-3.43,1.01c-.9,0-1.73-.1-2.49-.31s-1.47-.48-2.11-.83c-.65-.35-1.25-.74-1.8-1.17l1.7-2.69c.63.52,1.2.93,1.71,1.22Z"/>
    <path class="cls-6" d="M483.28,540.18c.51.3.96.5,1.36.62.39.12.74.18,1.02.18.41,0,.72-.09.92-.27.2-.18.3-.41.3-.7,0-.27-.08-.5-.24-.69-.16-.19-.44-.37-.82-.55s-.91-.37-1.57-.57c-.59-.22-1.15-.47-1.68-.77-.53-.3-.96-.7-1.31-1.2-.34-.5-.51-1.15-.51-1.94s.2-1.39.61-1.91c.4-.52.95-.92,1.64-1.18.69-.27,1.48-.4,2.38-.4.72,0,1.39.08,2,.24.62.16,1.2.38,1.75.65.55.27,1.06.58,1.55.94l-1.45,2.64c-.52-.48-1.11-.88-1.78-1.2-.66-.31-1.27-.47-1.83-.47-.38,0-.66.07-.85.22-.19.14-.28.33-.28.57,0,.27.11.49.34.67.22.18.55.34.97.5.42.15.94.35,1.55.58.65.23,1.24.5,1.79.81.55.3.99.69,1.32,1.16.33.47.5,1.09.5,1.86,0,1.33-.41,2.33-1.22,3s-1.96,1.01-3.43,1.01c-.9,0-1.73-.1-2.49-.31s-1.47-.48-2.11-.83c-.65-.35-1.25-.74-1.8-1.17l1.7-2.69c.63.52,1.2.93,1.71,1.22Z"/>
    <path class="cls-6" d="M500.01,531.07v3.36h-8.29v-3.36h8.29ZM497.8,526.76v16.69h-3.9v-16.69h3.9Z"/>
    <path class="cls-6" d="M502.67,539.87c.48-.48,1.09-.73,1.8-.73.75,0,1.36.24,1.83.73.47.48.7,1.07.7,1.75s-.23,1.26-.7,1.75c-.47.48-1.08.73-1.83.73s-1.32-.24-1.8-.73-.73-1.07-.73-1.75.24-1.26.73-1.75Z"/>
    <path class="cls-6" d="M511.34,539.87c.48-.48,1.09-.73,1.8-.73.75,0,1.36.24,1.83.73.47.48.7,1.07.7,1.75s-.23,1.26-.7,1.75c-.47.48-1.08.73-1.83.73s-1.32-.24-1.8-.73-.73-1.07-.73-1.75.24-1.26.73-1.75Z"/>
    <path class="cls-6" d="M520.01,539.87c.48-.48,1.09-.73,1.8-.73.75,0,1.36.24,1.83.73.47.48.7,1.07.7,1.75s-.23,1.26-.7,1.75c-.47.48-1.08.73-1.83.73s-1.32-.24-1.8-.73-.73-1.07-.73-1.75.24-1.26.73-1.75Z"/>
    <path class="cls-6" d="M535.78,549.37v-18.3h4.06v18.3h-4.06ZM549.11,540.89c-.56.99-1.29,1.73-2.18,2.23-.89.5-1.84.75-2.87.75-1.08,0-2-.27-2.79-.82-.78-.55-1.38-1.32-1.79-2.31-.41-1-.62-2.16-.62-3.49s.21-2.51.62-3.5c.41-.99,1.01-1.75,1.79-2.3.78-.55,1.71-.82,2.79-.82s1.98.25,2.87.75c.89.5,1.61,1.24,2.18,2.22.57.98.85,2.19.85,3.65s-.28,2.65-.85,3.63ZM545.28,535.62c-.27-.45-.63-.79-1.08-1.02-.45-.23-.94-.35-1.48-.35-.47,0-.92.11-1.36.34-.44.22-.8.56-1.09,1.01-.29.45-.43,1-.43,1.67s.14,1.22.43,1.67c.29.45.65.79,1.09,1.01.44.22.89.34,1.36.34.54,0,1.03-.12,1.48-.35.45-.23.81-.57,1.08-1.02.27-.45.4-1,.4-1.64s-.13-1.19-.4-1.64Z"/>
    <path class="cls-6" d="M556.5,522.46v20.99h-4.09v-20.99h4.09Z"/>
    <path class="cls-6" d="M562.25,542.93c-1.05-.53-1.86-1.28-2.44-2.25-.57-.97-.86-2.11-.86-3.42s.28-2.48.83-3.44,1.36-1.71,2.41-2.23c1.05-.52,2.29-.78,3.73-.78s2.65.25,3.63.74c.99.49,1.74,1.21,2.26,2.14.52.93.78,2.06.78,3.39v.58c0,.19-.02.35-.05.47h-11.3v-2.26h7.64l-.97,1.24c.09-.12.17-.28.23-.47.06-.19.09-.35.09-.47,0-.54-.1-1-.3-1.4-.2-.39-.48-.7-.83-.92-.36-.21-.78-.32-1.27-.32-.61,0-1.12.13-1.53.4s-.72.68-.93,1.22c-.21.55-.32,1.23-.34,2.06,0,.75.11,1.4.32,1.94.22.54.54.95.97,1.22.43.28.96.42,1.59.42.72,0,1.33-.13,1.84-.4.51-.27.92-.67,1.22-1.21l3.63.89c-.65,1.22-1.52,2.13-2.62,2.75-1.1.61-2.44.92-4.02.92-1.44,0-2.68-.27-3.73-.79Z"/>
    <path class="cls-6" d="M582.73,534.22c-.28-.39-.74-.59-1.39-.59-.43,0-.81.09-1.13.27-.32.18-.57.44-.75.78-.18.34-.27.75-.27,1.24v7.54h-4.09v-12.38h4.09v1.86c.36-.68.85-1.21,1.47-1.59.62-.38,1.39-.56,2.3-.56,1.54,0,2.66.41,3.36,1.24.7.83,1.05,1.98,1.05,3.47v7.97h-4.23v-7.54c0-.74-.14-1.3-.42-1.7Z"/>
    <path class="cls-6" d="M597.41,531.07v3.36h-8.29v-3.36h8.29ZM595.2,526.76v16.69h-3.9v-16.69h3.9Z"/>
    <path class="cls-6" d="M603.73,549.37h-4.09l3.01-6.92-5.36-11.38h4.47l4.01,9.93-2.1-.03,3.96-9.9h4.17l-8.07,18.3Z"/>
    <path class="cls-6" d="M621.41,533.84c.61-.97,1.45-1.72,2.53-2.26,1.08-.54,2.29-.81,3.63-.81s2.55.27,3.62.81c1.07.54,1.91,1.29,2.53,2.26.62.97.93,2.11.93,3.42s-.31,2.42-.93,3.39c-.62.97-1.46,1.72-2.53,2.26s-2.27.81-3.62.81-2.56-.27-3.63-.81-1.92-1.29-2.53-2.26c-.61-.97-.92-2.1-.92-3.39s.3-2.45.92-3.42ZM625.07,538.92c.27.46.62.81,1.05,1.06.43.25.92.38,1.45.38s1-.13,1.44-.38c.44-.25.79-.61,1.05-1.06.26-.46.39-1.01.39-1.66s-.13-1.2-.39-1.67-.61-.83-1.05-1.08c-.44-.25-.92-.38-1.44-.38s-1.02.13-1.45.38c-.43.25-.78.61-1.05,1.08s-.4,1.02-.4,1.67.13,1.2.4,1.66Z"/>
    <path class="cls-6" d="M644.45,531.07v3.36h-8.45v-3.36h8.45ZM643.42,525.85c-.21-.11-.43-.16-.66-.16-.27,0-.5.06-.69.19-.19.13-.34.32-.44.59-.11.27-.16.62-.16,1.05v15.93h-3.9v-16.96c0-.93.17-1.73.52-2.4.35-.66.87-1.17,1.56-1.53.69-.36,1.55-.54,2.57-.54.63,0,1.16.08,1.59.23.43.15.8.33,1.1.54.31.21.55.4.73.58l-1.64,2.99c-.18-.23-.37-.4-.58-.51Z"/>
    <path class="cls-6" d="M657.01,542.93c-1.05-.53-1.86-1.28-2.44-2.25-.57-.97-.86-2.11-.86-3.42s.28-2.48.83-3.44,1.36-1.71,2.41-2.23c1.05-.52,2.29-.78,3.73-.78s2.65.25,3.63.74c.99.49,1.74,1.21,2.26,2.14.52.93.78,2.06.78,3.39v.58c0,.19-.02.35-.05.47h-11.3v-2.26h7.64l-.97,1.24c.09-.12.17-.28.23-.47.06-.19.09-.35.09-.47,0-.54-.1-1-.3-1.4-.2-.39-.48-.7-.83-.92-.36-.21-.78-.32-1.27-.32-.61,0-1.12.13-1.53.4s-.72.68-.93,1.22c-.21.55-.32,1.23-.34,2.06,0,.75.11,1.4.32,1.94.22.54.54.95.97,1.22.43.28.96.42,1.59.42.72,0,1.33-.13,1.84-.4.51-.27.92-.67,1.22-1.21l3.63.89c-.65,1.22-1.52,2.13-2.62,2.75-1.1.61-2.44.92-4.02.92-1.44,0-2.68-.27-3.73-.79Z"/>
    <path class="cls-6" d="M681.91,531.07l-4.74,6.03,5.01,6.35h-4.52l-2.58-3.61-2.53,3.61h-4.68l5.09-6.35-4.82-6.03h4.68l2.26,3.26,2.31-3.26h4.52Z"/>
    <path class="cls-6" d="M687.22,538.97c.29.48.69.85,1.2,1.12s1.06.4,1.66.4c.5,0,.98-.08,1.44-.23.46-.15.88-.36,1.27-.63.39-.27.7-.6.96-1v3.96c-.43.34-.97.62-1.61.82-.65.21-1.44.31-2.37.31-1.36,0-2.59-.27-3.67-.81-1.08-.54-1.94-1.29-2.56-2.26s-.93-2.1-.93-3.39.31-2.44.93-3.4,1.47-1.71,2.56-2.25c1.09-.54,2.31-.81,3.67-.81.93,0,1.72.1,2.37.31.65.21,1.18.46,1.61.77v3.98c-.25-.39-.58-.73-.98-1-.4-.27-.84-.48-1.3-.62-.47-.14-.92-.22-1.37-.22-.59,0-1.14.14-1.66.43-.51.29-.91.67-1.2,1.16-.29.48-.43,1.03-.43,1.64,0,.66.14,1.23.43,1.71Z"/>
    <path class="cls-6" d="M697.12,524.84c.47-.4,1.02-.61,1.67-.61s1.22.2,1.68.61c.46.4.69.93.69,1.57s-.23,1.18-.69,1.59c-.46.41-1.02.62-1.68.62s-1.2-.21-1.67-.62c-.47-.41-.7-.94-.7-1.59s.23-1.17.7-1.57ZM700.75,531.07v12.38h-3.93v-12.38h3.93Z"/>
    <path class="cls-6" d="M710.93,531.07v3.36h-8.29v-3.36h8.29ZM708.72,526.76v16.69h-3.9v-16.69h3.9Z"/>
    <path class="cls-6" d="M713.11,524.84c.47-.4,1.02-.61,1.67-.61s1.22.2,1.68.61c.46.4.69.93.69,1.57s-.23,1.18-.69,1.59c-.46.41-1.02.62-1.68.62s-1.2-.21-1.67-.62c-.47-.41-.7-.94-.7-1.59s.23-1.17.7-1.57ZM716.74,531.07v12.38h-3.93v-12.38h3.93Z"/>
    <path class="cls-6" d="M727.71,534.22c-.28-.39-.74-.59-1.39-.59-.43,0-.81.09-1.13.27-.32.18-.57.44-.75.78-.18.34-.27.75-.27,1.24v7.54h-4.09v-12.38h4.09v1.86c.36-.68.85-1.21,1.47-1.59.62-.38,1.39-.56,2.3-.56,1.54,0,2.67.41,3.36,1.24.7.83,1.05,1.98,1.05,3.47v7.97h-4.23v-7.54c0-.74-.14-1.3-.42-1.7Z"/>
    <path class="cls-6" d="M735.67,533.6c.57-.93,1.3-1.63,2.19-2.1s1.85-.7,2.85-.7,1.96.25,2.76.74c.8.49,1.43,1.21,1.9,2.14.47.93.7,2.07.7,3.42s-.23,2.46-.7,3.4c-.47.94-1.1,1.66-1.9,2.15-.8.49-1.72.74-2.76.74s-1.96-.24-2.85-.71-1.63-1.18-2.19-2.11c-.57-.93-.85-2.09-.85-3.47s.28-2.57.85-3.5ZM739.02,544.34c.05.5.2.92.44,1.27s.57.6.98.77c.41.17.88.26,1.4.26.57,0,1.09-.13,1.56-.39.47-.26.84-.65,1.12-1.16.28-.51.42-1.14.42-1.9v-12.11h3.9v12.11c0,1.58-.31,2.86-.93,3.85-.62.99-1.44,1.71-2.46,2.17-1.02.46-2.17.69-3.45.69-1.53,0-2.79-.23-3.78-.7s-1.75-1.12-2.25-1.95c-.5-.83-.8-1.8-.89-2.89h3.93ZM739.51,538.73c.27.46.63.8,1.08,1.04.45.23.94.35,1.48.35.47,0,.92-.11,1.36-.34.44-.22.8-.56,1.09-1.01s.43-1,.43-1.67c0-.5-.08-.94-.26-1.32-.17-.38-.39-.69-.67-.94-.28-.25-.59-.44-.93-.57-.34-.12-.68-.19-1.02-.19-.54,0-1.03.12-1.48.35-.45.23-.81.57-1.08,1.02-.27.45-.4,1-.4,1.64s.13,1.17.4,1.63Z"/>
    <path class="cls-6" d="M760.23,533.84c.61-.97,1.45-1.72,2.53-2.26,1.08-.54,2.29-.81,3.63-.81s2.55.27,3.62.81c1.07.54,1.91,1.29,2.53,2.26s.93,2.11.93,3.42-.31,2.42-.93,3.39-1.46,1.72-2.53,2.26c-1.07.54-2.27.81-3.62.81s-2.56-.27-3.63-.81c-1.08-.54-1.92-1.29-2.53-2.26-.61-.97-.92-2.1-.92-3.39s.3-2.45.92-3.42ZM763.89,538.92c.27.46.62.81,1.05,1.06s.92.38,1.45.38,1-.13,1.44-.38.79-.61,1.05-1.06c.26-.46.39-1.01.39-1.66s-.13-1.2-.39-1.67-.61-.83-1.05-1.08c-.44-.25-.92-.38-1.44-.38s-1.02.13-1.45.38c-.43.25-.78.61-1.05,1.08s-.4,1.02-.4,1.67.13,1.2.4,1.66Z"/>
    <path class="cls-6" d="M783.27,531.07v3.36h-8.45v-3.36h8.45ZM782.23,525.85c-.21-.11-.43-.16-.66-.16-.27,0-.5.06-.69.19s-.34.32-.44.59c-.11.27-.16.62-.16,1.05v15.93h-3.9v-16.96c0-.93.17-1.73.52-2.4s.87-1.17,1.56-1.53c.69-.36,1.55-.54,2.57-.54.63,0,1.16.08,1.59.23s.8.33,1.1.54c.3.21.55.4.73.58l-1.64,2.99c-.18-.23-.37-.4-.58-.51Z"/>
    <path class="cls-6" d="M792.53,531.07v3.36h-8.45v-3.36h8.45ZM791.49,525.85c-.21-.11-.43-.16-.66-.16-.27,0-.5.06-.69.19s-.34.32-.44.59c-.11.27-.16.62-.16,1.05v15.93h-3.9v-16.96c0-.93.17-1.73.52-2.4s.87-1.17,1.56-1.53c.69-.36,1.55-.54,2.57-.54.63,0,1.16.08,1.59.23s.8.33,1.1.54c.3.21.55.4.73.58l-1.64,2.99c-.18-.23-.37-.4-.58-.51Z"/>
    <path class="cls-6" d="M797.01,542.93c-1.05-.53-1.86-1.28-2.44-2.25-.57-.97-.86-2.11-.86-3.42s.28-2.48.83-3.44c.56-.97,1.36-1.71,2.41-2.23,1.05-.52,2.29-.78,3.73-.78s2.65.25,3.63.74c.99.49,1.74,1.21,2.26,2.14.52.93.78,2.06.78,3.39v.58c0,.19-.02.35-.05.47h-11.3v-2.26h7.64l-.97,1.24c.09-.12.17-.28.23-.47.06-.19.09-.35.09-.47,0-.54-.1-1-.3-1.4-.2-.39-.48-.7-.83-.92-.36-.21-.78-.32-1.26-.32-.61,0-1.12.13-1.53.4s-.72.68-.93,1.22c-.21.55-.32,1.23-.34,2.06,0,.75.11,1.4.32,1.94.21.54.54.95.97,1.22.43.28.96.42,1.59.42.72,0,1.33-.13,1.84-.4.51-.27.92-.67,1.22-1.21l3.63.89c-.65,1.22-1.52,2.13-2.62,2.75-1.1.61-2.45.92-4.02.92-1.44,0-2.68-.27-3.73-.79Z"/>
    <path class="cls-6" d="M813.87,543.45h-4.01v-12.38h4.01v12.38ZM816.76,534.76c-.24-.12-.54-.19-.9-.19-.4,0-.75.11-1.05.32-.31.22-.54.53-.7.94-.16.41-.24.92-.24,1.51l-.97-1.43c0-.99.19-1.87.58-2.64.39-.77.89-1.38,1.52-1.83.63-.45,1.28-.67,1.96-.67.45,0,.88.09,1.29.27.41.18.73.43.94.75l-1.75,3.47c-.22-.21-.44-.39-.69-.51Z"/>
    <path class="cls-6" d="M823.3,540.18c.51.3.96.5,1.36.62.39.12.74.18,1.02.18.41,0,.72-.09.92-.27.2-.18.3-.41.3-.7,0-.27-.08-.5-.24-.69s-.44-.37-.82-.55c-.39-.18-.91-.37-1.58-.57-.59-.22-1.15-.47-1.68-.77-.53-.3-.96-.7-1.31-1.2-.34-.5-.51-1.15-.51-1.94s.2-1.39.61-1.91c.4-.52.95-.92,1.64-1.18.69-.27,1.48-.4,2.38-.4.72,0,1.39.08,2,.24.62.16,1.2.38,1.75.65.55.27,1.06.58,1.55.94l-1.45,2.64c-.52-.48-1.11-.88-1.78-1.2-.66-.31-1.27-.47-1.83-.47-.38,0-.66.07-.85.22s-.28.33-.28.57c0,.27.11.49.34.67.22.18.55.34.97.5.42.15.94.35,1.55.58.65.23,1.24.5,1.79.81.55.3.99.69,1.32,1.16s.5,1.09.5,1.86c0,1.33-.41,2.33-1.22,3-.82.67-1.96,1.01-3.43,1.01-.9,0-1.73-.1-2.49-.31-.76-.21-1.47-.48-2.11-.83-.65-.35-1.25-.74-1.8-1.17l1.7-2.69c.63.52,1.2.93,1.71,1.22Z"/>
    <path class="cls-6" d="M844.66,540.4c.16.22.38.39.65.51.27.12.57.17.89.17.47,0,.9-.1,1.29-.3s.72-.49.97-.89c.25-.39.38-.88.38-1.45l.43,1.62c0,.79-.21,1.46-.65,2-.43.55-.99.96-1.67,1.24-.68.28-1.42.42-2.21.42s-1.52-.15-2.19-.44-1.21-.74-1.61-1.33c-.4-.59-.61-1.31-.61-2.15,0-1.18.42-2.12,1.27-2.81.84-.69,2.04-1.04,3.58-1.04.75,0,1.43.07,2.03.21.6.14,1.12.32,1.55.54.43.21.75.44.97.67v1.8c-.43-.32-.93-.57-1.49-.74-.57-.17-1.16-.26-1.79-.26-.48,0-.87.05-1.16.16s-.5.26-.65.47-.22.46-.22.77c0,.32.08.6.24.82ZM841.24,532.15c.7-.34,1.54-.66,2.53-.97.99-.3,2.06-.46,3.23-.46,1.09,0,2.07.16,2.93.47s1.54.77,2.05,1.36c.5.59.75,1.32.75,2.18v8.72h-3.9v-7.8c0-.3-.05-.57-.15-.79-.1-.22-.25-.42-.44-.58-.2-.16-.44-.28-.74-.35-.3-.07-.63-.11-1.01-.11-.56,0-1.1.06-1.63.19-.53.12-.99.27-1.39.44-.39.17-.68.31-.86.42l-1.37-2.72Z"/>
    <path class="cls-6" d="M858.11,531.07l2.58,6.35,3.55-7.29,3.63,7.29,2.58-6.35h4.25l-6.38,13.16-4.09-7.37-4.01,7.37-6.38-13.16h4.25Z"/>
    <path class="cls-6" d="M879.51,540.4c.16.22.38.39.65.51.27.12.57.17.89.17.47,0,.9-.1,1.29-.3s.72-.49.97-.89c.25-.39.38-.88.38-1.45l.43,1.62c0,.79-.21,1.46-.65,2-.43.55-.99.96-1.67,1.24-.68.28-1.42.42-2.21.42s-1.52-.15-2.19-.44-1.21-.74-1.61-1.33c-.4-.59-.61-1.31-.61-2.15,0-1.18.42-2.12,1.27-2.81.84-.69,2.04-1.04,3.58-1.04.75,0,1.43.07,2.03.21.6.14,1.12.32,1.55.54.43.21.75.44.97.67v1.8c-.43-.32-.93-.57-1.49-.74-.57-.17-1.16-.26-1.79-.26-.48,0-.87.05-1.16.16s-.5.26-.65.47-.22.46-.22.77c0,.32.08.6.24.82ZM876.09,532.15c.7-.34,1.54-.66,2.53-.97.99-.3,2.06-.46,3.23-.46,1.09,0,2.07.16,2.93.47s1.54.77,2.05,1.36c.5.59.75,1.32.75,2.18v8.72h-3.9v-7.8c0-.3-.05-.57-.15-.79-.1-.22-.25-.42-.44-.58-.2-.16-.44-.28-.74-.35-.3-.07-.63-.11-1.01-.11-.56,0-1.1.06-1.63.19-.53.12-.99.27-1.39.44-.39.17-.68.31-.86.42l-1.37-2.72Z"/>
    <path class="cls-6" d="M891.08,524.84c.47-.4,1.02-.61,1.67-.61s1.22.2,1.68.61c.46.4.69.93.69,1.57s-.23,1.18-.69,1.59c-.46.41-1.02.62-1.68.62s-1.2-.21-1.67-.62c-.47-.41-.7-.94-.7-1.59s.23-1.17.7-1.57ZM894.71,531.07v12.38h-3.93v-12.38h3.93Z"/>
    <path class="cls-6" d="M904.89,531.07v3.36h-8.29v-3.36h8.29ZM902.68,526.76v16.69h-3.9v-16.69h3.9Z"/>
    <path class="cls-6" d="M912.15,524.61l-.86,12.62h-3.28l-.89-12.62h5.03ZM907.83,540.11c.48-.43,1.08-.65,1.82-.65s1.34.22,1.82.65.71.99.71,1.67-.24,1.24-.71,1.67-1.08.65-1.82.65-1.34-.21-1.82-.65-.71-.99-.71-1.67.24-1.24.71-1.67Z"/>
  </g>
  <g>
    <rect class="cls-7" x="354.37" y="440.53" width="430.8" height="51" rx="16.03" ry="16.03"/>
    <g>
      <path class="cls-5" d="M379.27,454.07v22.42h-1.76v-22.42h1.76ZM378.44,454.07h11.11v1.67h-11.11v-1.67ZM378.44,463.36h10.47v1.67h-10.47v-1.67ZM378.44,474.83h11.11v1.67h-11.11v-1.67Z"/>
      <path class="cls-5" d="M413.22,476.49h-1.67v-9.48c0-1.28-.25-2.27-.74-2.96-.49-.69-1.25-1.04-2.27-1.04-.73,0-1.38.19-1.97.58-.59.38-1.05.92-1.39,1.6-.34.68-.51,1.46-.51,2.34v8.97h-1.67v-9.48c0-1.28-.25-2.27-.74-2.96-.49-.69-1.25-1.04-2.27-1.04-.73,0-1.38.19-1.97.58-.59.38-1.05.92-1.39,1.6-.34.68-.51,1.46-.51,2.34v8.97h-1.67v-14.73h1.67v2.98c.38-1.05.95-1.86,1.7-2.43.75-.58,1.6-.87,2.56-.87,1.07,0,1.94.3,2.63.91.68.61,1.14,1.44,1.38,2.48.43-1.07,1.05-1.9,1.86-2.5.81-.6,1.71-.9,2.69-.9.92,0,1.7.21,2.34.64.64.43,1.13,1.05,1.46,1.86.33.81.5,1.77.5,2.88v9.67Z"/>
      <path class="cls-5" d="M419.03,473.9c.33.49.78.86,1.35,1.11.57.25,1.19.37,1.87.37.83,0,1.6-.19,2.29-.58.69-.38,1.25-.95,1.68-1.7.43-.75.64-1.67.64-2.75l.38,1.41c0,1.15-.28,2.1-.83,2.85-.56.75-1.25,1.3-2.08,1.67-.83.36-1.68.54-2.53.54s-1.63-.18-2.4-.53c-.77-.35-1.39-.87-1.86-1.55-.47-.68-.7-1.55-.7-2.59,0-1.43.5-2.56,1.49-3.4.99-.83,2.34-1.25,4.05-1.25.96,0,1.79.11,2.48.34.69.22,1.27.48,1.71.75.45.28.77.51.96.71v1.06c-.73-.51-1.5-.89-2.32-1.14-.82-.25-1.68-.37-2.58-.37-.83,0-1.55.12-2.16.35-.61.24-1.08.59-1.43,1.06-.34.47-.51,1.08-.51,1.83s.17,1.33.5,1.83ZM417.77,463.2c.56-.38,1.28-.77,2.16-1.17.89-.39,1.98-.59,3.28-.59,1.11,0,2.06.18,2.85.54s1.4.89,1.83,1.57.64,1.52.64,2.5v10.44h-1.67v-10.22c0-.43-.06-.84-.19-1.23-.13-.39-.34-.75-.62-1.07-.29-.32-.68-.58-1.17-.77s-1.09-.29-1.79-.29-1.38.09-1.95.26c-.58.17-1.07.37-1.49.61-.42.23-.76.46-1.04.67l-.83-1.25Z"/>
      <path class="cls-5" d="M433.46,454.25c.23-.22.51-.34.83-.34.34,0,.62.11.85.34.22.22.34.51.34.85,0,.32-.11.6-.34.83-.22.24-.51.35-.85.35-.32,0-.6-.12-.83-.35-.23-.23-.35-.51-.35-.83,0-.34.12-.62.35-.85ZM435.13,461.76v14.73h-1.67v-14.73h1.67Z"/>
      <path class="cls-5" d="M442.21,451.51v24.98h-1.67v-24.98h1.67Z"/>
    </g>
    <rect class="cls-5" x="807.35" y="440.52" width="203.64" height="50.91" rx="13.16" ry="13.16"/>
    <text class="cls-1" transform="translate(856.61 477.25)"><tspan x="0" y="0">Subscribe</tspan></text>
  </g>
</svg>